<?xml version="1.0" encoding="UTF-8" standalone="no"?>
<!-- Created with Inkscape (http://www.inkscape.org/) -->

<svg
   xmlns:dc="http://purl.org/dc/elements/1.1/"
   xmlns:cc="http://creativecommons.org/ns#"
   xmlns:rdf="http://www.w3.org/1999/02/22-rdf-syntax-ns#"
   xmlns:svg="http://www.w3.org/2000/svg"
   xmlns="http://www.w3.org/2000/svg"
   xmlns:sodipodi="http://sodipodi.sourceforge.net/DTD/sodipodi-0.dtd"
   xmlns:inkscape="http://www.inkscape.org/namespaces/inkscape"
   version="1.1"
   width="68.050095"
   height="45.616882"
   id="svg2"
   inkscape:version="0.48.4 r9939"
   sodipodi:docname="home_2.svg">
  <sodipodi:namedview
     pagecolor="#ffffff"
     bordercolor="#666666"
     borderopacity="1"
     objecttolerance="10"
     gridtolerance="10"
     guidetolerance="10"
     inkscape:pageopacity="0"
     inkscape:pageshadow="2"
     inkscape:window-width="1547"
     inkscape:window-height="876"
     id="namedview14"
     showgrid="false"
     fit-margin-top="0"
     fit-margin-left="0"
     fit-margin-right="0"
     fit-margin-bottom="0"
     inkscape:zoom="5.6568542"
     inkscape:cx="86.408576"
     inkscape:cy="33.917179"
     inkscape:window-x="1653"
     inkscape:window-y="24"
     inkscape:window-maximized="1"
     inkscape:current-layer="g3845" />
  <defs
     id="defs4" />
  <metadata
     id="metadata7">
    <rdf:RDF>
      <cc:Work
         rdf:about="">
        <dc:format>image/svg+xml</dc:format>
        <dc:type
           rdf:resource="http://purl.org/dc/dcmitype/StillImage" />
        <dc:title />
      </cc:Work>
    </rdf:RDF>
  </metadata>
  <g
     transform="translate(-499.07799,-639.26078)"
     id="layer1">
    <g
       id="g3805">
      <g
         transform="translate(116.54774,271.66647)"
         id="g3845"
         style="fill:#e91e63;fill-opacity:1">
        <path
           d="m 426.18228,396.64182 c 15.55676,1.69875 16.58166,10.88485 19.27419,9.59252 1.84388,-2.8779 -6.98221,-10.16169 -16.96205,-11.51602 -13.10406,-1.77832 -41.37485,-1.83347 -41.45808,0.24846 0.10323,2.28909 17.99497,-0.63458 39.14594,1.67504 z"
           id="rect5408"
           style="fill:#e91e63;fill-opacity:1;stroke:none"
           inkscape:connector-curvature="0"
           sodipodi:nodetypes="scscs" />
        <path
           d="m 449.73941,413.00789 c 2.31036,-1.28612 -0.54341,-17.98608 -3.68252,-19.53794 -0.81531,0.82413 3.35998,17.78995 1.62002,16.78967 -5.14292,-2.9566 -18.39223,-9.5658 -16.94383,-5.61674 9.243,3.48832 17.70588,9.77769 19.00633,8.36501 z"
           id="rect5411"
           style="fill:#e91e63;fill-opacity:1;stroke:none"
           inkscape:connector-curvature="0" />
      </g>
      <g
         id="text3764"
         style="font-size:29.92525673px;font-style:normal;font-variant:normal;font-weight:300;font-stretch:normal;text-align:start;line-height:100%;letter-spacing:0px;word-spacing:0px;writing-mode:lr-tb;text-anchor:start;fill:#e91e63;fill-opacity:1;stroke:none;font-family:Ubuntu;-inkscape-font-specification:Ubuntu Light">
        <path
           d="m 518.52941,652.00894 c -2e-5,1.77558 -0.25937,3.34166 -0.77806,4.69827 -0.51872,1.35661 -1.22695,2.49377 -2.12469,3.41148 -0.87783,0.89775 -1.90526,1.57606 -3.0823,2.03491 -1.17708,0.45886 -2.42396,0.68828 -3.74066,0.68828 -1.31672,0 -2.56361,-0.22942 -3.74066,-0.68828 -1.17706,-0.45885 -2.21447,-1.13716 -3.11222,-2.03491 -0.87782,-0.91771 -1.57607,-2.05487 -2.09477,-3.41148 -0.51871,-1.35661 -0.77806,-2.92269 -0.77806,-4.69827 0,-1.77555 0.25935,-3.33166 0.77806,-4.66834 0.5187,-1.35659 1.21695,-2.48378 2.09477,-3.38155 0.89775,-0.91769 1.93516,-1.60597 3.11222,-2.06485 1.17705,-0.45883 2.42394,-0.68826 3.74066,-0.68828 1.3167,2e-5 2.56358,0.22945 3.74066,0.68828 1.17704,0.45888 2.20447,1.14716 3.0823,2.06485 0.89774,0.89777 1.60597,2.02496 2.12469,3.38155 0.51869,1.33668 0.77804,2.89279 0.77806,4.66834 m -2.15462,0 c -2e-5,-1.3965 -0.17957,-2.64338 -0.53865,-3.74066 -0.35913,-1.11719 -0.86785,-2.06482 -1.52619,-2.8429 -0.65837,-0.77803 -1.45638,-1.36656 -2.39402,-1.76559 -0.91772,-0.41893 -1.95513,-0.62841 -3.11223,-0.62843 -1.15712,2e-5 -2.2045,0.2095 -3.14215,0.62843 -0.91772,0.39903 -1.70575,0.98756 -2.3641,1.76559 -0.65836,0.77808 -1.16709,1.72571 -1.52619,2.8429 -0.3591,1.09728 -0.53865,2.34416 -0.53865,3.74066 0,1.39652 0.17955,2.65338 0.53865,3.77058 0.3591,1.09727 0.86783,2.03493 1.52619,2.81298 0.65835,0.77806 1.44638,1.37656 2.3641,1.79551 0.93765,0.41896 1.98503,0.62843 3.14215,0.62843 1.1571,0 2.19451,-0.20947 3.11223,-0.62843 0.93764,-0.41895 1.73565,-1.01745 2.39402,-1.79551 0.65834,-0.77805 1.16706,-1.71571 1.52619,-2.81298 0.35908,-1.1172 0.53863,-2.37406 0.53865,-3.77058"
           id="path3813"
           inkscape:connector-curvature="0" />
        <path
           d="m 534.82184,661.85435 c -0.57857,0.1596 -1.35662,0.33915 -2.33417,0.53866 -0.97757,0.1995 -2.17458,0.29925 -3.59103,0.29925 -1.15712,0 -2.1247,-0.16958 -2.90275,-0.50873 -0.77806,-0.33915 -1.40649,-0.81796 -1.88529,-1.43641 -0.47881,-0.61846 -0.82794,-1.36659 -1.04739,-2.2444 -0.1995,-0.8778 -0.29925,-1.84538 -0.29925,-2.90275 l 0,-8.67832 1.94514,0 0,8.04989 c 0,1.09727 0.0798,2.02495 0.23941,2.78305 0.15959,0.75811 0.41894,1.37657 0.77805,1.85537 0.3591,0.45885 0.81795,0.79801 1.37656,1.01746 0.57855,0.1995 1.27681,0.29925 2.09477,0.29925 0.9177,0 1.71571,-0.0499 2.39402,-0.14963 0.6783,-0.0998 1.10722,-0.18952 1.28679,-0.26933 l 0,-13.58606 1.94514,0 0,14.9327 m -8.79803,-22.59357 4.72819,4.54864 -0.98753,1.13716 -5.11722,-4.15961 1.37656,-1.52619"
           id="path3815"
           inkscape:connector-curvature="0" />
        <path
           d="m 549.0326,642.94159 c -1.33667,2e-5 -2.55363,0.29927 -3.65088,0.89776 l -0.56858,-1.61597 c 0.41895,-0.23938 1.01745,-0.46881 1.79551,-0.68828 0.798,-0.21943 1.67581,-0.32916 2.63342,-0.32918 1.05736,2e-5 1.93516,0.13968 2.63343,0.41896 0.71819,0.25937 1.28677,0.6085 1.70574,1.04738 0.41894,0.41897 0.71819,0.89778 0.89775,1.43641 0.17954,0.53868 0.26932,1.06735 0.26933,1.58604 -1e-5,0.71822 -0.12969,1.35663 -0.38903,1.91522 -0.25936,0.55862 -0.58854,1.07732 -0.98753,1.55611 -0.39901,0.47882 -0.82794,0.93767 -1.28679,1.37656 -0.43891,0.43892 -0.85786,0.89777 -1.25686,1.37657 -0.39901,0.45886 -0.72819,0.95761 -0.98753,1.49626 -0.25936,0.53866 -0.38904,1.13717 -0.38903,1.79551 -10e-6,0.21946 -10e-6,0.38904 0,0.50873 -10e-6,0.0998 0.01,0.19951 0.0299,0.29926 l -1.55612,0 c -0.0399,-0.1995 -0.0698,-0.40898 -0.0898,-0.62843 -0.02,-0.2394 -0.0299,-0.4788 -0.0299,-0.71821 0,-0.6783 0.1197,-1.2768 0.3591,-1.79552 0.2394,-0.53864 0.53865,-1.03739 0.89776,-1.49626 0.3591,-0.45884 0.74813,-0.88777 1.16709,-1.28679 0.41894,-0.41894 0.80797,-0.83789 1.16708,-1.25686 0.3591,-0.43889 0.65835,-0.89774 0.89776,-1.37656 0.23939,-0.49874 0.35909,-1.05734 0.3591,-1.67581 -10e-6,-0.55859 -0.0998,-1.01744 -0.29925,-1.37656 -0.19951,-0.37904 -0.46884,-0.67829 -0.80798,-0.89776 -0.31921,-0.21943 -0.69826,-0.36906 -1.13716,-0.44888 -0.43891,-0.0798 -0.89776,-0.11968 -1.37656,-0.1197 m 1.46633,18.16463 c 0,0.45885 -0.14963,0.84788 -0.44887,1.16708 -0.27931,0.31921 -0.67832,0.47881 -1.19702,0.47881 -0.5187,0 -0.92768,-0.1596 -1.22693,-0.47881 -0.27931,-0.3192 -0.41896,-0.70823 -0.41895,-1.16708 -10e-6,-0.45885 0.13964,-0.84788 0.41895,-1.16709 0.29925,-0.3192 0.70823,-0.4788 1.22693,-0.4788 0.5187,0 0.91771,0.1596 1.19702,0.4788 0.29924,0.31921 0.44887,0.70824 0.44887,1.16709"
           id="path3817"
           inkscape:connector-curvature="0" />
      </g>
    </g>
  </g>
</svg>
