<?xml version="1.0" encoding="UTF-8" standalone="no"?>
<!-- Created with Inkscape (http://www.inkscape.org/) -->

<svg
   xmlns:dc="http://purl.org/dc/elements/1.1/"
   xmlns:cc="http://creativecommons.org/ns#"
   xmlns:rdf="http://www.w3.org/1999/02/22-rdf-syntax-ns#"
   xmlns:svg="http://www.w3.org/2000/svg"
   xmlns="http://www.w3.org/2000/svg"
   xmlns:sodipodi="http://sodipodi.sourceforge.net/DTD/sodipodi-0.dtd"
   xmlns:inkscape="http://www.inkscape.org/namespaces/inkscape"
   version="1.1"
   width="585"
   height="200"
   id="svg2"
   inkscape:version="0.48.4 r9939"
   sodipodi:docname="home_1.svg">
  <sodipodi:namedview
     pagecolor="#ffffff"
     bordercolor="#666666"
     borderopacity="1"
     objecttolerance="10"
     gridtolerance="10"
     guidetolerance="10"
     inkscape:pageopacity="0"
     inkscape:pageshadow="2"
     inkscape:window-width="1547"
     inkscape:window-height="876"
     id="namedview3719"
     showgrid="false"
     inkscape:zoom="1.6934301"
     inkscape:cx="337.17862"
     inkscape:cy="86.49516"
     inkscape:window-x="1653"
     inkscape:window-y="24"
     inkscape:window-maximized="1"
     inkscape:current-layer="layer1" />
  <defs
     id="defs4">
    <filter
       color-interpolation-filters="sRGB"
       id="filter3819">
      <feFlood
         result="flood"
         flood-color="rgb(0,0,0)"
         flood-opacity="0.5"
         id="feFlood3821" />
      <feComposite
         in2="SourceGraphic"
         operator="in"
         in="flood"
         result="composite1"
         id="feComposite3823" />
      <feGaussianBlur
         result="blur"
         stdDeviation="2"
         id="feGaussianBlur3825" />
      <feOffset
         result="offset"
         dy="2"
         dx="2"
         id="feOffset3827" />
      <feComposite
         in2="offset"
         operator="over"
         in="SourceGraphic"
         result="composite2"
         id="feComposite3829" />
    </filter>
  </defs>
  <metadata
     id="metadata7">
    <rdf:RDF>
      <cc:Work
         rdf:about="">
        <dc:format>image/svg+xml</dc:format>
        <dc:type
           rdf:resource="http://purl.org/dc/dcmitype/StillImage" />
        <dc:title />
      </cc:Work>
    </rdf:RDF>
  </metadata>
  <g
     transform="translate(0,-852.36215)"
     id="layer1">
    <g
       transform="translate(8.7313027,895.26799)"
       id="g3878"
       style="fill:#aeaeae;fill-opacity:0.44343901">
      <g
         id="g3832"
         style="fill:#aeaeae;fill-opacity:0.44343901">
        <g
           id="g3834"
           style="fill:#aeaeae;fill-opacity:0.44343901">
          <circle
             cx="8.6759996"
             cy="3.3099999"
             r="3.3099999"
             id="circle3836"
             style="fill:#aeaeae;fill-opacity:0.44343901"
             d="m 11.986,3.3099999 c 0,1.8280625 -1.481938,3.31 -3.3100004,3.31 -1.8280624,0 -3.3099999,-1.4819375 -3.3099999,-3.31 C 5.3659997,1.4819375 6.8479372,0 8.6759996,0 10.504062,0 11.986,1.4819375 11.986,3.3099999 z"
             sodipodi:cx="8.6759996"
             sodipodi:cy="3.3099999"
             sodipodi:rx="3.3099999"
             sodipodi:ry="3.3099999" />
          <path
             d="M 10.3,6.98 9.513,7.31 C 9.354,7.033 9.06,6.845 8.716,6.845 c -0.343,0 -0.635,0.184 -0.8,0.458 L 7.132,6.967 C 7.016,6.92 6.924,6.928 6.82,6.998 6.716,7.068 6.692,7.183 6.692,7.307 v 0.979 c 0,0.12 0.015,0.23 0.11,0.299 0.097,0.069 0.171,0.091 0.285,0.059 0.309,-0.096 0.69,-0.212 0.911,-0.279 0.17,0.205 0.427,0.337 0.718,0.337 0.275,0 0.529,-0.123 0.699,-0.318 0.221,0.068 0.615,0.184 0.929,0.279 0.112,0.032 0.236,0.012 0.335,-0.06 0.093,-0.07 0.157,-0.18 0.157,-0.297 V 7.322 C 10.836,7.196 10.764,7.081 10.658,7.011 10.556,6.943 10.413,6.931 10.3,6.98 z"
             id="path3838"
             style="fill:#aeaeae;fill-opacity:0.44343901"
             inkscape:connector-curvature="0" />
          <path
             d="M 31.345,3.899 V 2.833 l -14.96,0.021 v 1.044 l 1.074,0.009 h 0.007 l -0.027,5.838 v 0.002 c 0,0.031 -0.079,0.065 -0.123,0.104 L 14.69,12.188 11.413,8.152 8.674,11.72 5.901,7.887 c -1.317,0.905 -3.124,3.06 -3.628,7.856 -0.001,0 -0.001,0.018 -0.002,0.023 -0.01,0.097 -0.02,0.193 -0.028,0.292 C 2.242,16.073 2.24,16.087 2.24,16.101 2.239,16.115 2.237,16.128 2.236,16.144 L 0.685,16.763 2.295,20.789 3,20.508 C 2.489,20.243 2.14,19.723 2.136,19.139 c 0,-0.156 0,-0.308 0.002,-0.461 0.041,0.711 0.625,1.314 1.34,1.314 h 10e-4 c 0.744,0 1.44,-0.646 1.44,-1.391 -10e-4,-0.672 -0.003,-1.301 0.019,-1.879 0.036,-0.896 0.07,-1.493 0.296,-2.173 0.064,-0.19 0.082,-0.312 0.17,-0.487 l 2.132,-0.757 1.818,4.549 -0.57,0.229 -1.572,-3.928 -1.397,0.558 c -0.337,1.2 -0.347,2.667 -0.34,4.421 0,0.142 0.276,0.586 0.346,0.715 v 10.863 c 0,0.742 0.615,1.317 1.353,1.317 0.742,0 1.354,-0.521 1.354,-1.36 h 0.356 c 0,0.84 0.687,1.36 1.429,1.36 0.74,0 1.429,-0.571 1.429,-1.312 L 11.743,19.85 c 0.303,-0.498 0.303,-1.082 0.304,-1.706 V 13.16 l 1.459,1.81 c 0.233,0.283 0.579,0.46 0.943,0.487 0.034,0.005 0.062,0.007 0.097,0.007 0.327,0 0.642,-0.111 0.887,-0.332 l 1.181,-1.039 0.85,-0.009 -10e-4,8.311 h -1.066 v 1.065 h 1.066 v 8.172 l 12.8,0.002 10e-4,-8.172 h 1.066 v -1.066 h -1.066 l 0.001,-8.314 0,0 1.065,-0.002 0.015,-1.067 -1.054,-0.002 0,0 -0.011,-9.102 h -0.008 l 1.073,-0.01 z m -5.338,22.978 h -4.285 v -2.18 h 4.285 v 2.18 z m -4.284,-8.781 v -2.107 h 4.285 v 2.107 H 21.723 z M 26.007,8.402 H 21.722 V 6.225 h 4.285 v 2.177 z"
             id="path3840"
             style="fill:#aeaeae;fill-opacity:0.44343901"
             inkscape:connector-curvature="0" />
        </g>
      </g>
      <g
         id="g3842"
         style="fill:#aeaeae;fill-opacity:0.44343901" />
      <g
         id="g3844"
         style="fill:#aeaeae;fill-opacity:0.44343901" />
      <g
         id="g3846"
         style="fill:#aeaeae;fill-opacity:0.44343901" />
      <g
         id="g3848"
         style="fill:#aeaeae;fill-opacity:0.44343901" />
      <g
         id="g3850"
         style="fill:#aeaeae;fill-opacity:0.44343901" />
      <g
         id="g3852"
         style="fill:#aeaeae;fill-opacity:0.44343901" />
      <g
         id="g3854"
         style="fill:#aeaeae;fill-opacity:0.44343901" />
      <g
         id="g3856"
         style="fill:#aeaeae;fill-opacity:0.44343901" />
      <g
         id="g3858"
         style="fill:#aeaeae;fill-opacity:0.44343901" />
      <g
         id="g3860"
         style="fill:#aeaeae;fill-opacity:0.44343901" />
      <g
         id="g3862"
         style="fill:#aeaeae;fill-opacity:0.44343901" />
      <g
         id="g3864"
         style="fill:#aeaeae;fill-opacity:0.44343901" />
      <g
         id="g3866"
         style="fill:#aeaeae;fill-opacity:0.44343901" />
      <g
         id="g3868"
         style="fill:#aeaeae;fill-opacity:0.44343901" />
      <g
         id="g3870"
         style="fill:#aeaeae;fill-opacity:0.44343901" />
    </g>
    <g
       transform="translate(108.01637,1007.7025)"
       id="g3949"
       style="fill:#aeaeae;fill-opacity:0.44343901">
      <g
         id="g3901"
         style="fill:#aeaeae;fill-opacity:0.44343901">
        <g
           id="g3903"
           style="fill:#aeaeae;fill-opacity:0.44343901">
          <path
             d="m 22.016,14.929 -0.938,-0.53 c -0.644,0.268 -1.373,0.475 -2.209,0.593 -0.515,0.572 -1.362,0.94 -2.345,0.94 -1.164,0 -2.145,-0.514 -2.597,-1.27 -0.661,-0.167 -1.291,-0.419 -1.874,-0.74 l -1.699,1.07 C 7.574,16.9 3.748,21.437 2.784,31.836 h 5.52 c 0.143,-1.744 0.409,-3.271 0.956,-4.57 v 4.57 h 13.454 v -5.062 c 0.383,1.429 0.672,3.108 0.832,5.062 h 5.508 C 28.172,21.064 24.842,16.873 22.016,14.929 z m -5.71,13.916 c -2.521,0 -4.574,-2.051 -4.574,-4.573 0,-2.521 2.053,-4.574 4.574,-4.574 2.521,0 4.573,2.054 4.573,4.574 0,2.522 -2.053,4.573 -4.573,4.573 z"
             id="path3905"
             style="fill:#aeaeae;fill-opacity:0.44343901"
             inkscape:connector-curvature="0" />
          <path
             d="m 16.306,20.314 c -2.182,0 -3.958,1.774 -3.958,3.957 0,2.183 1.774,3.957 3.958,3.957 2.182,0 3.958,-1.772 3.958,-3.957 0,-2.181 -1.776,-3.957 -3.958,-3.957 z m 1.78,6.479 -0.502,0.262 c -0.088,0.047 -0.207,0.062 -0.322,0.041 -1.658,-0.182 -2.489,-2.208 -2.511,-2.246 -0.543,-1.06 -0.568,-2.197 -0.141,-2.914 0.053,-0.104 0.135,-0.197 0.221,-0.242 l 0.506,-0.252 c 0.194,-0.1 0.433,-0.021 0.532,0.176 l 0.269,1.049 c 0.049,0.244 -0.002,0.445 -0.236,0.564 l -0.237,0.115 c -0.13,0.066 -0.161,0.047 -0.25,0.039 -0.231,-0.01 -0.289,0.151 -0.27,0.266 0.051,0.285 0.136,0.568 0.276,0.844 0.003,0.006 0.423,0.81 0.756,1.168 0.08,0.083 0.247,0.127 0.374,-0.066 0.048,-0.076 0.048,-0.111 0.179,-0.179 l 0.231,-0.124 c 0.232,-0.119 0.426,-0.047 0.596,0.134 l 0.695,0.832 c 0.102,0.193 0.027,0.431 -0.166,0.533 z"
             id="path3907"
             style="fill:#aeaeae;fill-opacity:0.44343901"
             inkscape:connector-curvature="0" />
          <path
             d="m 13.688,13.362 c 0.204,-1.085 1.375,-1.894 2.835,-1.894 1.028,0 1.909,0.403 2.414,1.021 0.638,-0.127 1.179,-0.331 1.64,-0.58 C 21.934,10.654 22.784,8.86 22.784,6.866 22.783,3.072 19.711,0 15.919,0 12.123,0 9.051,3.073 9.051,6.866 c -10e-4,3.012 1.937,5.571 4.637,6.496 z"
             id="path3909"
             style="fill:#aeaeae;fill-opacity:0.44343901"
             inkscape:connector-curvature="0" />
          <path
             d="m 23.397,7.254 c -0.062,0.893 -0.317,1.821 -0.772,2.893 0.184,0 0.359,-0.006 0.528,-0.015 -0.653,1.27 -1.947,2.677 -4.503,3.043 -0.303,-0.636 -1.143,-1.092 -2.128,-1.092 -1.244,0 -2.251,0.725 -2.251,1.616 0,0.892 1.007,1.615 2.251,1.615 0.88,0 1.64,-0.364 2.011,-0.891 3.79,-0.442 5.38,-2.792 6.043,-4.532 0.288,-0.088 0.539,-0.2 0.756,-0.328 1.072,-0.627 1.354,-1.677 1.354,-2.699 0,-1.537 -0.53,-3.162 -3.469,-3.387 -0.23,-0.017 -0.472,-0.027 -0.73,-0.027 0.693,1.395 0.994,2.569 0.91,3.804 z"
             id="path3911"
             style="fill:#aeaeae;fill-opacity:0.44343901"
             inkscape:connector-curvature="0" />
        </g>
      </g>
      <g
         id="g3913"
         style="fill:#aeaeae;fill-opacity:0.44343901" />
      <g
         id="g3915"
         style="fill:#aeaeae;fill-opacity:0.44343901" />
      <g
         id="g3917"
         style="fill:#aeaeae;fill-opacity:0.44343901" />
      <g
         id="g3919"
         style="fill:#aeaeae;fill-opacity:0.44343901" />
      <g
         id="g3921"
         style="fill:#aeaeae;fill-opacity:0.44343901" />
      <g
         id="g3923"
         style="fill:#aeaeae;fill-opacity:0.44343901" />
      <g
         id="g3925"
         style="fill:#aeaeae;fill-opacity:0.44343901" />
      <g
         id="g3927"
         style="fill:#aeaeae;fill-opacity:0.44343901" />
      <g
         id="g3929"
         style="fill:#aeaeae;fill-opacity:0.44343901" />
      <g
         id="g3931"
         style="fill:#aeaeae;fill-opacity:0.44343901" />
      <g
         id="g3933"
         style="fill:#aeaeae;fill-opacity:0.44343901" />
      <g
         id="g3935"
         style="fill:#aeaeae;fill-opacity:0.44343901" />
      <g
         id="g3937"
         style="fill:#aeaeae;fill-opacity:0.44343901" />
      <g
         id="g3939"
         style="fill:#aeaeae;fill-opacity:0.44343901" />
      <g
         id="g3941"
         style="fill:#aeaeae;fill-opacity:0.44343901" />
    </g>
    <g
       transform="matrix(0.06465482,0,0,0.06465482,210.86601,973.92766)"
       id="g4017"
       style="fill:#aeaeae;fill-opacity:0.44343901">
      <g
         id="g3973"
         style="fill:#aeaeae;fill-opacity:0.44343901">
        <g
           id="g3975"
           style="fill:#aeaeae;fill-opacity:0.44343901">
          <path
             d="m 533.373,113.003 c 0,0 -98.304,93.423 -205.466,301.049 0,0 -34.403,62.431 -87.109,62.058 0,0 -51.961,-0.012 -71.741,-48.087 0,0 -173.168,46.123 -168.983,100.537 0,0 0.97,35.239 59.575,35.239 h 206.79 c 0,0 63.626,1.415 86.23,-29.559 0,0 44.372,-57.056 91.263,-134.915 0,0 19.102,-31.877 41.706,-31.877 0,0 26.643,-1.739 26.643,37.612 v 158.746 h 36.605 v -161.26 c 0,0 63.059,-90.415 63.059,-156.561 0.002,0.006 5.004,-118.614 -78.572,-132.982 z"
             id="path3977"
             style="fill:#aeaeae;fill-opacity:0.44343901"
             inkscape:connector-curvature="0" />
          <path
             d="m 163.426,324.027 99.719,-9.066 c 5.692,-0.519 10.195,-5.021 10.713,-10.713 l 9.066,-99.719 c 0.317,-3.496 -0.933,-6.955 -3.41,-9.438 L 136.082,51.659 c -4.624,-4.618 -12.116,-4.618 -16.735,0 L 10.556,160.444 c -4.624,4.618 -4.624,12.11 0,16.735 l 143.432,143.432 c 2.483,2.483 5.936,3.734 9.438,3.416 z m 42.304,-77.194 c 9.53,-9.53 24.983,-9.53 34.513,0 9.53,9.53 9.53,24.983 0,34.513 -9.53,9.53 -24.983,9.53 -34.513,0 -9.53,-9.53 -9.53,-24.984 0,-34.513 z"
             id="path3979"
             style="fill:#aeaeae;fill-opacity:0.44343901"
             inkscape:connector-curvature="0" />
        </g>
      </g>
      <g
         id="g3981"
         style="fill:#aeaeae;fill-opacity:0.44343901" />
      <g
         id="g3983"
         style="fill:#aeaeae;fill-opacity:0.44343901" />
      <g
         id="g3985"
         style="fill:#aeaeae;fill-opacity:0.44343901" />
      <g
         id="g3987"
         style="fill:#aeaeae;fill-opacity:0.44343901" />
      <g
         id="g3989"
         style="fill:#aeaeae;fill-opacity:0.44343901" />
      <g
         id="g3991"
         style="fill:#aeaeae;fill-opacity:0.44343901" />
      <g
         id="g3993"
         style="fill:#aeaeae;fill-opacity:0.44343901" />
      <g
         id="g3995"
         style="fill:#aeaeae;fill-opacity:0.44343901" />
      <g
         id="g3997"
         style="fill:#aeaeae;fill-opacity:0.44343901" />
      <g
         id="g3999"
         style="fill:#aeaeae;fill-opacity:0.44343901" />
      <g
         id="g4001"
         style="fill:#aeaeae;fill-opacity:0.44343901" />
      <g
         id="g4003"
         style="fill:#aeaeae;fill-opacity:0.44343901" />
      <g
         id="g4005"
         style="fill:#aeaeae;fill-opacity:0.44343901" />
      <g
         id="g4007"
         style="fill:#aeaeae;fill-opacity:0.44343901" />
      <g
         id="g4009"
         style="fill:#aeaeae;fill-opacity:0.44343901" />
    </g>
    <g
       transform="matrix(0.08495138,0,0,0.08495138,515.29464,972.00955)"
       id="g4081"
       style="fill:#aeaeae;fill-opacity:0.44343901">
      <g
         id="g4039"
         style="fill:#aeaeae;fill-opacity:0.44343901">
        <path
           d="M 342.749,465.621 H 467.384 V 362.12 L 442.998,103.9 h -75.864 l -24.386,258.22 v -91.585 -58.258 l -113.8,57.567 v -57.567 l -113.8,57.567 V 212.277 L 0,270.535 v 195.086 h 296.693 46.056 z m -237.76,-53.51 c 0,13.469 -10.917,24.386 -24.386,24.386 H 53.51 c -13.469,0 -24.386,-10.917 -24.386,-24.386 v -27.093 c 0,-13.469 10.917,-24.386 24.386,-24.386 h 27.093 c 13.469,0 24.386,10.917 24.386,24.386 v 27.093 z m 105.671,0 c 0,13.469 -10.917,24.386 -24.386,24.386 h -27.093 c -13.469,0 -24.386,-10.917 -24.386,-24.386 v -27.093 c 0,-13.469 10.917,-24.386 24.386,-24.386 h 27.093 c 13.469,0 24.386,10.917 24.386,24.386 v 27.093 z m 54.193,24.385 c -13.469,0 -24.386,-10.917 -24.386,-24.386 v -27.093 c 0,-13.469 10.917,-24.386 24.386,-24.386 h 27.093 c 13.469,0 24.386,10.917 24.386,24.386 v 27.093 c 0,13.469 -10.917,24.386 -24.386,24.386 h -27.093 z"
           id="path4041"
           style="fill:#aeaeae;fill-opacity:0.44343901"
           inkscape:connector-curvature="0" />
        <path
           d="m 227.6,55.803 c 68.751,8.129 136.828,-11.177 139.877,30.482 h 69.093 c 0,0 -11.518,-109.736 -139.876,-70.109 C 168.327,55.803 182.552,1.764 182.552,1.764 c 0,0 -23.712,45.91 45.048,54.039 z"
           id="path4043"
           style="fill:#aeaeae;fill-opacity:0.44343901"
           inkscape:connector-curvature="0" />
      </g>
      <g
         id="g4045"
         style="fill:#aeaeae;fill-opacity:0.44343901" />
      <g
         id="g4047"
         style="fill:#aeaeae;fill-opacity:0.44343901" />
      <g
         id="g4049"
         style="fill:#aeaeae;fill-opacity:0.44343901" />
      <g
         id="g4051"
         style="fill:#aeaeae;fill-opacity:0.44343901" />
      <g
         id="g4053"
         style="fill:#aeaeae;fill-opacity:0.44343901" />
      <g
         id="g4055"
         style="fill:#aeaeae;fill-opacity:0.44343901" />
      <g
         id="g4057"
         style="fill:#aeaeae;fill-opacity:0.44343901" />
      <g
         id="g4059"
         style="fill:#aeaeae;fill-opacity:0.44343901" />
      <g
         id="g4061"
         style="fill:#aeaeae;fill-opacity:0.44343901" />
      <g
         id="g4063"
         style="fill:#aeaeae;fill-opacity:0.44343901" />
      <g
         id="g4065"
         style="fill:#aeaeae;fill-opacity:0.44343901" />
      <g
         id="g4067"
         style="fill:#aeaeae;fill-opacity:0.44343901" />
      <g
         id="g4069"
         style="fill:#aeaeae;fill-opacity:0.44343901" />
      <g
         id="g4071"
         style="fill:#aeaeae;fill-opacity:0.44343901" />
      <g
         id="g4073"
         style="fill:#aeaeae;fill-opacity:0.44343901" />
    </g>
    <g
       transform="matrix(0.09432835,0,0,0.09432835,480.3475,879.47775)"
       id="g4156"
       style="fill:#aeaeae;fill-opacity:0.44343901">
      <g
         id="g4102"
         style="fill:#aeaeae;fill-opacity:0.44343901">
        <g
           id="g4104"
           style="fill:#aeaeae;fill-opacity:0.44343901">
          <path
             d="m 210.571,157.605 c 6.141,2.332 12.695,3.519 19.261,3.519 15.423,0 30.349,-6.722 40.583,-18.257 C 280.748,131.221 285.6,115.411 283.635,99.97 281.707,84.825 273.233,70.96 260.691,62.269 247.845,53.365 231.407,50.455 216.27,54.35 c -14.697,3.782 -27.373,13.846 -34.45,27.261 -7.301,13.844 -8.211,30.61 -2.465,45.169 5.555,14.085 17.059,25.447 31.216,30.825 z"
             id="path4106"
             style="fill:#aeaeae;fill-opacity:0.44343901" />
          <path
             d="m 265.85,440.904 c 0.008,-0.005 0.01,-0.011 0.01,-0.017 -0.006,0.01 -0.016,0.021 -0.022,0.03 -0.015,0.021 -0.027,0.043 -0.041,0.064 0.014,-0.025 0.036,-0.052 0.053,-0.077 z"
             id="path4108"
             style="fill:#aeaeae;fill-opacity:0.44343901" />
          <path
             d="m 364.256,52.666 c -0.3,-0.208 -0.598,-0.415 -0.871,-0.605 0.248,0.172 0.528,0.366 0.871,0.605 z"
             id="path4110"
             style="fill:#aeaeae;fill-opacity:0.44343901" />
          <path
             d="m 363.039,51.819 c -0.419,-0.291 -0.721,-0.5 -0.791,-0.55 0.07,0.05 0.321,0.224 0.791,0.55 z"
             id="path4112"
             style="fill:#aeaeae;fill-opacity:0.44343901" />
          <path
             d="m 362.248,51.27 c -0.029,-0.02 -0.023,-0.016 0,0 l 0,0 z"
             id="path4114"
             style="fill:#aeaeae;fill-opacity:0.44343901" />
          <path
             d="m 386.334,72.807 7.967,-9.244 c 2.139,-2.482 6.307,-3.02 9.307,-1.198 l 83.064,50.349 15.005,-26.416 c 1.448,-2.549 0.13,-5.624 -2.942,-6.869 L 408.354,42.85 c -3.073,-1.244 -6.737,-0.187 -8.188,2.363 l -5.392,9.494 -4.473,-1.81 c -8.572,-3.469 -18.094,-3.302 -26.047,-0.232 -0.004,10e-4 -0.006,0.002 -0.008,0.003 -7.309,-4.967 -17.267,-3.141 -22.317,4.131 0,0 -50.374,76.801 -67.649,97.369 -12.889,15.347 -25.169,19.631 -43.674,17.073 -9.139,-1.263 -122.367,-29.414 -122.367,-29.414 -6.203,-1.499 -12.636,0.963 -16.451,5.777 -11.094,-1.42 -22.438,3.982 -28.029,14.41 l -2.137,3.979 -10.188,-5.466 c -2.737,-1.467 -6.143,-0.44 -7.611,2.295 L 0.668,243.258 c -1.465,2.735 -0.438,6.142 2.297,7.61 l 28.348,15.208 28.754,-88.63 c 1.037,-3.204 4.479,-4.957 7.682,-3.918 l 11.934,3.872 0.475,-1.46 -8.631,-4.63 2.137,-3.979 c 3.006,-5.604 8.8,-8.749 14.758,-8.688 0.222,2.907 1.219,5.718 2.875,8.111 -2.765,3.053 -4.947,6.718 -6.298,10.883 l -1.513,4.662 -11.935,-3.872 c -3.202,-1.039 -6.644,0.714 -7.681,3.918 l -30.567,94.211 c -1.041,3.204 0.715,6.643 3.918,7.682 l 81.201,26.347 c 3.203,1.039 6.643,-0.716 7.684,-3.918 l 30.566,-94.211 c 1.037,-3.204 -0.717,-6.644 -3.92,-7.683 l -11.935,-3.873 1.514,-4.66 c 0.763,-2.349 1.212,-4.724 1.386,-7.083 l 77.992,28.706 c 0.699,2.115 6.722,18.409 10.138,35.461 2.174,10.85 3.097,21.903 3.724,32.939 0.439,7.738 0.32,15.48 0.232,23.227 -0.092,7.981 1.217,15.791 4.379,23.15 -0.271,10.081 -0.791,20.16 -1.647,30.209 -0.938,10.995 -2.662,21.924 -4.46,32.819 -2.271,13.767 -5.828,19.059 -6.066,19.418 -4.408,1.667 -9.742,1.096 -14.307,0.497 -5.449,-0.716 -10.82,-2.003 -16.093,-3.547 -4.634,-1.357 -9.203,-2.929 -13.708,-4.665 -3.58,-1.381 -7.066,-2.958 -10.596,-4.456 -1.643,-0.698 -3.273,-1.468 -5.08,-1.86 -1.855,-0.403 -3.769,-0.533 -5.662,-0.388 -3.749,0.287 -7.391,1.656 -10.395,3.917 -6.275,4.722 -9.178,12.974 -7.262,20.583 1.356,5.385 4.985,10.021 9.892,12.624 15.744,8.608 32.581,15.997 50.175,19.813 9.526,2.067 19.408,3.084 29.107,1.689 10.078,-1.448 19.659,-5.674 26.976,-12.845 1.736,-1.702 3.338,-3.573 4.781,-5.531 0.789,-1.297 1.773,-2.496 2.598,-3.771 1.43,-2.206 2.746,-4.48 3.965,-6.809 2.438,-4.656 4.523,-9.497 6.377,-14.413 3.724,-9.868 6.604,-20.048 9.076,-30.294 1.621,-6.728 3.066,-13.496 4.378,-20.291 2.739,-0.12 5.451,-0.438 8.142,-0.965 4.866,9.944 9.375,20.071 13.201,30.465 -10.245,3.997 -15.259,16.059 -10.9,26.155 2.947,6.836 6.528,13.367 11.558,18.92 5.468,6.036 12.39,10.722 20.289,12.896 4.323,1.19 8.859,1.593 13.296,0.907 8.91,-1.396 16.368,-8.333 17.957,-17.717 3.43,-20.206 0.155,-40.862 -4.486,-60.615 -2.519,-10.701 -5.582,-21.275 -9,-31.724 -2.236,-6.841 -4.558,-13.688 -7.242,-20.369 -0.531,-1.325 -1.041,-2.662 -1.608,-3.974 0.663,-4.44 0.72,-8.896 0.352,-13.365 -0.369,-4.467 -0.675,-8.949 -1.136,-13.408 -1.09,-10.552 -2.562,-21.09 -4.548,-31.511 -4.137,-21.704 -9.954,-43.15 -18.507,-63.556 -2.322,-5.542 -4.818,-11.007 -7.601,-16.335 l 32.282,-60.463 3.634,2.2 -7.965,9.246 c -2.139,2.481 -1.44,5.968 1.563,7.789 l 88.295,53.52 c 3.002,1.818 7.171,1.281 9.309,-1.2 l 54.207,-62.904 c 2.14,-2.481 1.441,-5.969 -1.563,-7.787 l -88.295,-53.52 c -3.002,-1.821 -7.17,-1.283 -9.31,1.198 l -7.965,9.245 -4.371,-2.648 c -3.545,-2.15 -7.428,-3.626 -11.424,-4.47 1.119,-3.181 1.189,-6.583 0.297,-9.739 4.488,-1.439 9.668,-1.391 14.373,0.514 l 4.474,1.809 -4.568,8.042 1.363,0.832 z m -255.603,119.667 -1.514,4.662 -34.131,-11.075 1.51,-4.662 c 1.002,-3.086 2.775,-5.704 5.025,-7.737 l 29.814,10.973 c 0.337,2.558 0.143,5.224 -0.704,7.839 z m 243.34,-107.667 4.367,2.65 -22.782,26.441 -4.369,-2.648 c -0.509,-0.308 -0.99,-0.633 -1.451,-0.972 l 15.213,-28.493 c 3.151,0.352 6.257,1.346 9.022,3.022 z"
             id="path4116"
             style="fill:#aeaeae;fill-opacity:0.44343901" />
          <path
             d="m 363.385,52.06 c -0.125,-0.088 -0.242,-0.169 -0.347,-0.241 0.109,0.077 0.226,0.157 0.347,0.241 z"
             id="path4118"
             style="fill:#aeaeae;fill-opacity:0.44343901" />
        </g>
      </g>
      <g
         id="g4120"
         style="fill:#aeaeae;fill-opacity:0.44343901" />
      <g
         id="g4122"
         style="fill:#aeaeae;fill-opacity:0.44343901" />
      <g
         id="g4124"
         style="fill:#aeaeae;fill-opacity:0.44343901" />
      <g
         id="g4126"
         style="fill:#aeaeae;fill-opacity:0.44343901" />
      <g
         id="g4128"
         style="fill:#aeaeae;fill-opacity:0.44343901" />
      <g
         id="g4130"
         style="fill:#aeaeae;fill-opacity:0.44343901" />
      <g
         id="g4132"
         style="fill:#aeaeae;fill-opacity:0.44343901" />
      <g
         id="g4134"
         style="fill:#aeaeae;fill-opacity:0.44343901" />
      <g
         id="g4136"
         style="fill:#aeaeae;fill-opacity:0.44343901" />
      <g
         id="g4138"
         style="fill:#aeaeae;fill-opacity:0.44343901" />
      <g
         id="g4140"
         style="fill:#aeaeae;fill-opacity:0.44343901" />
      <g
         id="g4142"
         style="fill:#aeaeae;fill-opacity:0.44343901" />
      <g
         id="g4144"
         style="fill:#aeaeae;fill-opacity:0.44343901" />
      <g
         id="g4146"
         style="fill:#aeaeae;fill-opacity:0.44343901" />
      <g
         id="g4148"
         style="fill:#aeaeae;fill-opacity:0.44343901" />
    </g>
    <g
       transform="matrix(0.08701773,0,0,0.08701773,342.97971,924.45046)"
       id="g4224"
       style="fill:#aeaeae;fill-opacity:0.44343901">
      <g
         id="XMLID_158_"
         style="fill:#aeaeae;fill-opacity:0.44343901">
        <path
           d="m 387.998,105.937 h -17.765 c -22.969,0 -41.605,18.629 -41.605,41.605 v 3.052 l 52.523,-37.304 c 0.048,-0.034 0.109,-0.04 0.159,-0.074 -0.05,0.04 -0.099,0.049 -0.142,0.088 l -69.363,63.773 -71.121,30.29 c -10.505,4.464 -15.397,16.605 -10.93,27.108 3.359,7.862 10.997,12.578 19.036,12.578 2.7,0 5.444,-0.534 8.073,-1.664 l 74.398,-31.676 c 2.18,-0.921 4.164,-2.205 5.896,-3.804 l 71.973,-66.187 c 0.061,-0.055 0.08,-0.138 0.142,-0.193 -0.061,0.064 -0.08,0.144 -0.13,0.209 L 345.55,219.04 c -1.841,2.179 -4.081,3.803 -6.539,4.859 l -2.891,1.228 -7.492,3.187 0.031,242.372 c 0,13.698 11.112,24.8 24.8,24.8 5.653,0 10.819,-1.971 14.98,-5.167 -3.18,-5.861 -5.164,-12.48 -5.164,-19.633 V 322.901 h 16.536 v 147.784 c 0,13.698 11.107,24.8 24.8,24.8 13.688,0 24.793,-11.102 24.793,-24.8 0,0 0.196,-208.497 0.196,-323.144 10e-4,-22.975 -18.629,-41.604 -41.602,-41.604 z"
           id="XMLID_162_"
           style="fill:#aeaeae;fill-opacity:0.44343901"
           inkscape:connector-curvature="0" />
        <path
           d="m 379.13,96.635 c 26.704,0 48.323,-21.625 48.323,-48.313 C 427.454,21.625 405.835,0 379.13,0 c -26.684,0 -48.321,21.625 -48.321,48.322 0,26.688 21.638,48.313 48.321,48.313 z"
           id="XMLID_161_"
           style="fill:#aeaeae;fill-opacity:0.44343901"
           inkscape:connector-curvature="0" />
        <path
           d="m 116.355,96.635 c 26.685,0 48.323,-21.625 48.323,-48.313 C 164.678,21.625 143.04,0 116.355,0 89.653,0 68.034,21.625 68.034,48.322 c 0,26.688 21.619,48.313 48.321,48.313 z"
           id="XMLID_160_"
           style="fill:#aeaeae;fill-opacity:0.44343901"
           inkscape:connector-curvature="0" />
        <path
           d="m 177.092,173.825 -55.15,-53.198 44.916,34.664 v -7.749 c 0,-22.976 -18.636,-41.605 -41.605,-41.605 H 107.49 c -22.977,0 -41.605,18.629 -41.605,41.605 0,118.313 0.196,323.144 0.196,323.144 0,13.698 11.107,24.8 24.793,24.8 13.693,0 24.8,-11.102 24.8,-24.8 V 322.901 h 16.536 v 147.784 c 0,7.153 -1.99,13.772 -5.17,19.633 4.169,3.196 9.332,5.167 14.987,5.167 13.686,0 24.8,-11.102 24.8,-24.8 l 0.031,-242.66 -16.504,-11.737 -5.275,-3.748 c -0.307,-0.224 -0.602,-0.5 -0.841,-0.783 l -51.005,-61.376 57.089,55.063 c 1.295,1.234 2.733,2.309 4.299,3.175 l 68.13,37.954 c -1.714,-2.194 -3.243,-4.559 -4.391,-7.238 -5.734,-13.475 -1.743,-28.505 8.682,-37.675 l -49.95,-27.835 z"
           id="XMLID_159_"
           style="fill:#aeaeae;fill-opacity:0.44343901"
           inkscape:connector-curvature="0" />
      </g>
      <g
         id="g4188"
         style="fill:#aeaeae;fill-opacity:0.44343901" />
      <g
         id="g4190"
         style="fill:#aeaeae;fill-opacity:0.44343901" />
      <g
         id="g4192"
         style="fill:#aeaeae;fill-opacity:0.44343901" />
      <g
         id="g4194"
         style="fill:#aeaeae;fill-opacity:0.44343901" />
      <g
         id="g4196"
         style="fill:#aeaeae;fill-opacity:0.44343901" />
      <g
         id="g4198"
         style="fill:#aeaeae;fill-opacity:0.44343901" />
      <g
         id="g4200"
         style="fill:#aeaeae;fill-opacity:0.44343901" />
      <g
         id="g4202"
         style="fill:#aeaeae;fill-opacity:0.44343901" />
      <g
         id="g4204"
         style="fill:#aeaeae;fill-opacity:0.44343901" />
      <g
         id="g4206"
         style="fill:#aeaeae;fill-opacity:0.44343901" />
      <g
         id="g4208"
         style="fill:#aeaeae;fill-opacity:0.44343901" />
      <g
         id="g4210"
         style="fill:#aeaeae;fill-opacity:0.44343901" />
      <g
         id="g4212"
         style="fill:#aeaeae;fill-opacity:0.44343901" />
      <g
         id="g4214"
         style="fill:#aeaeae;fill-opacity:0.44343901" />
      <g
         id="g4216"
         style="fill:#aeaeae;fill-opacity:0.44343901" />
    </g>
    <g
       transform="matrix(0.15658193,0,0,0.15658193,193.03753,904.69526)"
       id="g4293"
       style="fill:#aeaeae;fill-opacity:0.44343901">
      <g
         id="g4247"
         style="fill:#aeaeae;fill-opacity:0.44343901">
        <g
           id="g4249"
           style="fill:#aeaeae;fill-opacity:0.44343901">
          <path
             d="m 98.415,115.826 c -3.27,-0.355 -6.276,-2.008 -8.378,-4.646 -2.101,-2.633 -3.053,-5.921 -2.683,-9.268 L 88.807,88.85 H 88.765 V 73.347 h 1.761 l 0.797,-7.16 H 84.675 V 54.295 H 67.817 v 11.891 h -8.422 v 2.342 h -9.376 v 91.964 H 45.934 V 50.619 H 36.197 V 38.747 H 26.564 V 18.479 H 24.157 V 38.747 H 14.523 V 50.619 H 4.779 v 114.696 h 41.154 4.085 52.468 v -49.719 c -1.313,0.274 -2.675,0.4 -4.071,0.23 z M 16.932,41.149 h 16.854 v 9.464 H 16.932 v -9.464 z m 1.562,101.44 H 9.591 V 127.08 h 8.903 v 15.509 z m 0,-17.915 H 9.591 v -15.506 h 8.903 v 15.506 z m 0,-17.916 H 9.591 V 91.25 h 8.903 v 15.508 z m 0,-35.822 H 9.591 V 55.434 h 4.925 3.978 v 15.502 z m 11.314,89.557 h -8.902 v -15.502 h 8.902 v 15.502 z m 0,-17.904 H 20.906 V 127.08 h 8.902 v 15.509 z m 0,-53.738 H 20.906 V 73.347 h 8.902 v 15.504 z m 0,-17.915 H 20.906 V 55.434 h 8.902 v 15.502 z m 11.308,71.653 H 32.218 V 127.08 h 8.903 v 15.509 h -0.005 z m 0,-17.915 h -8.898 v -15.506 h 8.903 v 15.506 h -0.005 z m 0,-17.916 H 32.218 V 91.25 h 8.903 v 15.508 h -0.005 z m 0,-17.907 H 32.218 V 73.347 h 8.903 V 88.851 H 41.116 z M 70.23,56.704 h 12.042 v 8.284 H 70.23 v -8.284 z m -6.494,85.885 H 54.839 V 127.08 h 8.897 v 15.509 z m 0,-35.831 H 54.839 V 91.25 h 8.897 v 15.508 z m 11.314,53.735 h -8.905 v -15.502 h 8.905 v 15.502 z m 0,-35.819 h -8.905 v -15.506 h 8.905 v 15.506 z m 0,-35.823 H 66.145 V 73.347 h 8.905 v 15.504 z m 11.308,71.642 h -8.906 v -15.502 h 8.906 v 15.502 z m 0,-17.904 H 77.452 V 127.08 h 8.906 v 15.509 z m 0,-17.915 h -8.906 v -15.506 h 8.906 v 15.506 z m 0,-17.916 H 77.452 V 91.25 h 8.906 v 15.508 z m 11.313,35.831 H 88.766 V 127.08 h 8.905 v 15.509 z"
             id="path4251"
             style="fill:#aeaeae;fill-opacity:0.44343901"
             inkscape:connector-curvature="0" />
          <path
             d="m 133.502,38.837 c 9.772,0 17.707,-11.343 17.707,-21.127 0,-9.781 -7.935,-17.71 -17.707,-17.71 -9.782,0 -17.719,7.929 -17.719,17.71 0,9.784 7.937,21.127 17.719,21.127 z"
             id="path4253"
             style="fill:#aeaeae;fill-opacity:0.44343901"
             inkscape:connector-curvature="0" />
          <path
             d="m 176.205,113.61 h -5.023 v -4.739 c 1.961,-1.434 3.185,-3.759 2.9,-6.342 l -5.604,-50.43 c -0.038,-0.342 -0.219,-0.61 -0.307,-0.93 -0.123,-0.514 -0.24,-1.021 -0.481,-1.491 -0.179,-0.353 -0.443,-0.626 -0.678,-0.941 -0.317,-0.413 -0.603,-0.824 -1.008,-1.171 -0.317,-0.263 -0.688,-0.424 -1.045,-0.632 -0.355,-0.208 -0.656,-0.493 -1.056,-0.646 -0.635,-0.229 -14.731,-5.277 -27.688,-5.945 l -1.784,3.56 h -0.043 l 4.717,36.741 -5.604,9.787 -5.604,-9.787 4.717,-36.741 h -0.055 l -1.771,-3.56 c -12.957,0.662 -27.053,5.716 -27.684,5.945 -0.411,0.153 -0.713,0.443 -1.068,0.656 -0.35,0.208 -0.72,0.359 -1.027,0.622 -0.416,0.347 -0.71,0.774 -1.041,1.198 -0.219,0.304 -0.468,0.566 -0.65,0.903 -0.246,0.477 -0.354,0.998 -0.498,1.518 -0.075,0.315 -0.252,0.583 -0.295,0.908 l -5.601,50.431 c -0.428,3.852 2.338,7.31 6.186,7.737 0.265,0.032 0.521,0.043 0.783,0.043 3.525,0 6.555,-2.648 6.948,-6.227 l 5.107,-45.938 c 0.595,-0.175 1.246,-0.364 1.942,-0.566 v 47.806 l -5.57,69.32 c -0.374,4.628 3.073,8.68 7.703,9.05 0.229,0.022 0.449,0.027 0.679,0.027 4.333,0 8.011,-3.333 8.366,-7.731 l 5.039,-62.655 c 1.04,0.461 2.185,0.733 3.389,0.733 1.209,0 2.358,-0.272 3.386,-0.733 l 5.046,62.655 c 0.351,4.398 4.027,7.731 8.363,7.731 0.229,0 0.452,-0.005 0.682,-0.027 4.629,-0.37 8.073,-4.422 7.705,-9.05 l -5.576,-69.32 V 57.573 c 0.696,0.197 1.346,0.386 1.948,0.566 l 5.1,45.938 c 0.377,3.376 3.108,5.833 6.358,6.123 v 3.398 h -5.023 c -1.543,0 -2.802,1.263 -2.802,2.802 v 42.495 c 0,1.537 1.259,2.801 2.802,2.801 h 14.711 c 1.541,0 2.802,-1.264 2.802,-2.801 V 116.4 c 0.009,-1.531 -1.25,-2.79 -2.793,-2.79 z"
             id="path4255"
             style="fill:#aeaeae;fill-opacity:0.44343901"
             inkscape:connector-curvature="0" />
        </g>
      </g>
      <g
         id="g4257"
         style="fill:#aeaeae;fill-opacity:0.44343901" />
      <g
         id="g4259"
         style="fill:#aeaeae;fill-opacity:0.44343901" />
      <g
         id="g4261"
         style="fill:#aeaeae;fill-opacity:0.44343901" />
      <g
         id="g4263"
         style="fill:#aeaeae;fill-opacity:0.44343901" />
      <g
         id="g4265"
         style="fill:#aeaeae;fill-opacity:0.44343901" />
      <g
         id="g4267"
         style="fill:#aeaeae;fill-opacity:0.44343901" />
      <g
         id="g4269"
         style="fill:#aeaeae;fill-opacity:0.44343901" />
      <g
         id="g4271"
         style="fill:#aeaeae;fill-opacity:0.44343901" />
      <g
         id="g4273"
         style="fill:#aeaeae;fill-opacity:0.44343901" />
      <g
         id="g4275"
         style="fill:#aeaeae;fill-opacity:0.44343901" />
      <g
         id="g4277"
         style="fill:#aeaeae;fill-opacity:0.44343901" />
      <g
         id="g4279"
         style="fill:#aeaeae;fill-opacity:0.44343901" />
      <g
         id="g4281"
         style="fill:#aeaeae;fill-opacity:0.44343901" />
      <g
         id="g4283"
         style="fill:#aeaeae;fill-opacity:0.44343901" />
      <g
         id="g4285"
         style="fill:#aeaeae;fill-opacity:0.44343901" />
    </g>
    <g
       transform="translate(549.05713,923.50229)"
       id="g4364"
       style="fill:#aeaeae;fill-opacity:0.44343901">
      <g
         id="g4316"
         style="fill:#aeaeae;fill-opacity:0.44343901">
        <g
           id="g4318"
           style="fill:#aeaeae;fill-opacity:0.44343901">
          <circle
             cx="23.587"
             cy="4.0209999"
             r="3.881"
             id="circle4320"
             style="fill:#aeaeae;fill-opacity:0.44343901"
             d="M 27.468,4.0209999 C 27.468,6.164417 25.730417,7.902 23.587,7.902 c -2.143417,0 -3.881,-1.737583 -3.881,-3.8810001 0,-2.1434171 1.737583,-3.88100003 3.881,-3.88100003 2.143417,0 3.881,1.73758293 3.881,3.88100003 z"
             sodipodi:cx="23.587"
             sodipodi:cy="4.0209999"
             sodipodi:rx="3.881"
             sodipodi:ry="3.881" />
          <path
             d="m 15.613,24.533 v -0.959 c 0,-0.774 0.378,-1.523 0.998,-2.002 v -3.275 h -3.583 c -1.385,0 -2.498,-1.094 -2.498,-2.477 0,-0.227 0.102,-0.414 0.102,-0.623 V 14.31 h 0.417 c 0.46,-0.665 1.174,-0.997 1.979,-0.997 h 3.284 c 0.036,-0.166 0.133,-0.221 0.133,-0.353 V 4.07 c 0,-0.742 -0.685,-1.388 -1.426,-1.388 H 3.951 c -0.742,0 -1.293,0.646 -1.293,1.388 v 8.891 c 0,0.742 0.551,1.35 1.293,1.35 h 4.521 v 1.162 h -1.52 c -0.667,0 -1.208,0.498 -1.208,1.329 H 0.576 C 0.232,16.802 0,16.996 0,17.341 v 1.406 c 0,0.343 0.231,0.546 0.576,0.546 h 1.749 v 12.624 h 14.617 v -5.686 c 0.001,10e-4 -1.329,-0.28 -1.329,-1.698 z M 5.904,12.317 c -0.741,0 -1.419,-0.529 -1.419,-1.269 V 5.985 c 0,-0.742 0.678,-1.309 1.419,-1.309 h 7.198 c 0.742,0 1.35,0.567 1.35,1.309 v 5.063 c 0,0.74 -0.607,1.269 -1.35,1.269 H 5.904 z"
             id="path4322"
             style="fill:#aeaeae;fill-opacity:0.44343901"
             inkscape:connector-curvature="0" />
          <path
             d="m 26.173,8.547 h -5.136 c -3.147,0 -3.346,3.151 -3.346,3.151 0,0 -0.42,2.124 -0.77,2.368 -0.107,0.075 -0.233,0.129 -0.38,0.129 h -3.516 c -0.832,0 -1.506,0.662 -1.506,1.496 0,0.832 0.674,1.494 1.506,1.494 h 3.516 c 0.546,0 1.028,0.002 1.093,-0.014 l -0.032,3.669 h 1.997 v -8.118 c 0,-1.636 1.054,-3.51 2.706,-3.51 h 6.123 C 27.818,8.713 27.029,8.547 26.173,8.547 z"
             id="path4324"
             style="fill:#aeaeae;fill-opacity:0.44343901"
             inkscape:connector-curvature="0" />
          <path
             d="m 30.049,25.107 c 1.107,0 2.009,-0.899 2.009,-2.01 V 12.789 c 0,-1.241 -1.051,-2.299 -2.291,-2.299 h -6.958 c -1.24,0 -2.211,1.058 -2.211,2.299 v 9.162 h -2.242 c -0.863,0 -1.579,0.664 -1.579,1.525 v 0.566 c 0,0.587 0.476,1.062 1.063,1.062 h 4.752 v 1.328 h -0.761 c 0,0 -1.897,0.045 -1.897,1.809 v 2.531 c 0,0.57 0.426,1.035 1,1.035 0.573,0 1.021,-0.469 1.021,-1.041 l -0.016,-2.34 h 3.476 v 2.346 c 0,0.57 0.505,1.035 1.079,1.035 0.574,0 1.08,-0.465 1.08,-1.035 v -2.531 c 0,-1.916 -2.037,-1.809 -2.037,-1.809 h -0.789 v -1.328 h 5.301 v 0.003 z"
             id="path4326"
             style="fill:#aeaeae;fill-opacity:0.44343901"
             inkscape:connector-curvature="0" />
        </g>
      </g>
      <g
         id="g4328"
         style="fill:#aeaeae;fill-opacity:0.44343901" />
      <g
         id="g4330"
         style="fill:#aeaeae;fill-opacity:0.44343901" />
      <g
         id="g4332"
         style="fill:#aeaeae;fill-opacity:0.44343901" />
      <g
         id="g4334"
         style="fill:#aeaeae;fill-opacity:0.44343901" />
      <g
         id="g4336"
         style="fill:#aeaeae;fill-opacity:0.44343901" />
      <g
         id="g4338"
         style="fill:#aeaeae;fill-opacity:0.44343901" />
      <g
         id="g4340"
         style="fill:#aeaeae;fill-opacity:0.44343901" />
      <g
         id="g4342"
         style="fill:#aeaeae;fill-opacity:0.44343901" />
      <g
         id="g4344"
         style="fill:#aeaeae;fill-opacity:0.44343901" />
      <g
         id="g4346"
         style="fill:#aeaeae;fill-opacity:0.44343901" />
      <g
         id="g4348"
         style="fill:#aeaeae;fill-opacity:0.44343901" />
      <g
         id="g4350"
         style="fill:#aeaeae;fill-opacity:0.44343901" />
      <g
         id="g4352"
         style="fill:#aeaeae;fill-opacity:0.44343901" />
      <g
         id="g4354"
         style="fill:#aeaeae;fill-opacity:0.44343901" />
      <g
         id="g4356"
         style="fill:#aeaeae;fill-opacity:0.44343901" />
    </g>
    <g
       transform="matrix(0.09325833,0,0,0.09325833,32.183745,962.36895)"
       id="g4438"
       style="fill:#aeaeae;fill-opacity:0.44343901">
      <g
         id="g4388"
         style="fill:#aeaeae;fill-opacity:0.44343901">
        <g
           id="g4390"
           style="fill:#aeaeae;fill-opacity:0.44343901">
          <path
             d="m 81.461,132.603 c 0,23.68 18.727,42.869 41.838,42.869 23.111,0 41.848,-19.189 41.848,-42.869 0,-17.95 -10.782,-33.304 -26.043,-39.677 l 2.616,-3.542 c 0,0 10.1,-14.657 10.883,-15.736 1.789,-2.463 4.19,-13.776 -12.56,1.416 -16.736,15.194 -45.517,-12.88 -46.637,-9.183 -1.146,3.719 16.508,23.503 16.508,23.503 l 1.835,2.05 c -17.495,5.145 -30.288,21.599 -30.288,41.169 z m 40.161,0.773 c -7.493,-2.135 -12.621,-5.089 -12.621,-10.842 0,-5.199 4.371,-9.271 11.861,-10.521 v -5.625 h 6.877 v 5.199 c 4.688,0.177 7.858,1.004 10.168,1.949 l -2.045,6.697 c -1.808,-0.653 -5.042,-2.019 -10.097,-2.019 -4.558,0 -6.021,1.649 -6.021,3.309 0,1.941 2.444,3.199 8.407,5.093 8.331,2.474 11.712,5.728 11.712,11.058 0,5.259 -4.425,9.759 -12.479,10.956 v 6.023 h -6.868 v -5.626 c -4.708,-0.163 -9.267,-1.231 -11.938,-2.537 l 2.114,-6.934 c 2.955,1.364 7.072,2.602 11.646,2.602 3.983,0 6.727,-1.296 6.727,-3.66 -0.005,-2.219 -2.254,-3.642 -7.443,-5.122 z"
             id="path4392"
             style="fill:#aeaeae;fill-opacity:0.44343901"
             inkscape:connector-curvature="0" />
          <path
             d="m 368.74,83.643 c -25.315,0 -45.907,20.6 -45.907,45.91 -0.001,25.313 20.591,45.919 45.907,45.919 25.326,0 45.909,-20.599 45.909,-45.919 0,-25.32 -20.584,-45.91 -45.909,-45.91 z m 0,81.708 c -19.755,0 -35.809,-16.055 -35.809,-35.807 0,-19.746 16.055,-35.793 35.809,-35.793 19.739,0 35.811,16.047 35.811,35.793 -0.002,19.753 -16.072,35.807 -35.811,35.807 z"
             id="path4394"
             style="fill:#aeaeae;fill-opacity:0.44343901"
             inkscape:connector-curvature="0" />
          <path
             d="m 398.087,116.804 c -1.366,-2.475 -4.452,-3.4 -6.946,-2.041 l -21.258,11.584 -23.905,-11.693 c -2.549,-1.225 -5.627,-0.189 -6.854,2.351 -1.243,2.537 -0.19,5.609 2.348,6.838 l 26.3,12.863 c 0.708,0.352 1.459,0.525 2.243,0.525 0.828,0 1.688,-0.212 2.455,-0.616 l 23.568,-12.868 c 2.463,-1.352 3.398,-4.463 2.049,-6.943 z"
             id="path4396"
             style="fill:#aeaeae;fill-opacity:0.44343901"
             inkscape:connector-curvature="0" />
          <path
             d="m 244.096,102.628 c 27.891,-0.535 50.34,-23.295 50.34,-51.314 0,-28.019 -22.449,-50.78 -50.34,-51.314 -27.891,0.535 -50.34,23.295 -50.34,51.314 0,28.019 22.448,50.78 50.34,51.314 z"
             id="path4398"
             style="fill:#aeaeae;fill-opacity:0.44343901"
             inkscape:connector-curvature="0" />
          <path
             d="m 374.879,187.238 c -14.824,-0.008 -33.009,-0.671 -41.242,-1.692 -2.491,-3.406 -6.239,-9.061 -9.172,-13.484 C 314.05,156.354 301.649,137.75 288.069,124.866 277.98,115.293 268.892,108.7 257.09,105.499 c -0.045,-0.008 -0.092,-0.008 -0.142,-0.016 l -12.397,13.016 -0.455,-0.458 12.965,85.126 -12.387,16.941 h -0.241 l -0.337,-0.461 -0.337,0.461 h -0.241 l -12.387,-16.941 12.965,-85.126 -0.455,0.458 -12.397,-13.016 c -0.05,0.008 -0.097,0.008 -0.142,0.016 -11.803,3.201 -20.891,9.794 -30.979,19.367 -13.579,12.885 -25.98,31.488 -36.396,47.196 -2.933,4.424 -6.681,10.078 -9.172,13.484 -8.233,1.021 -26.418,1.685 -41.242,1.692 -11.009,0.008 -19.927,8.938 -19.91,19.949 0.007,11.006 8.925,19.915 19.927,19.915 0,0 0.009,0 0.017,0 48.434,-0.03 56.764,-3.945 59.906,-5.414 6.297,-2.955 10.774,-8.424 17.847,-18.845 v 59.162 c 0,8.518 3.771,18.659 4.645,19.754 -0.131,0.998 -0.142,190.709 -0.142,190.709 0,13.009 9.243,23.653 22.247,23.641 13.016,0 23.561,-10.545 23.554,-23.563 l -0.017,-163.802 2.71,0.005 2.71,-0.005 -0.017,163.802 c -0.007,13.018 10.538,23.563 23.554,23.563 13.004,0.013 22.247,-10.632 22.247,-23.641 0,0 -0.011,-189.711 -0.142,-190.709 0.873,-1.095 4.645,-11.236 4.645,-19.754 v -59.162 c 7.072,10.421 11.55,15.89 17.847,18.845 3.143,1.469 11.473,5.384 59.906,5.414 0.008,0 0.017,0 0.017,0 11.002,0 19.92,-8.909 19.927,-19.915 0.015,-11.011 -8.903,-19.942 -19.912,-19.949 z"
             id="path4400"
             style="fill:#aeaeae;fill-opacity:0.44343901"
             inkscape:connector-curvature="0" />
        </g>
      </g>
      <g
         id="g4402"
         style="fill:#aeaeae;fill-opacity:0.44343901" />
      <g
         id="g4404"
         style="fill:#aeaeae;fill-opacity:0.44343901" />
      <g
         id="g4406"
         style="fill:#aeaeae;fill-opacity:0.44343901" />
      <g
         id="g4408"
         style="fill:#aeaeae;fill-opacity:0.44343901" />
      <g
         id="g4410"
         style="fill:#aeaeae;fill-opacity:0.44343901" />
      <g
         id="g4412"
         style="fill:#aeaeae;fill-opacity:0.44343901" />
      <g
         id="g4414"
         style="fill:#aeaeae;fill-opacity:0.44343901" />
      <g
         id="g4416"
         style="fill:#aeaeae;fill-opacity:0.44343901" />
      <g
         id="g4418"
         style="fill:#aeaeae;fill-opacity:0.44343901" />
      <g
         id="g4420"
         style="fill:#aeaeae;fill-opacity:0.44343901" />
      <g
         id="g4422"
         style="fill:#aeaeae;fill-opacity:0.44343901" />
      <g
         id="g4424"
         style="fill:#aeaeae;fill-opacity:0.44343901" />
      <g
         id="g4426"
         style="fill:#aeaeae;fill-opacity:0.44343901" />
      <g
         id="g4428"
         style="fill:#aeaeae;fill-opacity:0.44343901" />
      <g
         id="g4430"
         style="fill:#aeaeae;fill-opacity:0.44343901" />
    </g>
    <g
       transform="matrix(0.03544921,0,0,0.03544921,426.5332,932.00159)"
       id="g4515"
       style="fill:#aeaeae;fill-opacity:0.44343901">
      <g
         id="g4463"
         style="fill:#aeaeae;fill-opacity:0.44343901">
        <g
           id="g4465"
           style="fill:#aeaeae;fill-opacity:0.44343901">
          <path
             d="M 901.178,714.9 H 795.979 l -97.601,-71.3 c -9.5,-6.9 -22.8,-4.9 -29.7,4.6 -6.899,9.5 -4.899,22.8 4.601,29.7 l 50.399,37 h -33.6 c -7.2,0 -12.8,6.6 -11.5,13.7 l 31,180.199 c 1,5.601 5.8,9.7 11.5,9.7 h 74.5 75.5 c 5.7,0 10.6,-4.1 11.5,-9.8 l 30,-180.2 c 1.3,-7.099 -4.2,-13.599 -11.4,-13.599 z m -106.3,63 c -9,1.399 -17.399,-4.8 -18.8,-13.8 -0.5,-3.5 0.1,-6.9 1.6,-9.9 2.301,-4.6 6.801,-8.1 12.301,-8.9 6.1,-0.899 12,1.601 15.5,6.2 1.699,2.2 2.899,4.8 3.3,7.7 1.3,8.901 -4.8,17.3 -13.901,18.7 z"
             id="path4467"
             style="fill:#aeaeae;fill-opacity:0.44343901"
             inkscape:connector-curvature="0" />
          <path
             d="m 361.779,222.4 c 24.1,0 50.6,-13.4 50.6,-13.4 -12.5,-7.3 -18.899,-21.8 -22,-36.4 13.101,21.7 35.8,36 61.5,36 25.7,0 48.4,-14.3 61.5,-36 -3.1,14.7 -9.5,29.1 -22,36.4 0,0 26.5,13.4 50.601,13.4 15.6,0 30.3,-5.6 36.1,-24.3 0.9,-2.8 -0.3,-5.8 -2.9,-7.1 -8.699,-4.7 -27.8,-18.2 -27.8,-46 0,-36 9,-145 -95.5,-145 -104.5,0 -95.5,109 -95.5,145 0,27.8 -19.1,41.3 -27.8,46 -2.6,1.4 -3.8,4.4 -2.9,7.1 5.799,18.6 20.498,24.3 36.099,24.3 z"
             id="path4469"
             style="fill:#aeaeae;fill-opacity:0.44343901"
             inkscape:connector-curvature="0" />
          <path
             d="m 691.479,544 c 15.3,-11.399 18.5,-33.1 7.1,-48.399 l -165.7,-222.8 c -35.3,-47 -105.6,-44.9 -149.5,-12.2 -0.1,0.1 -137.3,102.2 -137.3,102.2 l -82.9,-45.9 V 396 l 68.9,38.2 c 5.2,2.9 11,4.3 16.8,4.3 7.3,0 14.6,-2.3 20.7,-6.8 l 78.2,-58.2 v 85.9 l -82.8,231 c -2.9,7.7 2.9,16 11.1,16 h 71.7 v 178.9 c 0,25.7 20.8,46.5 46.5,46.5 25.7,0 46.5,-20.8 46.5,-46.5 V 706.2 h 22.399 v 178.9 c 0,25.699 20.801,46.5 46.5,46.5 25.7,0 46.5,-20.801 46.5,-46.5 V 706.2 h 71.7 c 8.3,0 14,-8.2 11.101,-16 l -82.801,-231 v -39.5 l 87.101,117.1 c 6.8,9.101 17.2,13.9 27.8,13.9 7,0.1 14.2,-2.099 20.4,-6.7 z"
             id="path4471"
             style="fill:#aeaeae;fill-opacity:0.44343901"
             inkscape:connector-curvature="0" />
          <path
             d="M 144.179,693 V 385.4 359.2 58.2 c 0,-11 -9,-20 -20,-20 -11,0 -20,9 -20,20 v 632.5 c 5,-1 10.2,-1.5 15.3,-1.5 8.399,0 16.8,1.3 24.7,3.8 z"
             id="path4473"
             style="fill:#aeaeae;fill-opacity:0.44343901"
             inkscape:connector-curvature="0" />
          <path
             d="m 269.979,922.601 c -33,-16.5 -59.9,-48.601 -59.9,-91.7 0,-43.101 -25.3,-61.8 -35.3,-67.5 -12.1,-4.7 -26.2,-8 -41.4,-9.3 -4.5,-0.4 -9.2,-0.601 -13.9,-0.601 -2,0 -4.1,0 -6.1,0.101 -21.8,0.8 -41.9,5.699 -57.5,13.399 -23.6,15.7 -21.5,49.4 -21.5,49.4 0,106.899 80.3,130.7 151.8,130.7 31.5,0 61.3,-4.601 81.7,-8.801 7.9,-1.499 9.3,-12.099 2.1,-15.698 z"
             id="path4475"
             style="fill:#aeaeae;fill-opacity:0.44343901"
             inkscape:connector-curvature="0" />
          <path
             d="m 100.378,733.5 c 4.1,-0.399 8.3,-0.7 12.5,-0.8 2.2,-0.1 4.4,-0.1 6.6,-0.1 5.2,0 10.3,0.199 15.3,0.6 4.2,0.3 8.4,0.8 12.5,1.4 3.5,0.5 6.9,1.1 10.3,1.8 2.6,0.6 5.2,1.2 7.8,1.8 -1.4,-3 -2.9,-5.8 -4.6,-8.3 -2.3,-3.4 -4.8,-6.4 -7.4,-8.8 -2,-1.801 -4.1,-3.301 -6.3,-4.4 -0.9,-0.5 -1.9,-0.9 -2.8,-1.3 -7.8,-3.4 -16.2,-5.2 -24.7,-5.2 -5.2,0 -10.3,0.7 -15.3,2 -3.2,0.8 -6.4,1.9 -9.5,3.3 -0.9,0.4 -1.8,0.8 -2.7,1.2 -2.2,1.1 -4.4,2.7 -6.5,4.6 -4.6,4.2 -8.7,10.101 -11.8,16.9 5.2,-1.3 10.6,-2.5 16.2,-3.4 3.4,-0.5 6.801,-1 10.4,-1.3 z"
             id="path4477"
             style="fill:#aeaeae;fill-opacity:0.44343901"
             inkscape:connector-curvature="0" />
        </g>
      </g>
      <g
         id="g4479"
         style="fill:#aeaeae;fill-opacity:0.44343901" />
      <g
         id="g4481"
         style="fill:#aeaeae;fill-opacity:0.44343901" />
      <g
         id="g4483"
         style="fill:#aeaeae;fill-opacity:0.44343901" />
      <g
         id="g4485"
         style="fill:#aeaeae;fill-opacity:0.44343901" />
      <g
         id="g4487"
         style="fill:#aeaeae;fill-opacity:0.44343901" />
      <g
         id="g4489"
         style="fill:#aeaeae;fill-opacity:0.44343901" />
      <g
         id="g4491"
         style="fill:#aeaeae;fill-opacity:0.44343901" />
      <g
         id="g4493"
         style="fill:#aeaeae;fill-opacity:0.44343901" />
      <g
         id="g4495"
         style="fill:#aeaeae;fill-opacity:0.44343901" />
      <g
         id="g4497"
         style="fill:#aeaeae;fill-opacity:0.44343901" />
      <g
         id="g4499"
         style="fill:#aeaeae;fill-opacity:0.44343901" />
      <g
         id="g4501"
         style="fill:#aeaeae;fill-opacity:0.44343901" />
      <g
         id="g4503"
         style="fill:#aeaeae;fill-opacity:0.44343901" />
      <g
         id="g4505"
         style="fill:#aeaeae;fill-opacity:0.44343901" />
      <g
         id="g4507"
         style="fill:#aeaeae;fill-opacity:0.44343901" />
    </g>
    <g
       transform="matrix(0.13572767,0,0,0.13572767,281.63946,870.76002)"
       id="g4583"
       style="fill:#aeaeae;fill-opacity:0.44343901">
      <g
         id="g4541"
         style="fill:#aeaeae;fill-opacity:0.44343901">
        <path
           d="m 260.267,8.35 c -1.238,0 -2.272,0.715 -2.819,1.731 V 3.237 C 257.448,1.451 255.997,0 254.211,0 h -59.978 c -1.793,0 -3.24,1.451 -3.24,3.237 v 16.699 c 0,1.786 1.447,3.237 3.24,3.237 h 59.978 c 1.231,0 2.266,-0.719 2.819,-1.731 v 2.327 l -33.133,3.34 c -1.657,0.167 -2.916,1.561 -2.916,3.22 v 13.117 h -3.877 c -1.79,0 -3.237,1.451 -3.237,3.237 v 21.961 c 0,3.314 1.591,6.233 4.014,8.133 -0.287,4.921 -1.561,10.275 -4.828,15.217 -9.565,14.469 -33.541,22.119 -69.332,22.119 -1.059,0 -2.057,0.214 -3.012,0.525 -11.024,-1.184 -39.177,-2.004 -58.541,16.821 -16.076,15.626 -21.685,40.264 -16.758,73.205 -11.88,3.45 -20.595,14.421 -20.595,27.398 v 13.216 c 0,1.787 1.448,3.237 3.237,3.237 h 0.417 v 28.856 c 0,1.69 0,6.837 24.895,6.837 24.895,0 24.895,-5.146 24.895,-6.837 v -28.856 h 0.417 c 1.79,0 3.237,-1.45 3.237,-3.237 v -13.209 c 0,-11.604 -6.966,-21.594 -16.929,-26.057 0.053,-0.732 0.042,-1.479 -0.081,-2.238 -4.447,-27.384 -0.833,-47.007 10.733,-58.317 5.159,-5.042 11.502,-8.028 17.816,-9.748 v 72.969 21.867 65.165 c 0,6.968 5.645,12.617 12.612,12.617 6.966,0 12.616,-5.646 12.616,-12.617 v -65.161 h 10.092 v 65.164 c 0,6.968 5.648,12.614 12.614,12.614 6.961,0 12.618,-5.643 12.618,-12.614 v -65.164 -21.868 -77.178 c 26.645,-3.932 45.189,-13.565 55.261,-28.794 12.053,-18.233 7.908,-38.407 5.321,-46.835 v -9.192 c 0,-1.787 -1.444,-3.237 -3.237,-3.237 h -3.881 v -10.19 l 33.134,-3.338 c 1.652,-0.169 2.912,-1.561 2.912,-3.222 V 11.589 C 263.504,9.798 262.057,8.35 260.267,8.35 z M 95.339,230.113 c -3.039,-1.54 -9.242,-2.892 -21.976,-2.892 -12.734,0 -18.937,1.352 -21.975,2.892 0.812,-9.219 7.32,-16.816 15.976,-19.271 1.78,2.57 4.712,4.206 7.945,4.206 0.518,0 1.043,-0.041 1.569,-0.123 2.208,-0.362 4.093,-1.465 5.513,-2.984 7.113,3.204 12.23,10.061 12.948,18.172 z"
           id="path4543"
           style="fill:#aeaeae;fill-opacity:0.44343901"
           inkscape:connector-curvature="0" />
        <circle
           cx="143.506"
           cy="85.073997"
           r="23.121"
           id="circle4545"
           style="fill:#aeaeae;fill-opacity:0.44343901"
           d="m 166.627,85.073997 c 0,12.769376 -10.35163,23.121003 -23.121,23.121003 -12.76938,0 -23.121,-10.351627 -23.121,-23.121003 0,-12.769375 10.35162,-23.121 23.121,-23.121 12.76937,0 23.121,10.351625 23.121,23.121 z"
           sodipodi:cx="143.506"
           sodipodi:cy="85.073997"
           sodipodi:rx="23.121"
           sodipodi:ry="23.121" />
      </g>
      <g
         id="g4547"
         style="fill:#aeaeae;fill-opacity:0.44343901" />
      <g
         id="g4549"
         style="fill:#aeaeae;fill-opacity:0.44343901" />
      <g
         id="g4551"
         style="fill:#aeaeae;fill-opacity:0.44343901" />
      <g
         id="g4553"
         style="fill:#aeaeae;fill-opacity:0.44343901" />
      <g
         id="g4555"
         style="fill:#aeaeae;fill-opacity:0.44343901" />
      <g
         id="g4557"
         style="fill:#aeaeae;fill-opacity:0.44343901" />
      <g
         id="g4559"
         style="fill:#aeaeae;fill-opacity:0.44343901" />
      <g
         id="g4561"
         style="fill:#aeaeae;fill-opacity:0.44343901" />
      <g
         id="g4563"
         style="fill:#aeaeae;fill-opacity:0.44343901" />
      <g
         id="g4565"
         style="fill:#aeaeae;fill-opacity:0.44343901" />
      <g
         id="g4567"
         style="fill:#aeaeae;fill-opacity:0.44343901" />
      <g
         id="g4569"
         style="fill:#aeaeae;fill-opacity:0.44343901" />
      <g
         id="g4571"
         style="fill:#aeaeae;fill-opacity:0.44343901" />
      <g
         id="g4573"
         style="fill:#aeaeae;fill-opacity:0.44343901" />
      <g
         id="g4575"
         style="fill:#aeaeae;fill-opacity:0.44343901" />
    </g>
    <g
       transform="matrix(0.08124686,0,0,0.08124686,395.82265,863.47284)"
       id="g4644"
       style="fill:#aeaeae;fill-opacity:0.44343901">
      <g
         id="g4604"
         style="fill:#aeaeae;fill-opacity:0.44343901">
        <path
           d="m 444.09,93.103 c -2.698,-3.699 -7.006,-5.888 -11.584,-5.888 H 109.92 c -0.625,0 -1.249,0.038 -1.85,0.119 L 94.794,49.064 c -1.376,-3.958 -4.406,-7.113 -8.3,-8.646 L 19.586,14.134 c -7.374,-2.887 -15.695,0.735 -18.591,8.1 -2.891,7.369 0.73,15.695 8.1,18.591 l 60.768,23.872 74.381,214.399 c -3.283,1.144 -6.065,3.663 -7.332,7.187 l -21.506,59.739 c -1.318,3.663 -0.775,7.733 1.468,10.916 2.24,3.183 5.883,5.078 9.773,5.078 h 11.044 c -6.844,7.616 -11.044,17.646 -11.044,28.675 0,23.718 19.298,43.012 43.012,43.012 23.714,0 43.012,-19.294 43.012,-43.012 0,-11.029 -4.2,-21.059 -11.044,-28.675 h 93.776 c -6.847,7.616 -11.048,17.646 -11.048,28.675 0,23.718 19.294,43.012 43.013,43.012 23.718,0 43.012,-19.294 43.012,-43.012 0,-11.029 -4.2,-21.059 -11.043,-28.675 h 13.433 c 6.599,0 11.947,-5.349 11.947,-11.948 0,-6.599 -5.349,-11.947 -11.947,-11.947 H 143.647 l 13.319,-36.996 c 1.72,0.724 3.578,1.152 5.523,1.152 h 210.278 c 6.234,0 11.751,-4.027 13.65,-9.959 l 59.739,-186.387 c 1.401,-4.364 0.632,-9.129 -2.066,-12.828 z M 169.659,409.807 c -10.543,0 -19.116,-8.573 -19.116,-19.116 0,-10.543 8.573,-19.117 19.116,-19.117 10.543,0 19.116,8.574 19.116,19.117 0,10.543 -8.573,19.116 -19.116,19.116 z m 157.708,0 c -10.543,0 -19.117,-8.573 -19.117,-19.116 0,-10.543 8.574,-19.117 19.117,-19.117 10.542,0 19.116,8.574 19.116,19.117 0,10.543 -8.574,19.116 -19.116,19.116 z M 402.52,148.149 H 329.359 V 115.89 h 83.499 l -10.338,32.259 z m -21.067,65.712 h -52.094 v -37.038 h 63.967 l -11.873,37.038 z m -146.882,0 v -37.038 h 66.113 v 37.038 h -66.113 z m 66.113,28.677 v 31.064 h -66.113 v -31.064 h 66.113 z M 139.115,176.823 h 66.784 v 37.038 h -53.933 l -12.851,-37.038 z m 95.456,-28.674 V 115.89 h 66.113 v 32.259 H 234.571 z M 205.898,115.89 v 32.259 H 129.164 L 117.973,115.89 h 87.925 z m -43.982,126.648 h 43.982 v 31.064 h -33.206 l -10.776,-31.064 z m 167.443,31.065 v -31.064 h 42.909 l -9.955,31.064 h -32.954 z"
           id="path4606"
           style="fill:#aeaeae;fill-opacity:0.44343901"
           inkscape:connector-curvature="0" />
      </g>
      <g
         id="g4608"
         style="fill:#aeaeae;fill-opacity:0.44343901" />
      <g
         id="g4610"
         style="fill:#aeaeae;fill-opacity:0.44343901" />
      <g
         id="g4612"
         style="fill:#aeaeae;fill-opacity:0.44343901" />
      <g
         id="g4614"
         style="fill:#aeaeae;fill-opacity:0.44343901" />
      <g
         id="g4616"
         style="fill:#aeaeae;fill-opacity:0.44343901" />
      <g
         id="g4618"
         style="fill:#aeaeae;fill-opacity:0.44343901" />
      <g
         id="g4620"
         style="fill:#aeaeae;fill-opacity:0.44343901" />
      <g
         id="g4622"
         style="fill:#aeaeae;fill-opacity:0.44343901" />
      <g
         id="g4624"
         style="fill:#aeaeae;fill-opacity:0.44343901" />
      <g
         id="g4626"
         style="fill:#aeaeae;fill-opacity:0.44343901" />
      <g
         id="g4628"
         style="fill:#aeaeae;fill-opacity:0.44343901" />
      <g
         id="g4630"
         style="fill:#aeaeae;fill-opacity:0.44343901" />
      <g
         id="g4632"
         style="fill:#aeaeae;fill-opacity:0.44343901" />
      <g
         id="g4634"
         style="fill:#aeaeae;fill-opacity:0.44343901" />
      <g
         id="g4636"
         style="fill:#aeaeae;fill-opacity:0.44343901" />
    </g>
    <g
       transform="matrix(0.08590353,0,0,0.08590353,279.00793,933.10723)"
       id="g4718"
       style="fill:#aeaeae;fill-opacity:0.44343901">
      <g
         id="g4664"
         style="fill:#aeaeae;fill-opacity:0.44343901">
        <path
           d="M 81.256,329.828 H 15 c -8.271,0 -15,6.729 -15,15 v 27.614 c 0,8.271 6.728,15 15,15 h 66.256 c 8.271,0 15,-6.729 15,-15 v -27.614 c 0,-8.271 -6.729,-15 -15,-15 z"
           id="path4666"
           style="fill:#aeaeae;fill-opacity:0.44343901"
           inkscape:connector-curvature="0" />
        <path
           d="m 192.292,329.828 h -66.256 c -8.271,0 -15,6.729 -15,15 v 27.614 c 0,8.271 6.729,15 15,15 h 66.256 c 8.271,0 15,-6.729 15,-15 v -27.614 c 0,-8.271 -6.729,-15 -15,-15 z"
           id="path4668"
           style="fill:#aeaeae;fill-opacity:0.44343901"
           inkscape:connector-curvature="0" />
        <path
           d="m 303.328,329.828 h -66.256 c -8.271,0 -15,6.729 -15,15 v 27.614 c 0,8.271 6.729,15 15,15 h 66.256 c 8.272,0 15,-6.729 15,-15 v -27.614 c 0,-8.271 -6.728,-15 -15,-15 z"
           id="path4670"
           style="fill:#aeaeae;fill-opacity:0.44343901"
           inkscape:connector-curvature="0" />
        <path
           d="m 15,249.084 h 66.256 c 8.271,0 15,-6.729 15,-15 V 206.47 c 0,-8.271 -6.729,-15 -15,-15 H 15 c -8.271,0 -15,6.729 -15,15 v 27.614 c 0,8.271 6.728,15 15,15 z"
           id="path4672"
           style="fill:#aeaeae;fill-opacity:0.44343901"
           inkscape:connector-curvature="0" />
        <path
           d="m 126.036,249.084 h 66.256 c 8.271,0 15,-6.729 15,-15 V 206.47 c 0,-8.271 -6.729,-15 -15,-15 h -66.256 c -8.271,0 -15,6.729 -15,15 v 27.614 c 0,8.271 6.729,15 15,15 z"
           id="path4674"
           style="fill:#aeaeae;fill-opacity:0.44343901"
           inkscape:connector-curvature="0" />
        <path
           d="m 70.519,260.649 c -8.271,0 -15,6.729 -15,15 v 27.614 c 0,8.271 6.729,15 15,15 h 66.256 c 8.271,0 15,-6.729 15,-15 v -27.614 c 0,-8.271 -6.729,-15 -15,-15 H 70.519 z"
           id="path4676"
           style="fill:#aeaeae;fill-opacity:0.44343901"
           inkscape:connector-curvature="0" />
        <path
           d="m 166.555,275.649 v 27.614 c 0,8.271 6.729,15 15,15 h 66.256 c 8.271,0 15,-6.729 15,-15 v -27.614 c 0,-8.271 -6.728,-15 -15,-15 h -66.256 c -8.272,0 -15,6.729 -15,15 z"
           id="path4678"
           style="fill:#aeaeae;fill-opacity:0.44343901"
           inkscape:connector-curvature="0" />
        <path
           d="m 437.167,68.924 -11.02,-11.02 c -2.637,-2.637 -6.152,-4.089 -9.899,-4.089 -3.746,0 -7.262,1.452 -9.898,4.089 l -36.9,36.901 c -4.926,4.926 -5.391,12.632 -1.426,18.102 l -40.897,40.897 -20.863,-20.863 c -2.446,-2.446 -5.586,-3.794 -8.841,-3.794 -4.085,0 -7.809,2.066 -10.217,5.668 l -30.343,45.384 c -3.257,4.87 -5.921,13.275 -6.066,19.136 l -0.781,31.826 c -0.091,3.712 1.271,7.203 3.834,9.83 2.562,2.625 6.014,4.071 9.718,4.071 l 32.171,-0.786 c 5.858,-0.144 14.263,-2.808 19.136,-6.065 l 45.384,-30.343 c 3.21,-2.147 5.256,-5.453 5.611,-9.07 0.355,-3.617 -1.006,-7.258 -3.737,-9.989 l -20.863,-20.863 40.895,-40.895 c 2.369,1.72 5.209,2.662 8.204,2.662 3.746,0 7.262,-1.453 9.898,-4.09 l 36.9,-36.9 c 2.638,-2.637 4.091,-6.153 4.091,-9.9 0,-3.746 -1.453,-7.262 -4.091,-9.899 z m -98.928,130.855 c -1.94,4.935 -10.201,6.475 -14.833,10.737 -4.01,3.689 -5.665,11.889 -11.27,14.383 -5.605,2.493 -12.804,-1.768 -18.228,-1.26 -6.268,0.587 -12.943,5.691 -17.908,3.827 -5.819,-2.185 -6.556,-10.008 -8.884,-15.241 -2.328,-5.234 -7.645,-11.02 -5.371,-16.805 1.94,-4.935 10.201,-6.475 14.833,-10.737 4.01,-3.689 5.665,-11.889 11.27,-14.383 5.605,-2.493 12.804,1.768 18.228,1.26 6.268,-0.587 12.943,-5.691 17.908,-3.827 5.819,2.185 6.556,10.007 8.884,15.241 2.329,5.234 7.645,11.02 5.371,16.805 z"
           id="path4680"
           style="fill:#aeaeae;fill-opacity:0.44343901"
           inkscape:connector-curvature="0" />
      </g>
      <g
         id="g4682"
         style="fill:#aeaeae;fill-opacity:0.44343901" />
      <g
         id="g4684"
         style="fill:#aeaeae;fill-opacity:0.44343901" />
      <g
         id="g4686"
         style="fill:#aeaeae;fill-opacity:0.44343901" />
      <g
         id="g4688"
         style="fill:#aeaeae;fill-opacity:0.44343901" />
      <g
         id="g4690"
         style="fill:#aeaeae;fill-opacity:0.44343901" />
      <g
         id="g4692"
         style="fill:#aeaeae;fill-opacity:0.44343901" />
      <g
         id="g4694"
         style="fill:#aeaeae;fill-opacity:0.44343901" />
      <g
         id="g4696"
         style="fill:#aeaeae;fill-opacity:0.44343901" />
      <g
         id="g4698"
         style="fill:#aeaeae;fill-opacity:0.44343901" />
      <g
         id="g4700"
         style="fill:#aeaeae;fill-opacity:0.44343901" />
      <g
         id="g4702"
         style="fill:#aeaeae;fill-opacity:0.44343901" />
      <g
         id="g4704"
         style="fill:#aeaeae;fill-opacity:0.44343901" />
      <g
         id="g4706"
         style="fill:#aeaeae;fill-opacity:0.44343901" />
      <g
         id="g4708"
         style="fill:#aeaeae;fill-opacity:0.44343901" />
      <g
         id="g4710"
         style="fill:#aeaeae;fill-opacity:0.44343901" />
    </g>
    <g
       transform="matrix(0.0665032,0,0,0.0665032,96.85195,885.1754)"
       id="g4785"
       style="fill:#aeaeae;fill-opacity:0.44343901">
      <g
         id="g4745"
         style="fill:#aeaeae;fill-opacity:0.44343901">
        <path
           d="m 0,208 c 0,29.781 20.438,54.594 48,61.75 V 480 H 16 c -8.813,0 -16,7.156 -16,16 0,8.844 7.188,16 16,16 h 480 c 8.875,0 16,-7.156 16,-16 0,-8.844 -7.125,-16 -16,-16 H 464 V 269.75 c 27.562,-7.156 48,-31.969 48,-61.75 V 192 H 0 v 16 z m 320,64 c 35.375,0 64,-28.656 64,-64 0,29.781 20.438,54.594 48,61.75 V 480 H 192 V 272 c 35.375,0 64,-28.656 64,-64 0,35.344 28.688,64 64,64 z M 176,269.75 V 480 H 80 V 269.75 c 27.563,-7.156 48,-31.969 48,-61.75 0,29.781 20.438,54.594 48,61.75 z M 448,48 H 64 L 0,176 H 512 L 448,48 z m -312.812,35.563 -32,64 c -1.438,2.813 -4.25,4.438 -7.188,4.438 -1.188,0 -2.406,-0.25 -3.563,-0.844 -3.938,-1.969 -5.563,-6.781 -3.563,-10.719 l 32,-64 c 2,-3.938 6.781,-5.531 10.719,-3.594 3.97,1.969 5.532,6.781 3.595,10.719 z m 64,0 -32,64 c -1.438,2.813 -4.25,4.438 -7.188,4.438 -1.188,0 -2.406,-0.25 -3.563,-0.844 -3.938,-1.969 -5.563,-6.781 -3.563,-10.719 l 32,-64 c 2,-3.938 6.813,-5.531 10.719,-3.594 3.97,1.969 5.532,6.781 3.595,10.719 z M 264,144 c 0,4.438 -3.562,8 -8,8 -4.406,0 -8,-3.563 -8,-8 V 80 c 0,-4.438 3.594,-8 8,-8 4.438,0 8,3.563 8,8 v 64 z m 91.875,7 c -1.25,0.688 -2.562,1 -3.875,1 -2.812,0 -5.562,-1.5 -7,-4.156 l -35,-64 c -2.125,-3.875 -0.688,-8.75 3.188,-10.844 3.813,-2.125 8.75,-0.75 10.875,3.156 l 35,64 c 2.062,3.875 0.687,8.75 -3.188,10.844 z m 63.687,0.156 C 418.438,151.75 417.25,152 416,152 c -2.938,0 -5.75,-1.625 -7.125,-4.438 l -32,-64 c -2,-3.938 -0.375,-8.75 3.562,-10.719 3.875,-1.969 8.75,-0.375 10.75,3.594 l 32,64 c 1.938,3.938 0.375,8.751 -3.625,10.719 z M 136,386.438 v -36.875 c -4.688,-2.812 -8,-7.688 -8,-13.562 0,-8.844 7.188,-16 16,-16 8.875,0 16,7.156 16,16 0,5.875 -3.281,10.75 -8,13.562 v 36.875 c 4.719,2.813 8,7.688 8,13.563 0,8.844 -7.125,16 -16,16 -8.813,0 -16,-7.156 -16,-16 0,-5.876 3.313,-10.751 8,-13.563 z M 64,16 C 64,7.156 71.188,0 80,0 h 352 c 8.875,0 16,7.156 16,16 0,8.844 -7.125,16 -16,16 H 80 C 71.188,32 64,24.844 64,16 z m 216.438,341.656 -11.312,-11.313 45.25,-45.25 11.312,11.313 -45.25,45.25 z m 0,45.25 -11.312,-11.313 90.5,-90.5 11.312,11.313 -90.5,90.5 z m 79.187,-56.562 11.312,11.313 -45.25,45.25 -11.312,-11.313 45.25,-45.25 z"
           id="path4747"
           style="fill:#aeaeae;fill-opacity:0.44343901" />
      </g>
      <g
         id="g4749"
         style="fill:#aeaeae;fill-opacity:0.44343901" />
      <g
         id="g4751"
         style="fill:#aeaeae;fill-opacity:0.44343901" />
      <g
         id="g4753"
         style="fill:#aeaeae;fill-opacity:0.44343901" />
      <g
         id="g4755"
         style="fill:#aeaeae;fill-opacity:0.44343901" />
      <g
         id="g4757"
         style="fill:#aeaeae;fill-opacity:0.44343901" />
      <g
         id="g4759"
         style="fill:#aeaeae;fill-opacity:0.44343901" />
      <g
         id="g4761"
         style="fill:#aeaeae;fill-opacity:0.44343901" />
      <g
         id="g4763"
         style="fill:#aeaeae;fill-opacity:0.44343901" />
      <g
         id="g4765"
         style="fill:#aeaeae;fill-opacity:0.44343901" />
      <g
         id="g4767"
         style="fill:#aeaeae;fill-opacity:0.44343901" />
      <g
         id="g4769"
         style="fill:#aeaeae;fill-opacity:0.44343901" />
      <g
         id="g4771"
         style="fill:#aeaeae;fill-opacity:0.44343901" />
      <g
         id="g4773"
         style="fill:#aeaeae;fill-opacity:0.44343901" />
      <g
         id="g4775"
         style="fill:#aeaeae;fill-opacity:0.44343901" />
      <g
         id="g4777"
         style="fill:#aeaeae;fill-opacity:0.44343901" />
    </g>
    <g
       transform="matrix(0.06397573,0,0,0.06397573,430.42275,997.16013)"
       id="g4845"
       style="fill:#aeaeae;fill-opacity:0.44343901">
      <g
         id="g4805"
         style="fill:#aeaeae;fill-opacity:0.44343901">
        <path
           d="m 464.818,291.745 c -0.1,-0.083 -10.059,-8.465 -19.869,-25.81 -9.043,-15.993 -19.824,-43.144 -19.824,-81.668 0,-77.124 14.414,-130.872 14.559,-131.403 1.176,-4.295 -0.895,-8.817 -4.914,-10.733 L 348.28,0.895 c -2.346,-1.118 -5.053,-1.192 -7.455,-0.205 -2.402,0.985 -4.275,2.941 -5.158,5.383 -0.15,0.415 -15.268,42.093 -34.709,83.25 -36.17,76.57 -52.906,78.781 -54.696,78.781 -0.081,0 -0.158,0.01 -0.238,0.013 C 241.181,167.282 223.85,159 191.492,89.578 172.321,48.449 157.708,6.688 157.562,6.271 c -0.861,-2.469 -2.731,-4.457 -5.145,-5.463 -2.413,-1.007 -5.142,-0.94 -7.502,0.185 l -86.49,41.236 c -4.02,1.917 -6.091,6.438 -4.915,10.734 0.146,0.532 14.559,54.082 14.559,131.402 0,38.524 -10.781,65.675 -19.824,81.668 -9.809,17.346 -19.768,25.728 -19.838,25.785 -2.14,1.748 -3.382,4.363 -3.382,7.128 v 185.05 c 0,5.081 4.118,9.2 9.2,9.2 l 424.745,-0.1 c 5.08,0 9.199,-4.119 9.199,-9.2 v -185.05 c 0.001,-2.734 -1.247,-5.354 -3.351,-7.101 z m -15.048,11.14 v 64.349 H 332.41 l 77.91,-316.374 9.768,4.657 c -4.068,17.695 -13.363,65.086 -13.363,128.751 0,70.548 32.281,108.068 43.045,118.617 z M 317.596,97.182 c 14.205,-30.068 26.148,-60.427 31.828,-75.356 l 4.621,2.203 -84.517,343.204 H 256.132 V 184.379 c 12.984,-5.667 32.185,-25.213 61.464,-87.197 z M 174.76,97.236 c 29.187,62.647 48.848,81.966 62.301,87.41 v 182.686 h -13.394 l -84.516,-343.204 4.523,-2.156 c 5.525,14.986 17.113,45.269 31.086,75.264 z m -88.291,87.128 c 0,-63.665 -9.293,-111.056 -13.362,-128.751 l 9.769,-4.658 77.909,316.375 H 43.424 V 302.982 C 54.188,292.438 86.469,254.919 86.469,184.364 z M 43.424,449.13 h 193.637 v 25.665 H 43.424 V 449.13 z m 212.709,25.566 V 449.032 H 449.77 v 25.664 H 256.133 z"
           id="path4807"
           style="fill:#aeaeae;fill-opacity:0.44343901"
           inkscape:connector-curvature="0" />
      </g>
      <g
         id="g4809"
         style="fill:#aeaeae;fill-opacity:0.44343901" />
      <g
         id="g4811"
         style="fill:#aeaeae;fill-opacity:0.44343901" />
      <g
         id="g4813"
         style="fill:#aeaeae;fill-opacity:0.44343901" />
      <g
         id="g4815"
         style="fill:#aeaeae;fill-opacity:0.44343901" />
      <g
         id="g4817"
         style="fill:#aeaeae;fill-opacity:0.44343901" />
      <g
         id="g4819"
         style="fill:#aeaeae;fill-opacity:0.44343901" />
      <g
         id="g4821"
         style="fill:#aeaeae;fill-opacity:0.44343901" />
      <g
         id="g4823"
         style="fill:#aeaeae;fill-opacity:0.44343901" />
      <g
         id="g4825"
         style="fill:#aeaeae;fill-opacity:0.44343901" />
      <g
         id="g4827"
         style="fill:#aeaeae;fill-opacity:0.44343901" />
      <g
         id="g4829"
         style="fill:#aeaeae;fill-opacity:0.44343901" />
      <g
         id="g4831"
         style="fill:#aeaeae;fill-opacity:0.44343901" />
      <g
         id="g4833"
         style="fill:#aeaeae;fill-opacity:0.44343901" />
      <g
         id="g4835"
         style="fill:#aeaeae;fill-opacity:0.44343901" />
      <g
         id="g4837"
         style="fill:#aeaeae;fill-opacity:0.44343901" />
    </g>
    <g
       transform="matrix(0.07162099,0,0,0.07162099,344.35697,977.25267)"
       id="g4905"
       style="fill:#aeaeae;fill-opacity:0.44343901">
      <g
         id="g4865"
         style="fill:#aeaeae;fill-opacity:0.44343901">
        <path
           d="M 607.673,331.7 580.276,291.612 C 572.154,221.459 552.095,169.544 519.22,133.355 480.735,90.988 425.734,70.394 351.075,70.394 c -10.522,0 -21.611,0.42 -32.961,1.251 C 190.886,80.947 122.765,227.489 95.8,303.661 c -1.345,0.575 -2.692,1.159 -4.041,1.751 C 29.948,332.57 -0.068,362.807 0,397.843 c 0.026,13.219 7.795,27.339 25.187,45.783 12.635,13.397 29.878,28.34 48.548,42.074 21.969,16.162 78.067,53.95 124.403,55.783 2.068,0.082 4.287,0.122 6.594,0.122 0.003,0 -0.002,0 0.002,0 72.946,0 303.843,-43.021 402.652,-181.5 6.045,-8.468 6.16,-19.814 0.287,-28.405 z m -124.324,29.124 c -5.881,3.956 -11.904,7.699 -18.013,11.294 -13.322,7.838 -27.069,14.937 -41.109,21.394 -26.717,12.285 -54.661,22.357 -83.363,28.868 -26.118,5.925 -53.921,9.563 -80.545,4.979 -25.609,-4.409 -50.805,-13.146 -73.678,-25.478 -22.763,-12.273 -46.096,-27.698 -62.628,-47.931 10.327,4.541 20.74,8.852 31.255,12.94 6.754,-23.263 14.575,-46.318 23.98,-68.649 9.149,-21.723 19.862,-42.606 35.441,-60.436 18.344,-20.998 41.092,-38.528 65.073,-52.61 20.158,-11.836 41.731,-21.136 64.627,-26.069 -9.079,3.358 -17.856,7.315 -26.315,12.039 -25.252,14.106 -47.963,33.104 -67.129,54.71 -8.42,9.492 -17.307,19.911 -23.199,31.227 -6.517,12.52 -10.727,25.968 -14.186,39.616 -6.81,27.099 -10.818,54.97 -13.437,82.767 -0.274,2.901 -0.167,2.643 2.703,3.424 1.818,0.495 3.635,0.99 5.453,1.483 3.286,0.967 6.618,1.767 9.948,2.567 6.906,1.659 13.848,3.104 20.808,4.531 41.818,8.948 97.502,-1.321 131.974,-8.986 34.836,-7.744 69.41,-16.631 104.171,-24.703 -0.019,0.002 0.288,-0.07 1.098,-0.258 5.175,-1.173 4.011,-0.904 2.102,-0.467 4.863,-1.094 9.734,-2.163 14.625,-3.126 -0.002,1.465 -8.588,6.153 -9.656,6.874 z"
           id="path4867"
           style="fill:#aeaeae;fill-opacity:0.44343901"
           inkscape:connector-curvature="0" />
      </g>
      <g
         id="g4869"
         style="fill:#aeaeae;fill-opacity:0.44343901" />
      <g
         id="g4871"
         style="fill:#aeaeae;fill-opacity:0.44343901" />
      <g
         id="g4873"
         style="fill:#aeaeae;fill-opacity:0.44343901" />
      <g
         id="g4875"
         style="fill:#aeaeae;fill-opacity:0.44343901" />
      <g
         id="g4877"
         style="fill:#aeaeae;fill-opacity:0.44343901" />
      <g
         id="g4879"
         style="fill:#aeaeae;fill-opacity:0.44343901" />
      <g
         id="g4881"
         style="fill:#aeaeae;fill-opacity:0.44343901" />
      <g
         id="g4883"
         style="fill:#aeaeae;fill-opacity:0.44343901" />
      <g
         id="g4885"
         style="fill:#aeaeae;fill-opacity:0.44343901" />
      <g
         id="g4887"
         style="fill:#aeaeae;fill-opacity:0.44343901" />
      <g
         id="g4889"
         style="fill:#aeaeae;fill-opacity:0.44343901" />
      <g
         id="g4891"
         style="fill:#aeaeae;fill-opacity:0.44343901" />
      <g
         id="g4893"
         style="fill:#aeaeae;fill-opacity:0.44343901" />
      <g
         id="g4895"
         style="fill:#aeaeae;fill-opacity:0.44343901" />
      <g
         id="g4897"
         style="fill:#aeaeae;fill-opacity:0.44343901" />
    </g>
    <text
       xml:space="preserve"
       style="font-size:42.51532745000000091px;font-style:normal;font-variant:normal;font-weight:300;font-stretch:normal;text-align:start;line-height:100%;letter-spacing:0px;word-spacing:0px;writing-mode:lr-tb;text-anchor:start;fill:#e91e63;fill-opacity:1;stroke:#e91e63;font-family:DIN Next LT Arabic;-inkscape-font-specification:DIN Next LT Arabic Light;stroke-opacity:1;stroke-width:0.5;stroke-miterlimit:4;stroke-dasharray:none"
       x="16.520151"
       y="944.8952"
       id="text3325"
       sodipodi:linespacing="100%"><tspan
         sodipodi:role="line"
         id="tspan3327"
         x="16.520151"
         y="944.8952">Trouvez le service convenable</tspan><tspan
         sodipodi:role="line"
         x="16.520151"
         y="987.41052"
         id="tspan3329">        votre besoin</tspan></text>
  </g>
</svg>
