<?xml version="1.0" encoding="UTF-8" standalone="no"?>
<!-- Created with Inkscape (http://www.inkscape.org/) -->

<svg
   xmlns:dc="http://purl.org/dc/elements/1.1/"
   xmlns:cc="http://creativecommons.org/ns#"
   xmlns:rdf="http://www.w3.org/1999/02/22-rdf-syntax-ns#"
   xmlns:svg="http://www.w3.org/2000/svg"
   xmlns="http://www.w3.org/2000/svg"
   xmlns:xlink="http://www.w3.org/1999/xlink"
   xmlns:sodipodi="http://sodipodi.sourceforge.net/DTD/sodipodi-0.dtd"
   xmlns:inkscape="http://www.inkscape.org/namespaces/inkscape"
   version="1.1"
   width="3057"
   height="820"
   id="svg2"
   xml:space="preserve"
   inkscape:version="0.48.4 r9939"
   sodipodi:docname="logo.svg"><sodipodi:namedview
     pagecolor="#ffffff"
     bordercolor="#666666"
     borderopacity="1"
     objecttolerance="10"
     gridtolerance="10"
     guidetolerance="10"
     inkscape:pageopacity="0"
     inkscape:pageshadow="2"
     inkscape:window-width="1600"
     inkscape:window-height="876"
     id="namedview165"
     showgrid="false"
     inkscape:zoom="0.28312028"
     inkscape:cx="1051.1127"
     inkscape:cy="263.60005"
     inkscape:window-x="0"
     inkscape:window-y="24"
     inkscape:window-maximized="1"
     inkscape:current-layer="g10" /><metadata
     id="metadata8"><rdf:RDF><cc:Work
         rdf:about=""><dc:format>image/svg+xml</dc:format><dc:type
           rdf:resource="http://purl.org/dc/dcmitype/StillImage" /><dc:title /></cc:Work></rdf:RDF></metadata><defs
     id="defs6"><clipPath
       id="clipPath18"><path
         d="m 0,869.743 846.084,0 L 846.084,0 0,0 0,869.743 z"
         id="path20" /></clipPath><clipPath
       id="clipPath110"><path
         d="m 705.179,353.614 c -12.505,-23.74 -29.385,-46.573 -48.755,-67.735 l 0,0 C 632.47,259.707 604.735,236.093 576.822,216.463 l 0,0 c -15.917,-11.195 -31.883,-21.089 -47.24,-29.428 l 0,0 c 0.157,0.186 0.301,0.357 0.472,0.551 l 0,0 c -31.311,-17.081 -63.895,-25.888 -95.722,-26.922 l 0,0 0,-2 c 1.415,-0.985 5.395,-0.54 8.671,-0.88 l 0,0 c 1.45,-0.051 2.896,-0.091 4.329,-0.122 l 0,0 c -0.237,-0.014 -0.484,-0.037 -0.719,-0.052 l 0,0 c 0.34,-0.011 0.68,-0.021 1.008,-0.036 l 0,0 c 2.21,-0.007 4.642,0.025 7.087,0.074 l 0,0 c 2.334,0.021 4.659,0.056 6.784,0.123 l 0,0 c 0.358,0.013 0.709,0.028 1.074,0.043 l 0,0 c 0.199,0.006 0.408,0.012 0.601,0.014 l 0,0 c 4.026,0.181 9.224,0.583 13.519,0.955 l 0,0 c 0.173,0.022 0.35,0.037 0.526,0.06 l 0,0 c 0.836,0.063 1.594,0.135 2.317,0.201 l 0,0 c 3.19,0.338 6.718,0.791 9.555,1.174 l 0,0 c 0.493,0.073 1.02,0.147 1.568,0.225 l 0,0 c 0.133,0.02 0.266,0.039 0.401,0.06 l 0,0 c 0.035,0.005 0.062,0.012 0.098,0.014 l 0,0 c 3.034,0.452 6.469,1.014 10.153,1.695 l 0,0 c 0.402,0.08 0.824,0.164 1.268,0.254 l 0,0 c 0.352,0.064 0.686,0.12 1.007,0.179 l 0,0 c 2.531,0.492 4.998,0.998 7.234,1.498 l 0,0 c 0.866,0.198 1.813,0.418 2.934,0.678 l 0,0 c 0.113,0.027 0.213,0.048 0.326,0.074 l 0,0 c 0.989,0.25 2.046,0.52 3.127,0.798 l 0,0 c 2.797,0.711 4.845,1.231 6.46,1.65 l 0,0 c 2.623,0.713 5.111,1.418 7.556,2.161 l 0,0 c 0.59,0.183 1.233,0.382 1.961,0.609 l 0,0 c 0.737,0.231 1.389,0.432 1.983,0.621 l 0,0 c 1.702,0.542 3.534,1.152 5.421,1.801 l 0,0 c 0.432,0.153 0.899,0.32 1.402,0.503 l 0,0 c 0.243,0.082 0.472,0.159 0.696,0.234 l 0,0 c 2.661,0.938 5.232,1.886 7.713,2.841 l 0,0 c 0.067,0.027 0.126,0.049 0.195,0.075 l 0,0 c 3.519,1.359 4.868,1.889 8.204,3.339 l 0,0 c 0.526,0.219 1.013,0.42 1.457,0.606 l 0,0 c 1.91,0.824 3.747,1.636 5.505,2.441 l 0,0 c 0.35,0.163 0.713,0.329 1.112,0.518 l 0,0 5.756,2.747 c 35.65,17.66 67.895,43.967 95.911,78.172 l 0,0 c 1.423,1.796 2.792,3.563 4.102,5.287 l 0,0 c 0.27,0.356 0.551,0.717 0.813,1.069 l 0,0 2.132,2.89 c 2.231,3.234 4.058,5.916 5.665,8.324 l 0,0 c 1.707,2.616 3.408,5.307 5.02,7.909 l 0,0 c 0.588,0.947 1.161,1.874 1.718,2.787 l 0,0 c 2.773,4.726 5.649,10.054 10.333,18.74 l 0,0 c 4.372,8.801 7.876,17.13 10.807,24.949 l 0,0 c 4.123,10.993 7.1,20.951 9.69,29.687 l 0,0 c 0.107,0.411 0.213,0.819 0.319,1.23 l 0,0 c 1.382,5.336 2.613,10.627 3.484,15.28 l 0,0 c 0.236,1.263 0.474,2.598 0.709,3.941 l 0,0 c 0.571,3.331 1.068,6.629 1.501,9.871 l 0,0 c 1.617,12.111 2.368,23.339 2.877,31.942 l 0,0 c 0.003,0.17 0.006,0.34 0.007,0.514 l 0,0 c -1.574,-25.354 -9.756,-50.561 -22.53,-74.817"
         id="path112" /></clipPath><linearGradient
       x1="0"
       y1="0"
       x2="1"
       y2="0"
       id="linearGradient118"
       gradientUnits="userSpaceOnUse"
       gradientTransform="matrix(-266.69086,-245.6364,-245.6364,266.69086,746.76904,390.00928)"
       spreadMethod="pad"><stop
         id="stop120"
         style="stop-color:#85f0f4;stop-opacity:1"
         offset="0" /><stop
         id="stop122"
         style="stop-color:#1fd1e5;stop-opacity:1"
         offset="0.13938899" /><stop
         id="stop124"
         style="stop-color:#1fd1e5;stop-opacity:1"
         offset="0.13938899" /><stop
         id="stop126"
         style="stop-color:#0066b3;stop-opacity:1"
         offset="1" /></linearGradient><clipPath
       id="clipPath134"><path
         d="m 705.179,351.613 c -12.505,-23.739 -29.385,-46.572 -48.755,-67.734 l 0,0 C 632.47,257.707 604.735,234.094 576.822,214.463 l 0,0 c -15.917,-11.195 -31.883,-21.089 -47.24,-29.428 l 0,0 c 0.157,0.186 0.301,0.357 0.472,0.551 l 0,0 c -31.311,-17.081 -63.895,-25.889 -95.722,-26.922 l 0,0 c 2.181,-1.247 4.305,-2.427 8.671,-2.879 l 0,0 c 1.45,-0.052 2.896,-0.091 4.329,-0.123 l 0,0 c -0.237,-0.013 -0.484,-0.037 -0.719,-0.053 l 0,0 c 0.34,-0.011 0.68,-0.02 1.008,-0.035 l 0,0 c 2.21,-0.006 4.642,0.024 7.087,0.075 l 0,0 c 2.334,0.02 4.659,0.055 6.784,0.121 l 0,0 c 0.358,0.015 0.709,0.029 1.074,0.044 l 0,0 c 0.199,0.006 0.408,0.012 0.601,0.014 l 0,0 c 4.026,0.182 9.224,0.583 13.519,0.956 l 0,0 c 0.173,0.02 0.35,0.036 0.526,0.059 l 0,0 c 0.836,0.063 1.594,0.134 2.317,0.201 l 0,0 c 3.19,0.338 6.718,0.792 9.555,1.174 l 0,0 c 0.493,0.073 1.02,0.146 1.568,0.225 l 0,0 c 0.133,0.02 0.266,0.038 0.401,0.06 l 0,0 c 0.035,0.005 0.062,0.011 0.098,0.014 l 0,0 c 3.034,0.453 6.469,1.014 10.153,1.695 l 0,0 c 0.402,0.08 0.824,0.164 1.268,0.253 l 0,0 c 0.352,0.065 0.686,0.121 1.007,0.18 l 0,0 c 2.531,0.492 4.998,0.998 7.234,1.497 l 0,0 c 0.866,0.199 1.813,0.419 2.934,0.678 l 0,0 c 0.113,0.028 0.213,0.049 0.326,0.075 l 0,0 c 0.989,0.251 2.046,0.52 3.127,0.797 l 0,0 c 2.797,0.711 4.845,1.232 6.46,1.651 l 0,0 c 2.623,0.712 5.111,1.418 7.556,2.16 l 0,0 c 0.59,0.183 1.233,0.383 1.961,0.611 l 0,0 c 0.737,0.23 1.389,0.431 1.983,0.621 l 0,0 c 1.702,0.541 3.534,1.152 5.421,1.799 l 0,0 c 0.432,0.154 0.899,0.32 1.402,0.504 l 0,0 c 0.243,0.082 0.472,0.159 0.696,0.235 l 0,0 c 2.661,0.937 5.232,1.885 7.713,2.84 l 0,0 c 0.067,0.026 0.126,0.049 0.195,0.076 l 0,0 c 3.519,1.358 4.868,1.888 8.204,3.339 l 0,0 c 0.526,0.218 1.013,0.419 1.457,0.604 l 0,0 c 1.91,0.825 3.747,1.638 5.505,2.442 l 0,0 c 0.35,0.163 0.713,0.33 1.112,0.519 l 0,0 5.756,2.746 c 35.65,17.66 67.895,43.966 95.911,78.173 l 0,0 c 1.423,1.794 2.792,3.561 4.102,5.286 l 0,0 c 0.27,0.356 0.551,0.718 0.813,1.069 l 0,0 2.132,2.889 c 2.231,3.235 4.058,5.917 5.665,8.325 l 0,0 c 1.707,2.615 3.408,5.308 5.02,7.909 l 0,0 c 0.588,0.947 1.161,1.874 1.718,2.786 l 0,0 c 2.773,4.727 5.649,10.055 10.333,18.742 l 0,0 c 4.372,8.799 7.876,17.129 10.807,24.949 l 0,0 c 4.123,10.992 7.1,20.95 9.69,29.686 l 0,0 c 0.107,0.411 0.213,0.819 0.319,1.23 l 0,0 c 1.382,5.336 2.613,10.628 3.484,15.28 l 0,0 c 0.236,1.262 0.474,2.598 0.709,3.941 l 0,0 c 0.571,3.331 1.068,6.629 1.501,9.871 l 0,0 c 1.617,12.111 2.368,23.339 2.877,31.942 l 0,0 c 0.003,0.169 0.006,0.34 0.007,0.514 l 0,0 c -1.574,-25.354 -9.756,-50.561 -22.53,-74.818"
         id="path136" /></clipPath><linearGradient
       x1="0"
       y1="0"
       x2="1"
       y2="0"
       id="linearGradient142"
       gradientUnits="userSpaceOnUse"
       gradientTransform="matrix(-265.78418,-244.8013,-244.8013,265.78418,746.79932,388.03711)"
       spreadMethod="pad"><stop
         id="stop144"
         style="stop-color:#24e4eb;stop-opacity:1"
         offset="0" /><stop
         id="stop146"
         style="stop-color:#1fd1e5;stop-opacity:1"
         offset="0.13938899" /><stop
         id="stop148"
         style="stop-color:#1fd1e5;stop-opacity:1"
         offset="0.13938899" /><stop
         id="stop150"
         style="stop-color:#0066b3;stop-opacity:1"
         offset="0.65454102" /><stop
         id="stop152"
         style="stop-color:#00214d;stop-opacity:1"
         offset="1" /></linearGradient><clipPath
       id="clipPath160"><path
         d="m 607.126,666.61 c 4.194,-3.064 9.05,-6.853 12.54,-10.133 l 0,0 c 14.392,-13.517 23.815,-28.681 28.995,-45.013 l 0,0 c 6.9,-21.759 6.254,-45.596 -0.279,-70.41 l 0,0 c -8.122,-30.833 -25.328,-63.167 -48.431,-94.881 l 0,0 c -22.661,-31.106 -50.987,-61.61 -81.977,-89.511 l 0,0 C 440.141,286.592 345.542,232.96 281.909,227.558 l 0,0 c -13.288,0.192 -16.169,1.284 -21.415,4.602 l 0,0 c 1.13,-1.023 2.261,-2.043 3.392,-3.061 l 0,0 c 0.226,-0.199 0.452,-0.405 0.678,-0.609 l 0,0 c 3.057,-2.585 6.322,-5.286 9.634,-7.968 l 0,0 c 4.69,-3.794 9.403,-7.502 13.61,-10.735 l 0,0 c 0.374,-0.286 0.77,-0.593 1.136,-0.876 l 0,0 c 2.582,-1.771 4.829,-3.301 6.874,-4.667 l 0,0 c 2.566,-1.614 5.314,-3.32 8.194,-5.07 l 0,0 c 3.112,-1.889 6.349,-3.807 9.612,-5.677 l 0,0 c 4.077,-2.199 8.976,-4.734 15.661,-8.186 l 0,0 c 0.668,-0.345 1.352,-0.697 2.055,-1.059 l 0,0 c 1.048,-0.472 2.142,-0.955 3.268,-1.444 l 0,0 c 2.995,-1.302 6.251,-2.652 9.522,-3.977 l 0,0 c 2.633,-1.067 5.255,-2.112 7.766,-3.104 l 0,0 c 1.554,-0.604 3.086,-1.192 4.563,-1.744 l 0,0 c 0.362,-0.137 0.706,-0.264 1.062,-0.398 l 0,0 0.768,-0.197 c 0.599,-0.248 1.209,-0.504 1.806,-0.753 l 0,0 c 34.022,-4.808 116.872,32.275 193.572,90.877 l 0,0 c 28.032,21.415 55.239,45.695 78.941,71.865 l 0,0 c 20.239,22.342 37.914,46.058 51.373,70.522 l 0,0 c 15.263,27.742 25.097,56.45 27.058,85.224 l 0,0 c 1.482,21.753 -1.527,43.541 -10.09,64.978 l 0,0 -0.206,0.433 c -3.098,6.377 -7.375,14.439 -11.168,21.088 l 0,0 c -0.93,1.525 -1.952,3.154 -3.095,4.956 l 0,0 c -2.712,4.261 -6.155,9.509 -10.945,16.814 l 0,0 c -0.002,0.007 -0.006,0.012 -0.011,0.019 l 0,0 c -2.985,4.096 -5.268,7.198 -7.404,9.958 l 0,0 c -2.195,2.749 -4.449,5.463 -6.581,7.981 l 0,0 c -0.978,1.116 -2.019,2.279 -3.168,3.542 l 0,0 c -3.462,3.8 -7.874,8.478 -14.257,15.234 l 0,0 c -0.114,0.123 -0.221,0.235 -0.338,0.358 l 0,0 c -3.619,3.471 -6.435,6.136 -9.026,8.483 l 0,0 c -3.031,2.64 -6.149,5.241 -8.984,7.611 l 0,0 c -0.34,0.27 -0.685,0.544 -1.04,0.82 l 0,0 c -4.168,3.267 -9.35,7.124 -17.167,12.921 l 0,0 c -0.435,0.324 -0.87,0.647 -1.323,0.981 l 0,0 -1.225,0.835 c 0.676,-0.479 1.386,-0.995 2.115,-1.525"
         id="path162" /></clipPath><linearGradient
       x1="0"
       y1="0"
       x2="1"
       y2="0"
       id="linearGradient168"
       gradientUnits="userSpaceOnUse"
       gradientTransform="matrix(-469.32767,-416.66696,-416.66696,469.32767,697.98975,569.97559)"
       spreadMethod="pad"><stop
         id="stop170"
         style="stop-color:#85f0f4;stop-opacity:1"
         offset="0" /><stop
         id="stop172"
         style="stop-color:#1fd1e5;stop-opacity:1"
         offset="0.13938899" /><stop
         id="stop174"
         style="stop-color:#1fd1e5;stop-opacity:1"
         offset="0.13938899" /><stop
         id="stop176"
         style="stop-color:#0066b3;stop-opacity:1"
         offset="1" /></linearGradient><clipPath
       id="clipPath184"><path
         d="m 607.126,664.609 c 4.194,-3.063 9.05,-6.853 12.54,-10.132 l 0,0 c 14.392,-13.517 23.815,-28.681 28.995,-45.013 l 0,0 c 6.9,-21.759 6.254,-45.596 -0.279,-70.41 l 0,0 c -8.122,-30.833 -25.328,-63.168 -48.431,-94.882 l 0,0 c -22.661,-31.104 -50.987,-61.61 -81.977,-89.51 l 0,0 C 440.141,284.593 345.542,230.96 281.909,225.558 l 0,0 c -13.288,0.192 -16.169,1.283 -21.415,4.603 l 0,0 c 1.13,-1.025 2.261,-2.043 3.392,-3.062 l 0,0 c 0.226,-0.2 0.452,-0.405 0.678,-0.609 l 0,0 c 3.057,-2.584 6.322,-5.286 9.634,-7.967 l 0,0 c 4.69,-3.795 9.403,-7.503 13.61,-10.736 l 0,0 c 0.374,-0.286 0.77,-0.593 1.136,-0.876 l 0,0 c 2.582,-1.77 4.829,-3.3 6.874,-4.667 l 0,0 c 2.566,-1.614 5.314,-3.321 8.194,-5.069 l 0,0 c 3.112,-1.891 6.349,-3.808 9.612,-5.678 l 0,0 c 4.077,-2.199 8.976,-4.733 15.661,-8.187 l 0,0 c 0.668,-0.345 1.352,-0.695 2.055,-1.058 l 0,0 c 1.048,-0.472 2.142,-0.955 3.268,-1.445 l 0,0 c 2.995,-1.301 6.251,-2.652 9.522,-3.976 l 0,0 c 2.633,-1.066 5.255,-2.111 7.766,-3.104 l 0,0 c 1.554,-0.604 3.086,-1.192 4.563,-1.744 l 0,0 c 0.362,-0.137 0.706,-0.264 1.062,-0.398 l 0,0 0.768,-0.197 c 0.599,-0.248 1.209,-0.504 1.806,-0.753 l 0,0 c 34.022,-4.808 116.872,32.275 193.572,90.877 l 0,0 c 28.032,21.416 55.239,45.695 78.941,71.865 l 0,0 c 20.239,22.343 37.914,46.058 51.373,70.522 l 0,0 c 15.263,27.742 25.097,56.449 27.058,85.224 l 0,0 c 1.482,21.753 -1.527,43.541 -10.09,64.978 l 0,0 -0.206,0.433 c -3.098,6.377 -7.375,14.438 -11.168,21.088 l 0,0 c -0.93,1.525 -1.952,3.154 -3.095,4.956 l 0,0 c -2.712,4.261 -6.155,9.51 -10.945,16.814 l 0,0 c -0.002,0.007 -0.006,0.013 -0.011,0.019 l 0,0 c -2.985,4.096 -5.268,7.198 -7.404,9.959 l 0,0 c -2.195,2.748 -4.449,5.462 -6.581,7.981 l 0,0 c -0.978,1.114 -2.019,2.278 -3.168,3.54 l 0,0 c -3.462,3.8 -7.874,8.479 -14.257,15.235 l 0,0 c -0.114,0.123 -0.221,0.235 -0.338,0.359 l 0,0 c -3.619,3.469 -6.435,6.135 -9.026,8.482 l 0,0 c -3.031,2.639 -6.149,5.241 -8.984,7.611 l 0,0 c -0.34,0.271 -0.685,0.543 -1.04,0.819 l 0,0 c -4.168,3.268 -9.35,7.125 -17.167,12.923 l 0,0 c -0.435,0.323 -0.87,0.645 -1.323,0.981 l 0,0 -1.225,0.834 c 0.676,-0.48 1.386,-0.994 2.115,-1.526"
         id="path186" /></clipPath><linearGradient
       x1="0"
       y1="0"
       x2="1"
       y2="0"
       id="linearGradient192"
       gradientUnits="userSpaceOnUse"
       gradientTransform="matrix(-408.46811,-412.66476,-412.66476,408.46811,711.16455,592.71045)"
       spreadMethod="pad"><stop
         id="stop194"
         style="stop-color:#24e4eb;stop-opacity:1"
         offset="0" /><stop
         id="stop196"
         style="stop-color:#1fd1e5;stop-opacity:1"
         offset="0.13938899" /><stop
         id="stop198"
         style="stop-color:#1fd1e5;stop-opacity:1"
         offset="0.13938899" /><stop
         id="stop200"
         style="stop-color:#0066b3;stop-opacity:1"
         offset="0.65454102" /><stop
         id="stop202"
         style="stop-color:#00214d;stop-opacity:1"
         offset="1" /></linearGradient><clipPath
       id="clipPath210"><path
         d="m 232.976,610.05 c -1.866,-2.373 -3.703,-4.743 -5.426,-6.991 l 0,0 c -1.494,-2.035 -2.985,-4.096 -4.402,-6.094 l 0,0 c -0.504,-0.711 -0.995,-1.404 -1.476,-2.094 l 0,0 c -3.854,-5.66 -6.397,-9.601 -8.99,-14.005 l 0,0 c -2.432,-4.132 -4.924,-8.693 -8.623,-15.55 l 0,0 c -0.587,-1.086 -1.204,-2.227 -1.856,-3.438 l 0,0 c -1.629,-3.323 -2.908,-5.954 -4.019,-8.329 l 0,0 c -1.28,-2.793 -2.541,-5.688 -3.782,-8.681 l 0,0 c -0.304,-0.759 -0.614,-1.542 -0.934,-2.371 l 0,0 c -1.793,-4.627 -3.931,-10.558 -7.381,-20.137 l 0,0 c -3.274,-15.069 13.513,-17.903 49.896,-8.425 l 0,0 c 44.363,11.668 76.277,26.691 79.691,66.931 l 0,0 c 0.931,10.972 0.167,44.235 -26.963,33.496 l 0,0 c -7.686,-3.393 -21.992,-9.708 -35.639,-11.456 l 0,0 c -8.473,-1.084 -26.59,-1.569 -11.889,17.321 l 0,0 c -2.513,-3.012 -5.378,-6.581 -8.207,-10.177"
         id="path212" /></clipPath><linearGradient
       x1="0"
       y1="0"
       x2="1"
       y2="0"
       id="linearGradient218"
       gradientUnits="userSpaceOnUse"
       gradientTransform="matrix(-159.4492,-154.41408,-154.41408,159.4492,349.1123,658.31152)"
       spreadMethod="pad"><stop
         id="stop220"
         style="stop-color:#85f0f4;stop-opacity:1"
         offset="0" /><stop
         id="stop222"
         style="stop-color:#1fd1e5;stop-opacity:1"
         offset="0.13938899" /><stop
         id="stop224"
         style="stop-color:#1fd1e5;stop-opacity:1"
         offset="0.13938899" /><stop
         id="stop226"
         style="stop-color:#0066b3;stop-opacity:1"
         offset="1" /></linearGradient><clipPath
       id="clipPath234"><path
         d="m 230.976,609.049 c -1.866,-2.372 -3.704,-4.742 -5.426,-6.989 l 0,0 c -1.494,-2.036 -2.985,-4.097 -4.403,-6.094 l 0,0 c -0.504,-0.711 -0.993,-1.405 -1.476,-2.095 l 0,0 c -3.853,-5.66 -6.396,-9.601 -8.989,-14.005 l 0,0 c -2.432,-4.132 -4.924,-8.694 -8.623,-15.55 l 0,0 c -0.588,-1.086 -1.203,-2.227 -1.856,-3.438 l 0,0 c -1.63,-3.323 -2.908,-5.954 -4.018,-8.328 l 0,0 c -1.281,-2.794 -2.542,-5.689 -3.783,-8.682 l 0,0 c -0.305,-0.759 -0.615,-1.542 -0.934,-2.37 l 0,0 c -1.793,-4.628 -3.931,-10.559 -7.381,-20.138 l 0,0 c -3.273,-15.069 13.513,-17.903 49.896,-8.425 l 0,0 c 44.364,11.668 76.278,26.691 79.691,66.931 l 0,0 c 0.931,10.972 0.168,44.235 -26.963,33.497 l 0,0 c -7.686,-3.393 -21.992,-9.709 -35.639,-11.457 l 0,0 c -8.472,-1.084 -26.59,-1.57 -11.889,17.32 l 0,0 c -2.513,-3.011 -5.377,-6.58 -8.207,-10.177"
         id="path236" /></clipPath><linearGradient
       x1="0"
       y1="0"
       x2="1"
       y2="0"
       id="linearGradient242"
       gradientUnits="userSpaceOnUse"
       gradientTransform="matrix(-254.74615,-312.02496,-312.02496,254.74615,399.44092,741.45068)"
       spreadMethod="pad"><stop
         id="stop244"
         style="stop-color:#24e4eb;stop-opacity:1"
         offset="0" /><stop
         id="stop246"
         style="stop-color:#1fd1e5;stop-opacity:1"
         offset="0.13938899" /><stop
         id="stop248"
         style="stop-color:#1fd1e5;stop-opacity:1"
         offset="0.13938899" /><stop
         id="stop250"
         style="stop-color:#0066b3;stop-opacity:1"
         offset="0.65454102" /><stop
         id="stop252"
         style="stop-color:#00214d;stop-opacity:1"
         offset="1" /></linearGradient><clipPath
       id="clipPath260"><path
         d="m 435.349,716.067 c -0.015,-0.002 -0.03,-0.002 -0.047,-0.004 l 0,0 c -0.323,-0.014 -0.628,-0.031 -0.94,-0.045 l 0,0 c -0.61,-0.031 -1.19,-0.061 -1.742,-0.089 l 0,0 c -1.713,-0.092 -3.618,-0.203 -5.544,-0.339 l 0,0 c -3.684,-0.275 -7.115,-0.662 -13.763,-1.476 l 0,0 c -1.357,-0.151 -2.684,-0.301 -3.931,-0.447 l 0,0 c -0.6,-0.086 -1.23,-0.176 -1.912,-0.274 l 0,0 c -0.063,-0.01 -0.118,-0.019 -0.184,-0.031 l 0,0 c -0.081,-0.01 -0.156,-0.021 -0.239,-0.032 l 0,0 c -4.704,-0.7 -6.927,-1.057 -11.096,-1.902 l 0,0 c -0.148,-0.027 -0.295,-0.052 -0.439,-0.078 l 0,0 c -3.104,-0.64 -6.974,-1.407 -9.944,-2.091 l 0,0 c -0.059,-0.013 -0.121,-0.027 -0.182,-0.041 l 0,0 c -0.149,-0.035 -0.323,-0.077 -0.478,-0.113 l 0,0 c -0.048,-0.011 -0.089,-0.019 -0.137,-0.03 l 0,0 c -1.849,-0.433 -3.203,-0.752 -4.46,-1.064 l 0,0 c -1.208,-0.31 -2.53,-0.661 -4.234,-1.12 l 0,0 c -0.37,-0.102 -0.765,-0.215 -1.181,-0.333 l 0,0 c -0.566,-0.147 -1.086,-0.285 -1.565,-0.414 l 0,0 c -2.171,-0.606 -5.049,-1.449 -8.098,-2.397 l 0,0 c -0.031,-0.012 -0.057,-0.02 -0.089,-0.03 l 0,0 c -2.191,-0.684 -4.402,-1.398 -6.432,-2.087 l 0,0 c -0.648,-0.226 -1.355,-0.479 -2.159,-0.768 l 0,0 c -0.265,-0.088 -0.517,-0.174 -0.758,-0.256 l 0,0 c -3.131,-1.122 -5.763,-2.098 -7.949,-2.932 l 0,0 c -0.037,-0.017 -0.071,-0.031 -0.107,-0.046 l 0,0 c -0.095,-0.034 -0.191,-0.071 -0.283,-0.108 l 0,0 c -3.328,-1.301 -4.752,-1.864 -7.616,-3.108 l 0,0 c -0.24,-0.097 -0.472,-0.193 -0.692,-0.285 l 0,0 c -2.339,-1.032 -5.245,-2.285 -7.465,-3.313 l 0,0 c -0.005,-0.002 -0.008,-0.004 -0.013,-0.006 l 0,0 c -0.008,-0.003 -0.015,-0.004 -0.02,-0.009 l 0,0 c -0.461,-0.211 -0.967,-0.453 -1.471,-0.692 l 0,0 c -0.891,-0.422 -1.762,-0.842 -2.619,-1.261 l 0,0 c -0.344,-0.167 -0.679,-0.331 -1.018,-0.498 l 0,0 c -19.627,-9.77 -30.275,-19.439 -32.163,-24.978 l 0,0 c -0.818,-2.397 -0.152,-4.297 1.828,-5.508 l 0,0 c 5.443,-3.326 20.886,-1.408 43.334,9.994 l 0,0 c -0.687,2.429 -0.171,4.976 1.336,7.527 l 0,0 c 9.651,16.363 60.089,32.989 96.775,21.084 l 0,0 c 3.964,-1.288 7.774,-2.9 11.347,-4.889 l 0,0 c 20.089,-11.184 26.935,-29.148 23.89,-50.699 l 0,0 c -3.881,-27.456 -23.847,-60.738 -53.069,-93.302 l 0,0 C 368.522,490.411 288.736,435.485 217.436,418.298 l 0,0 c -42.671,-8.364 -45.449,3.389 -46.635,8.411 l 0,0 c 0.266,-6.09 0.689,-11.878 1.238,-17.416 l 0,0 c 0.088,-0.849 0.175,-1.694 0.27,-2.567 l 0,0 c 0.018,-0.164 0.035,-0.326 0.054,-0.49 l 0,0 c 0.137,-1.239 0.283,-2.498 0.441,-3.788 l 0,0 c 1.38,-11.232 4.249,-25.557 7.383,-37.388 l 0,0 c 0.94,-3.399 1.924,-6.679 2.943,-9.862 l 0,0 c 0.097,-0.302 0.195,-0.605 0.293,-0.906 l 0,0 c 1.47,-4.539 3.007,-8.878 4.582,-13.059 l 0,0 c 3.198,-8.483 6.543,-16.322 9.768,-23.875 l 0,0 1.851,-3.82 c 6.54,-8.896 20.558,-7.552 35.4,-6.124 l 0,0 c -0.437,1.201 -0.849,2.414 -1.269,3.621 l 0,0 c 0.422,-1.164 0.847,-2.361 1.269,-3.621 l 0,0 c 74.299,12.341 162.014,77.625 216.586,123.969 l 0,0 c 5.976,5.076 11.711,10.151 17.258,15.218 l 0,0 c 42.475,38.805 72.322,77.175 89.427,112.285 l 0,0 c 14.037,28.813 19.495,55.424 16.311,78.279 l 0,0 c -3.201,22.974 -15.13,42.142 -35.858,55.922 l 0,0 c -18.349,12.201 -43.569,20.186 -75.747,22.83 l 0,0 c -0.307,0.016 -0.615,0.03 -0.923,0.046 l 0,0 c 0.148,-0.005 0.306,-0.008 0.457,-0.011 l 0,0 c -0.175,0.004 -0.361,0.009 -0.536,0.014 l 0,0 c -0.01,0 -0.016,10e-4 -0.026,10e-4 l 0,0 c -3.942,0.115 -8.441,0.176 -12.963,0.192 l 0,0 c -1.245,0.007 -2.491,0.011 -3.724,0.011 l 0,0 c -3.502,0 -6.906,-0.031 -9.937,-0.103 m 27.323,-0.118 c -0.045,0.001 -0.09,0.002 -0.137,0.003 l 0,0 c 0.047,-10e-4 0.092,-0.002 0.137,-0.003"
         id="path262" /></clipPath><linearGradient
       x1="0"
       y1="0"
       x2="1"
       y2="0"
       id="linearGradient268"
       gradientUnits="userSpaceOnUse"
       gradientTransform="matrix(-366.50262,-358.1095,-358.1095,366.50262,533.61572,704.2998)"
       spreadMethod="pad"><stop
         id="stop270"
         style="stop-color:#85f0f4;stop-opacity:1"
         offset="0" /><stop
         id="stop272"
         style="stop-color:#1fd1e5;stop-opacity:1"
         offset="0.13938899" /><stop
         id="stop274"
         style="stop-color:#1fd1e5;stop-opacity:1"
         offset="0.13938899" /><stop
         id="stop276"
         style="stop-color:#0066b3;stop-opacity:1"
         offset="1" /></linearGradient><clipPath
       id="clipPath284"><path
         d="m 435.349,714.067 c -0.015,-0.002 -0.03,-0.002 -0.047,-0.003 l 0,0 c -0.323,-0.015 -0.628,-0.032 -0.94,-0.046 l 0,0 c -0.61,-0.031 -1.19,-0.061 -1.742,-0.088 l 0,0 c -1.713,-0.092 -3.618,-0.205 -5.544,-0.34 l 0,0 c -3.684,-0.275 -7.115,-0.661 -13.763,-1.476 l 0,0 c -1.357,-0.152 -2.684,-0.301 -3.931,-0.447 l 0,0 c -0.6,-0.086 -1.23,-0.176 -1.912,-0.274 l 0,0 c -0.063,-0.01 -0.118,-0.019 -0.184,-0.031 l 0,0 c -0.081,-0.01 -0.156,-0.021 -0.239,-0.032 l 0,0 c -4.704,-0.7 -6.927,-1.056 -11.096,-1.901 l 0,0 c -0.148,-0.027 -0.295,-0.053 -0.439,-0.079 l 0,0 c -3.104,-0.641 -6.974,-1.407 -9.944,-2.09 l 0,0 c -0.059,-0.015 -0.121,-0.028 -0.182,-0.042 l 0,0 c -0.149,-0.036 -0.323,-0.077 -0.478,-0.113 l 0,0 c -0.048,-0.011 -0.089,-0.02 -0.137,-0.03 l 0,0 c -1.849,-0.433 -3.203,-0.753 -4.46,-1.064 l 0,0 c -1.208,-0.309 -2.53,-0.66 -4.234,-1.12 l 0,0 c -0.37,-0.103 -0.765,-0.214 -1.181,-0.332 l 0,0 c -0.566,-0.149 -1.086,-0.286 -1.565,-0.414 l 0,0 c -2.171,-0.608 -5.049,-1.451 -8.098,-2.399 l 0,0 c -0.031,-0.011 -0.057,-0.019 -0.089,-0.03 l 0,0 c -2.191,-0.683 -4.402,-1.396 -6.432,-2.086 l 0,0 c -0.648,-0.226 -1.355,-0.479 -2.159,-0.767 l 0,0 c -0.265,-0.09 -0.517,-0.176 -0.758,-0.258 l 0,0 c -3.131,-1.121 -5.763,-2.097 -7.949,-2.932 l 0,0 c -0.037,-0.015 -0.071,-0.03 -0.107,-0.045 l 0,0 c -0.095,-0.035 -0.191,-0.071 -0.283,-0.108 l 0,0 c -3.328,-1.301 -4.752,-1.864 -7.616,-3.108 l 0,0 c -0.24,-0.097 -0.472,-0.193 -0.692,-0.285 l 0,0 c -2.339,-1.031 -5.245,-2.285 -7.465,-3.313 l 0,0 c -0.005,-0.002 -0.008,-0.004 -0.013,-0.005 l 0,0 c -0.008,-0.004 -0.015,-0.006 -0.02,-0.009 l 0,0 c -0.461,-0.212 -0.967,-0.454 -1.471,-0.693 l 0,0 c -0.891,-0.422 -1.762,-0.843 -2.619,-1.262 l 0,0 c -0.344,-0.167 -0.679,-0.329 -1.018,-0.497 l 0,0 c -19.627,-9.77 -30.275,-19.439 -32.163,-24.978 l 0,0 c -0.818,-2.398 -0.152,-4.297 1.828,-5.508 l 0,0 c 5.443,-3.326 20.886,-1.408 43.334,9.993 l 0,0 c -0.687,2.43 -0.171,4.976 1.336,7.529 l 0,0 c 9.651,16.362 60.089,32.988 96.775,21.083 l 0,0 c 3.964,-1.288 7.774,-2.9 11.347,-4.89 l 0,0 c 20.089,-11.183 26.935,-29.147 23.89,-50.698 l 0,0 c -3.881,-27.456 -23.847,-60.738 -53.069,-93.302 l 0,0 C 368.522,488.411 288.736,433.485 217.436,416.299 l 0,0 c -42.671,-8.365 -45.449,3.387 -46.635,8.41 l 0,0 c 0.266,-6.091 0.689,-11.878 1.238,-17.416 l 0,0 c 0.088,-0.849 0.175,-1.694 0.27,-2.567 l 0,0 c 0.018,-0.163 0.035,-0.326 0.054,-0.491 l 0,0 c 0.137,-1.238 0.283,-2.497 0.441,-3.787 l 0,0 c 1.38,-11.231 4.249,-25.557 7.383,-37.388 l 0,0 c 0.94,-3.399 1.924,-6.679 2.943,-9.863 l 0,0 c 0.097,-0.301 0.195,-0.604 0.293,-0.905 l 0,0 c 1.47,-4.538 3.007,-8.878 4.582,-13.059 l 0,0 c 3.198,-8.483 6.543,-16.322 9.768,-23.875 l 0,0 1.851,-3.82 c 6.54,-8.897 20.558,-7.551 35.4,-6.124 l 0,0 c -0.437,1.201 -0.849,2.414 -1.269,3.621 l 0,0 c 0.422,-1.164 0.847,-2.361 1.269,-3.621 l 0,0 c 74.299,12.341 162.014,77.625 216.586,123.97 l 0,0 c 5.976,5.075 11.711,10.15 17.258,15.217 l 0,0 c 42.475,38.805 72.322,77.174 89.427,112.284 l 0,0 c 14.037,28.814 19.495,55.425 16.311,78.28 l 0,0 c -3.201,22.974 -15.13,42.143 -35.858,55.922 l 0,0 c -18.349,12.201 -43.569,20.187 -75.747,22.83 l 0,0 c -0.307,0.015 -0.615,0.031 -0.923,0.046 l 0,0 c 0.139,-0.004 0.288,-0.007 0.432,-0.01 l 0,0 c -0.168,0.004 -0.345,0.008 -0.511,0.013 l 0,0 c -0.01,0 -0.016,0 -0.026,0 l 0,0 c -3.942,0.116 -8.441,0.178 -12.963,0.193 l 0,0 c -1.245,0.007 -2.491,0.011 -3.724,0.011 l 0,0 c -3.502,0 -6.906,-0.031 -9.937,-0.103 m 27.323,-0.119 c -0.053,0.002 -0.107,0.003 -0.162,0.005 l 0,0 c 0.055,-0.002 0.109,-0.003 0.162,-0.005"
         id="path286" /></clipPath><linearGradient
       x1="0"
       y1="0"
       x2="1"
       y2="0"
       id="linearGradient292"
       gradientUnits="userSpaceOnUse"
       gradientTransform="matrix(-366.50262,-358.1095,-358.1095,366.50262,533.61572,702.2998)"
       spreadMethod="pad"><stop
         id="stop294"
         style="stop-color:#24e4eb;stop-opacity:1"
         offset="0" /><stop
         id="stop296"
         style="stop-color:#1fd1e5;stop-opacity:1"
         offset="0.13938899" /><stop
         id="stop298"
         style="stop-color:#1fd1e5;stop-opacity:1"
         offset="0.13938899" /><stop
         id="stop300"
         style="stop-color:#0066b3;stop-opacity:1"
         offset="0.65454102" /><stop
         id="stop302"
         style="stop-color:#00214d;stop-opacity:1"
         offset="1" /></linearGradient><linearGradient
       x1="0"
       y1="0"
       x2="1"
       y2="0"
       id="linearGradient3471"
       xlink:href="#linearGradient118"
       gradientUnits="userSpaceOnUse"
       gradientTransform="matrix(-266.69086,-245.6364,-245.6364,266.69086,746.76904,390.00928)"
       spreadMethod="pad" /><linearGradient
       x1="0"
       y1="0"
       x2="1"
       y2="0"
       id="linearGradient3473"
       xlink:href="#linearGradient142"
       gradientUnits="userSpaceOnUse"
       gradientTransform="matrix(-265.78418,-244.8013,-244.8013,265.78418,746.79932,388.03711)"
       spreadMethod="pad" /><linearGradient
       x1="0"
       y1="0"
       x2="1"
       y2="0"
       id="linearGradient3475"
       xlink:href="#linearGradient168"
       gradientUnits="userSpaceOnUse"
       gradientTransform="matrix(-469.32767,-416.66696,-416.66696,469.32767,697.98975,569.97559)"
       spreadMethod="pad" /><linearGradient
       x1="0"
       y1="0"
       x2="1"
       y2="0"
       id="linearGradient3477"
       xlink:href="#linearGradient192"
       gradientUnits="userSpaceOnUse"
       gradientTransform="matrix(-408.46811,-412.66476,-412.66476,408.46811,711.16455,592.71045)"
       spreadMethod="pad" /><linearGradient
       x1="0"
       y1="0"
       x2="1"
       y2="0"
       id="linearGradient3479"
       xlink:href="#linearGradient218"
       gradientUnits="userSpaceOnUse"
       gradientTransform="matrix(-159.4492,-154.41408,-154.41408,159.4492,349.1123,658.31152)"
       spreadMethod="pad" /><linearGradient
       x1="0"
       y1="0"
       x2="1"
       y2="0"
       id="linearGradient3481"
       xlink:href="#linearGradient242"
       gradientUnits="userSpaceOnUse"
       gradientTransform="matrix(-254.74615,-312.02496,-312.02496,254.74615,399.44092,741.45068)"
       spreadMethod="pad" /><linearGradient
       x1="0"
       y1="0"
       x2="1"
       y2="0"
       id="linearGradient3483"
       xlink:href="#linearGradient268"
       gradientUnits="userSpaceOnUse"
       gradientTransform="matrix(-366.50262,-358.1095,-358.1095,366.50262,533.61572,704.2998)"
       spreadMethod="pad" /><linearGradient
       x1="0"
       y1="0"
       x2="1"
       y2="0"
       id="linearGradient3485"
       xlink:href="#linearGradient292"
       gradientUnits="userSpaceOnUse"
       gradientTransform="matrix(-366.50262,-358.1095,-358.1095,366.50262,533.61572,702.2998)"
       spreadMethod="pad" /></defs><g
     transform="matrix(1.25,0,0,-1.25,0,819.99997)"
     id="g10"><g
       transform="matrix(-1.070584,0,0,1.070584,2600.6,-142.42815)"
       id="g3385"><g
         id="g14"><g
           clip-path="url(#clipPath18)"
           id="g16"><g
             transform="translate(281.9087,225.5576)"
             id="g22"><path
               d="M 0,0 C 63.634,5.402 158.232,59.035 236.065,129.104 219.69,128.048 202.219,125.809 183.823,122.256 70.841,100.437 -43.848,29.438 -22.502,5.469 c 0.404,-0.382 0.806,-0.762 1.21,-1.138 1.054,-0.906 2.142,-1.831 3.27,-2.79 -1.131,1.019 -2.263,2.038 -3.392,3.062 C -16.168,1.284 -13.287,0.192 0,0"
               id="path24"
               style="fill:#134577;fill-opacity:1;fill-rule:nonzero;stroke:none" /></g><g
             transform="translate(304.0117,197.1748)"
             id="g26"><path
               d="m 0,0 c 8.482,-5.372 13.235,-7.999 22.484,-12.554 0.902,-0.432 1.83,-0.87 2.789,-1.31 -6.685,3.453 -11.584,5.987 -15.661,8.186 C 6.35,-3.808 3.113,-1.891 0,0"
               id="path28"
               style="fill:#134577;fill-opacity:1;fill-rule:nonzero;stroke:none" /></g><g
             transform="translate(287.6616,207.8887)"
             id="g30"><path
               d="M 0,0 C 0.047,-0.035 0.098,-0.066 0.146,-0.102 -4.061,3.132 -8.773,6.84 -13.464,10.634 -8.84,6.862 -4.193,3.181 0,0"
               id="path32"
               style="fill:#134577;fill-opacity:1;fill-rule:nonzero;stroke:none" /></g><g
             transform="translate(344.1304,176.8311)"
             id="g34"><path
               d="M 0,0 C 4.443,-1.851 8.905,-3.655 12.776,-5.085 12.619,-5.008 12.48,-4.928 12.329,-4.849 10.852,-4.296 9.32,-3.708 7.766,-3.104 5.255,-2.111 2.633,-1.066 0,0"
               id="path36"
               style="fill:#134577;fill-opacity:1;fill-rule:nonzero;stroke:none" /></g><g
             transform="translate(656.4243,283.8789)"
             id="g38"><path
               d="m 0,0 c 2.796,20.248 -5.935,37.19 -23.816,49.498 -23.703,-26.17 -50.91,-50.449 -78.941,-71.865 26.462,-4.658 37.966,-18.562 30.268,-35.19 -1.788,-3.866 -4.014,-7.948 -7.114,-11.859 C -51.689,-49.785 -23.954,-26.172 0,0"
               id="path40"
               style="fill:#134577;fill-opacity:1;fill-rule:nonzero;stroke:none" /></g><g
             transform="translate(709.1216,333.9668)"
             id="g42"><path
               d="m 0,0 c 2.041,5.207 4.046,10.771 5.962,16.796 1.093,3.563 2.223,7.434 3.441,11.766 0.158,0.585 0.32,1.161 0.475,1.759 0.043,0.198 0.087,0.396 0.131,0.595 C 9.903,30.505 9.798,30.098 9.69,29.687 7.101,20.95 4.124,10.992 0,0"
               id="path44"
               style="fill:#134577;fill-opacity:1;fill-rule:nonzero;stroke:none" /></g><g
             transform="translate(183.1494,353.1367)"
             id="g46"><path
               d="M 0,0 C 0.092,-0.282 0.179,-0.56 0.273,-0.845 0.175,-0.544 0.078,-0.24 -0.02,0.061 -0.012,0.04 -0.007,0.021 0,0"
               id="path48"
               style="fill:#134577;fill-opacity:1;fill-rule:nonzero;stroke:none" /></g><g
             transform="translate(194.8989,321.6992)"
             id="g50"><path
               d="M 0,0 C 0.925,-2.098 1.873,-4.205 2.875,-6.341 -0.352,1.212 -3.695,9.051 -6.895,17.534 -4.605,11.363 -2.21,5.323 0,0"
               id="path52"
               style="fill:#134577;fill-opacity:1;fill-rule:nonzero;stroke:none" /></g><g
             transform="translate(217.4351,416.2988)"
             id="g54"><path
               d="M 0,0 C 71.301,17.186 151.087,72.112 202.385,129.278 96.556,108.969 -3.922,65.894 -37.879,26.16 -46.096,16.542 -46.434,11.45 -46.634,8.41 -45.448,3.388 -42.67,-8.365 0,0"
               id="path56"
               style="fill:#134577;fill-opacity:1;fill-rule:nonzero;stroke:none" /></g><g
             transform="translate(671.6841,265.9912)"
             id="g58"><path
               d="m 0,0 c 0.12,0.154 0.237,0.308 0.356,0.466 l 1.407,1.91 C 1.501,2.024 1.22,1.662 0.95,1.307 0.63,0.869 0.321,0.434 0,0"
               id="path60"
               style="fill:#134577;fill-opacity:1;fill-rule:nonzero;stroke:none" /></g><g
             transform="translate(558.2954,556.8853)"
             id="g62"><path
               d="m 0,0 c -17.105,-35.11 -46.952,-73.479 -89.428,-112.285 45.843,6.515 91.396,7.352 131.083,-0.427 23.104,31.713 40.31,64.047 48.431,94.88 C 64.11,-7.297 33.299,-1.687 0,0"
               id="path64"
               style="fill:#134577;fill-opacity:1;fill-rule:nonzero;stroke:none" /></g><g
             transform="translate(686.2642,287.4893)"
             id="g66"><path
               d="M 0,0 C 3.807,6.072 6.809,11.479 12.051,21.528 7.367,12.842 4.491,7.514 1.718,2.787 1.161,1.875 0.588,0.948 0,0"
               id="path68"
               style="fill:#134577;fill-opacity:1;fill-rule:nonzero;stroke:none" /></g><g
             transform="translate(705.1792,351.6133)"
             id="g70"><path
               d="m 0,0 c 12.774,24.256 20.956,49.464 22.53,74.817 -0.002,-0.173 -0.005,-0.344 -0.007,-0.514 -0.509,-8.602 -1.26,-19.83 -2.877,-31.941 1.56,10.159 2.695,21.322 3.04,34.713 C 21.955,100.947 15.995,120.939 5.859,137.51 3.899,108.735 -5.935,80.028 -21.198,52.286 -7.335,37.565 -0.266,19.822 0,0"
               id="path72"
               style="fill:#134577;fill-opacity:1;fill-rule:nonzero;stroke:none" /></g><g
             transform="translate(574.606,635.165)"
             id="g74"><path
               d="M 0,0 C 27.574,-4.804 52.808,-13.131 74.056,-25.702 68.875,-9.369 59.452,5.795 45.061,19.313 41.57,22.591 36.714,26.381 32.52,29.445 31.284,30.27 30.014,31.106 28.707,31.953 9.092,43.496 -12.784,51.259 -35.857,55.922 -15.13,42.143 -3.2,22.974 0,0"
               id="path76"
               style="fill:#134577;fill-opacity:1;fill-rule:nonzero;stroke:none" /></g><g
             transform="translate(230.9761,609.0493)"
             id="g78"><path
               d="m 0,0 c -2.856,-3.61 -5.677,-7.249 -8.037,-10.41 -0.627,-0.936 -1.217,-1.816 -1.792,-2.673 1.418,1.996 2.909,4.058 4.403,6.093 1.723,2.247 3.56,4.618 5.426,6.99"
               id="path80"
               style="fill:#134577;fill-opacity:1;fill-rule:nonzero;stroke:none" /></g><g
             transform="translate(448.9995,689.5776)"
             id="g82"><path
               d="m 0,0 c -3.574,1.989 -7.383,3.602 -11.348,4.889 -33.879,-3.61 -67.11,-11.282 -96.775,-21.083 -1.506,-2.552 -2.023,-5.098 -1.335,-7.528 -22.448,-11.402 -37.892,-13.32 -43.334,-9.994 -25.431,-11.776 -45.487,-24.671 -57.024,-36.635 -14.702,-18.89 3.416,-18.405 11.889,-17.32 13.646,1.748 27.952,8.063 35.638,11.456 -6.735,-8.66 -12.998,-17.71 -18.807,-27.065 56.04,26.267 131.768,47.039 204.985,52.582 C 26.935,-29.148 20.088,-11.184 0,0"
               id="path84"
               style="fill:#134577;fill-opacity:1;fill-rule:nonzero;stroke:none" /></g><g
             transform="translate(203.0762,566.3398)"
             id="g86"><path
               d="M 0,0 C -0.335,-0.659 -0.676,-1.341 -1.017,-2.023 2.682,4.833 5.174,9.395 7.606,13.526 5.202,9.57 2.955,5.56 0,0"
               id="path88"
               style="fill:#134577;fill-opacity:1;fill-rule:nonzero;stroke:none" /></g><g
             transform="translate(678.7729,592.7607)"
             id="g90"><path
               d="M 0,0 C -0.955,1.377 -1.995,2.864 -3.153,4.515 -3.181,4.553 -3.208,4.593 -3.237,4.631 1.553,-2.673 4.995,-7.922 7.707,-12.183 5.125,-7.833 2.519,-3.678 0,0"
               id="path92"
               style="fill:#134577;fill-opacity:1;fill-rule:nonzero;stroke:none" /></g><g
             transform="translate(190.0742,538.165)"
             id="g94"><path
               d="m 0,0 c -1.577,-4.069 -3.137,-8.462 -4.433,-12.137 -0.478,-1.423 -0.989,-2.958 -1.554,-4.668 3.45,9.579 5.588,15.51 7.381,20.138 C 0.893,2.164 0.435,1.066 0,0"
               id="path96"
               style="fill:#134577;fill-opacity:1;fill-rule:nonzero;stroke:none" /></g><g
             transform="translate(648.0474,630.207)"
             id="g98"><path
               d="M 0,0 C -0.635,0.641 -1.302,1.311 -2.003,2.015 -2.629,2.636 -3.271,3.269 -3.934,3.919 2.449,-2.837 6.862,-7.516 10.323,-11.315 6.949,-7.512 3.27,-3.336 0,0"
               id="path100"
               style="fill:#134577;fill-opacity:1;fill-rule:nonzero;stroke:none" /></g><g
             transform="translate(613.147,660.4185)"
             id="g102"><path
               d="M 0,0 C -0.964,0.694 -1.979,1.418 -3.076,2.19 -3.886,2.75 -4.719,3.321 -5.588,3.901 2.229,-1.897 7.411,-5.753 11.579,-9.021 7.875,-6.066 3.733,-2.745 0,0"
               id="path104"
               style="fill:#134577;fill-opacity:1;fill-rule:nonzero;stroke:none" /></g></g></g><g
         id="g106"><g
           clip-path="url(#clipPath110)"
           id="g108"><g
             id="g114"><g
               id="g116"><path
                 d="m 705.179,353.614 c -12.505,-23.74 -29.385,-46.573 -48.755,-67.735 l 0,0 C 632.47,259.707 604.735,236.093 576.822,216.463 l 0,0 c -15.917,-11.195 -31.883,-21.089 -47.24,-29.428 l 0,0 c 0.157,0.186 0.301,0.357 0.472,0.551 l 0,0 c -31.311,-17.081 -63.895,-25.888 -95.722,-26.922 l 0,0 0,-2 c 1.415,-0.985 5.395,-0.54 8.671,-0.88 l 0,0 c 1.45,-0.051 2.896,-0.091 4.329,-0.122 l 0,0 c -0.237,-0.014 -0.484,-0.037 -0.719,-0.052 l 0,0 c 0.34,-0.011 0.68,-0.021 1.008,-0.036 l 0,0 c 2.21,-0.007 4.642,0.025 7.087,0.074 l 0,0 c 2.334,0.021 4.659,0.056 6.784,0.123 l 0,0 c 0.358,0.013 0.709,0.028 1.074,0.043 l 0,0 c 0.199,0.006 0.408,0.012 0.601,0.014 l 0,0 c 4.026,0.181 9.224,0.583 13.519,0.955 l 0,0 c 0.173,0.022 0.35,0.037 0.526,0.06 l 0,0 c 0.836,0.063 1.594,0.135 2.317,0.201 l 0,0 c 3.19,0.338 6.718,0.791 9.555,1.174 l 0,0 c 0.493,0.073 1.02,0.147 1.568,0.225 l 0,0 c 0.133,0.02 0.266,0.039 0.401,0.06 l 0,0 c 0.035,0.005 0.062,0.012 0.098,0.014 l 0,0 c 3.034,0.452 6.469,1.014 10.153,1.695 l 0,0 c 0.402,0.08 0.824,0.164 1.268,0.254 l 0,0 c 0.352,0.064 0.686,0.12 1.007,0.179 l 0,0 c 2.531,0.492 4.998,0.998 7.234,1.498 l 0,0 c 0.866,0.198 1.813,0.418 2.934,0.678 l 0,0 c 0.113,0.027 0.213,0.048 0.326,0.074 l 0,0 c 0.989,0.25 2.046,0.52 3.127,0.798 l 0,0 c 2.797,0.711 4.845,1.231 6.46,1.65 l 0,0 c 2.623,0.713 5.111,1.418 7.556,2.161 l 0,0 c 0.59,0.183 1.233,0.382 1.961,0.609 l 0,0 c 0.737,0.231 1.389,0.432 1.983,0.621 l 0,0 c 1.702,0.542 3.534,1.152 5.421,1.801 l 0,0 c 0.432,0.153 0.899,0.32 1.402,0.503 l 0,0 c 0.243,0.082 0.472,0.159 0.696,0.234 l 0,0 c 2.661,0.938 5.232,1.886 7.713,2.841 l 0,0 c 0.067,0.027 0.126,0.049 0.195,0.075 l 0,0 c 3.519,1.359 4.868,1.889 8.204,3.339 l 0,0 c 0.526,0.219 1.013,0.42 1.457,0.606 l 0,0 c 1.91,0.824 3.747,1.636 5.505,2.441 l 0,0 c 0.35,0.163 0.713,0.329 1.112,0.518 l 0,0 5.756,2.747 c 35.65,17.66 67.895,43.967 95.911,78.172 l 0,0 c 1.423,1.796 2.792,3.563 4.102,5.287 l 0,0 c 0.27,0.356 0.551,0.717 0.813,1.069 l 0,0 2.132,2.89 c 2.231,3.234 4.058,5.916 5.665,8.324 l 0,0 c 1.707,2.616 3.408,5.307 5.02,7.909 l 0,0 c 0.588,0.947 1.161,1.874 1.718,2.787 l 0,0 c 2.773,4.726 5.649,10.054 10.333,18.74 l 0,0 c 4.372,8.801 7.876,17.13 10.807,24.949 l 0,0 c 4.123,10.993 7.1,20.951 9.69,29.687 l 0,0 c 0.107,0.411 0.213,0.819 0.319,1.23 l 0,0 c 1.382,5.336 2.613,10.627 3.484,15.28 l 0,0 c 0.236,1.263 0.474,2.598 0.709,3.941 l 0,0 c 0.571,3.331 1.068,6.629 1.501,9.871 l 0,0 c 1.617,12.111 2.368,23.339 2.877,31.942 l 0,0 c 0.003,0.17 0.006,0.34 0.007,0.514 l 0,0 c -1.574,-25.354 -9.756,-50.561 -22.53,-74.817"
                 id="path128"
                 style="fill:url(#linearGradient3471);stroke:none" /></g></g></g></g><g
         id="g130"><g
           clip-path="url(#clipPath134)"
           id="g132"><g
             id="g138"><g
               id="g140"><path
                 d="m 705.179,351.613 c -12.505,-23.739 -29.385,-46.572 -48.755,-67.734 l 0,0 C 632.47,257.707 604.735,234.094 576.822,214.463 l 0,0 c -15.917,-11.195 -31.883,-21.089 -47.24,-29.428 l 0,0 c 0.157,0.186 0.301,0.357 0.472,0.551 l 0,0 c -31.311,-17.081 -63.895,-25.889 -95.722,-26.922 l 0,0 c 2.181,-1.247 4.305,-2.427 8.671,-2.879 l 0,0 c 1.45,-0.052 2.896,-0.091 4.329,-0.123 l 0,0 c -0.237,-0.013 -0.484,-0.037 -0.719,-0.053 l 0,0 c 0.34,-0.011 0.68,-0.02 1.008,-0.035 l 0,0 c 2.21,-0.006 4.642,0.024 7.087,0.075 l 0,0 c 2.334,0.02 4.659,0.055 6.784,0.121 l 0,0 c 0.358,0.015 0.709,0.029 1.074,0.044 l 0,0 c 0.199,0.006 0.408,0.012 0.601,0.014 l 0,0 c 4.026,0.182 9.224,0.583 13.519,0.956 l 0,0 c 0.173,0.02 0.35,0.036 0.526,0.059 l 0,0 c 0.836,0.063 1.594,0.134 2.317,0.201 l 0,0 c 3.19,0.338 6.718,0.792 9.555,1.174 l 0,0 c 0.493,0.073 1.02,0.146 1.568,0.225 l 0,0 c 0.133,0.02 0.266,0.038 0.401,0.06 l 0,0 c 0.035,0.005 0.062,0.011 0.098,0.014 l 0,0 c 3.034,0.453 6.469,1.014 10.153,1.695 l 0,0 c 0.402,0.08 0.824,0.164 1.268,0.253 l 0,0 c 0.352,0.065 0.686,0.121 1.007,0.18 l 0,0 c 2.531,0.492 4.998,0.998 7.234,1.497 l 0,0 c 0.866,0.199 1.813,0.419 2.934,0.678 l 0,0 c 0.113,0.028 0.213,0.049 0.326,0.075 l 0,0 c 0.989,0.251 2.046,0.52 3.127,0.797 l 0,0 c 2.797,0.711 4.845,1.232 6.46,1.651 l 0,0 c 2.623,0.712 5.111,1.418 7.556,2.16 l 0,0 c 0.59,0.183 1.233,0.383 1.961,0.611 l 0,0 c 0.737,0.23 1.389,0.431 1.983,0.621 l 0,0 c 1.702,0.541 3.534,1.152 5.421,1.799 l 0,0 c 0.432,0.154 0.899,0.32 1.402,0.504 l 0,0 c 0.243,0.082 0.472,0.159 0.696,0.235 l 0,0 c 2.661,0.937 5.232,1.885 7.713,2.84 l 0,0 c 0.067,0.026 0.126,0.049 0.195,0.076 l 0,0 c 3.519,1.358 4.868,1.888 8.204,3.339 l 0,0 c 0.526,0.218 1.013,0.419 1.457,0.604 l 0,0 c 1.91,0.825 3.747,1.638 5.505,2.442 l 0,0 c 0.35,0.163 0.713,0.33 1.112,0.519 l 0,0 5.756,2.746 c 35.65,17.66 67.895,43.966 95.911,78.173 l 0,0 c 1.423,1.794 2.792,3.561 4.102,5.286 l 0,0 c 0.27,0.356 0.551,0.718 0.813,1.069 l 0,0 2.132,2.889 c 2.231,3.235 4.058,5.917 5.665,8.325 l 0,0 c 1.707,2.615 3.408,5.308 5.02,7.909 l 0,0 c 0.588,0.947 1.161,1.874 1.718,2.786 l 0,0 c 2.773,4.727 5.649,10.055 10.333,18.742 l 0,0 c 4.372,8.799 7.876,17.129 10.807,24.949 l 0,0 c 4.123,10.992 7.1,20.95 9.69,29.686 l 0,0 c 0.107,0.411 0.213,0.819 0.319,1.23 l 0,0 c 1.382,5.336 2.613,10.628 3.484,15.28 l 0,0 c 0.236,1.262 0.474,2.598 0.709,3.941 l 0,0 c 0.571,3.331 1.068,6.629 1.501,9.871 l 0,0 c 1.617,12.111 2.368,23.339 2.877,31.942 l 0,0 c 0.003,0.169 0.006,0.34 0.007,0.514 l 0,0 c -1.574,-25.354 -9.756,-50.561 -22.53,-74.818"
                 id="path154"
                 style="fill:url(#linearGradient3473);stroke:none" /></g></g></g></g><g
         id="g156"><g
           clip-path="url(#clipPath160)"
           id="g158"><g
             id="g164"><g
               id="g166"><path
                 d="m 607.126,666.61 c 4.194,-3.064 9.05,-6.853 12.54,-10.133 l 0,0 c 14.392,-13.517 23.815,-28.681 28.995,-45.013 l 0,0 c 6.9,-21.759 6.254,-45.596 -0.279,-70.41 l 0,0 c -8.122,-30.833 -25.328,-63.167 -48.431,-94.881 l 0,0 c -22.661,-31.106 -50.987,-61.61 -81.977,-89.511 l 0,0 C 440.141,286.592 345.542,232.96 281.909,227.558 l 0,0 c -13.288,0.192 -16.169,1.284 -21.415,4.602 l 0,0 c 1.13,-1.023 2.261,-2.043 3.392,-3.061 l 0,0 c 0.226,-0.199 0.452,-0.405 0.678,-0.609 l 0,0 c 3.057,-2.585 6.322,-5.286 9.634,-7.968 l 0,0 c 4.69,-3.794 9.403,-7.502 13.61,-10.735 l 0,0 c 0.374,-0.286 0.77,-0.593 1.136,-0.876 l 0,0 c 2.582,-1.771 4.829,-3.301 6.874,-4.667 l 0,0 c 2.566,-1.614 5.314,-3.32 8.194,-5.07 l 0,0 c 3.112,-1.889 6.349,-3.807 9.612,-5.677 l 0,0 c 4.077,-2.199 8.976,-4.734 15.661,-8.186 l 0,0 c 0.668,-0.345 1.352,-0.697 2.055,-1.059 l 0,0 c 1.048,-0.472 2.142,-0.955 3.268,-1.444 l 0,0 c 2.995,-1.302 6.251,-2.652 9.522,-3.977 l 0,0 c 2.633,-1.067 5.255,-2.112 7.766,-3.104 l 0,0 c 1.554,-0.604 3.086,-1.192 4.563,-1.744 l 0,0 c 0.362,-0.137 0.706,-0.264 1.062,-0.398 l 0,0 0.768,-0.197 c 0.599,-0.248 1.209,-0.504 1.806,-0.753 l 0,0 c 34.022,-4.808 116.872,32.275 193.572,90.877 l 0,0 c 28.032,21.415 55.239,45.695 78.941,71.865 l 0,0 c 20.239,22.342 37.914,46.058 51.373,70.522 l 0,0 c 15.263,27.742 25.097,56.45 27.058,85.224 l 0,0 c 1.482,21.753 -1.527,43.541 -10.09,64.978 l 0,0 -0.206,0.433 c -3.098,6.377 -7.375,14.439 -11.168,21.088 l 0,0 c -0.93,1.525 -1.952,3.154 -3.095,4.956 l 0,0 c -2.712,4.261 -6.155,9.509 -10.945,16.814 l 0,0 c -0.002,0.007 -0.006,0.012 -0.011,0.019 l 0,0 c -2.985,4.096 -5.268,7.198 -7.404,9.958 l 0,0 c -2.195,2.749 -4.449,5.463 -6.581,7.981 l 0,0 c -0.978,1.116 -2.019,2.279 -3.168,3.542 l 0,0 c -3.462,3.8 -7.874,8.478 -14.257,15.234 l 0,0 c -0.114,0.123 -0.221,0.235 -0.338,0.358 l 0,0 c -3.619,3.471 -6.435,6.136 -9.026,8.483 l 0,0 c -3.031,2.64 -6.149,5.241 -8.984,7.611 l 0,0 c -0.34,0.27 -0.685,0.544 -1.04,0.82 l 0,0 c -4.168,3.267 -9.35,7.124 -17.167,12.921 l 0,0 c -0.435,0.324 -0.87,0.647 -1.323,0.981 l 0,0 -1.225,0.835 c 0.676,-0.479 1.386,-0.995 2.115,-1.525"
                 id="path178"
                 style="fill:url(#linearGradient3475);stroke:none" /></g></g></g></g><g
         id="g180"><g
           clip-path="url(#clipPath184)"
           id="g182"><g
             id="g188"><g
               id="g190"><path
                 d="m 607.126,664.609 c 4.194,-3.063 9.05,-6.853 12.54,-10.132 l 0,0 c 14.392,-13.517 23.815,-28.681 28.995,-45.013 l 0,0 c 6.9,-21.759 6.254,-45.596 -0.279,-70.41 l 0,0 c -8.122,-30.833 -25.328,-63.168 -48.431,-94.882 l 0,0 c -22.661,-31.104 -50.987,-61.61 -81.977,-89.51 l 0,0 C 440.141,284.593 345.542,230.96 281.909,225.558 l 0,0 c -13.288,0.192 -16.169,1.283 -21.415,4.603 l 0,0 c 1.13,-1.025 2.261,-2.043 3.392,-3.062 l 0,0 c 0.226,-0.2 0.452,-0.405 0.678,-0.609 l 0,0 c 3.057,-2.584 6.322,-5.286 9.634,-7.967 l 0,0 c 4.69,-3.795 9.403,-7.503 13.61,-10.736 l 0,0 c 0.374,-0.286 0.77,-0.593 1.136,-0.876 l 0,0 c 2.582,-1.77 4.829,-3.3 6.874,-4.667 l 0,0 c 2.566,-1.614 5.314,-3.321 8.194,-5.069 l 0,0 c 3.112,-1.891 6.349,-3.808 9.612,-5.678 l 0,0 c 4.077,-2.199 8.976,-4.733 15.661,-8.187 l 0,0 c 0.668,-0.345 1.352,-0.695 2.055,-1.058 l 0,0 c 1.048,-0.472 2.142,-0.955 3.268,-1.445 l 0,0 c 2.995,-1.301 6.251,-2.652 9.522,-3.976 l 0,0 c 2.633,-1.066 5.255,-2.111 7.766,-3.104 l 0,0 c 1.554,-0.604 3.086,-1.192 4.563,-1.744 l 0,0 c 0.362,-0.137 0.706,-0.264 1.062,-0.398 l 0,0 0.768,-0.197 c 0.599,-0.248 1.209,-0.504 1.806,-0.753 l 0,0 c 34.022,-4.808 116.872,32.275 193.572,90.877 l 0,0 c 28.032,21.416 55.239,45.695 78.941,71.865 l 0,0 c 20.239,22.343 37.914,46.058 51.373,70.522 l 0,0 c 15.263,27.742 25.097,56.449 27.058,85.224 l 0,0 c 1.482,21.753 -1.527,43.541 -10.09,64.978 l 0,0 -0.206,0.433 c -3.098,6.377 -7.375,14.438 -11.168,21.088 l 0,0 c -0.93,1.525 -1.952,3.154 -3.095,4.956 l 0,0 c -2.712,4.261 -6.155,9.51 -10.945,16.814 l 0,0 c -0.002,0.007 -0.006,0.013 -0.011,0.019 l 0,0 c -2.985,4.096 -5.268,7.198 -7.404,9.959 l 0,0 c -2.195,2.748 -4.449,5.462 -6.581,7.981 l 0,0 c -0.978,1.114 -2.019,2.278 -3.168,3.54 l 0,0 c -3.462,3.8 -7.874,8.479 -14.257,15.235 l 0,0 c -0.114,0.123 -0.221,0.235 -0.338,0.359 l 0,0 c -3.619,3.469 -6.435,6.135 -9.026,8.482 l 0,0 c -3.031,2.639 -6.149,5.241 -8.984,7.611 l 0,0 c -0.34,0.271 -0.685,0.543 -1.04,0.819 l 0,0 c -4.168,3.268 -9.35,7.125 -17.167,12.923 l 0,0 c -0.435,0.323 -0.87,0.645 -1.323,0.981 l 0,0 -1.225,0.834 c 0.676,-0.48 1.386,-0.994 2.115,-1.526"
                 id="path204"
                 style="fill:url(#linearGradient3477);stroke:none" /></g></g></g></g><g
         id="g206"><g
           clip-path="url(#clipPath210)"
           id="g208"><g
             id="g214"><g
               id="g216"><path
                 d="m 232.976,610.05 c -1.866,-2.373 -3.703,-4.743 -5.426,-6.991 l 0,0 c -1.494,-2.035 -2.985,-4.096 -4.402,-6.094 l 0,0 c -0.504,-0.711 -0.995,-1.404 -1.476,-2.094 l 0,0 c -3.854,-5.66 -6.397,-9.601 -8.99,-14.005 l 0,0 c -2.432,-4.132 -4.924,-8.693 -8.623,-15.55 l 0,0 c -0.587,-1.086 -1.204,-2.227 -1.856,-3.438 l 0,0 c -1.629,-3.323 -2.908,-5.954 -4.019,-8.329 l 0,0 c -1.28,-2.793 -2.541,-5.688 -3.782,-8.681 l 0,0 c -0.304,-0.759 -0.614,-1.542 -0.934,-2.371 l 0,0 c -1.793,-4.627 -3.931,-10.558 -7.381,-20.137 l 0,0 c -3.274,-15.069 13.513,-17.903 49.896,-8.425 l 0,0 c 44.363,11.668 76.277,26.691 79.691,66.931 l 0,0 c 0.931,10.972 0.167,44.235 -26.963,33.496 l 0,0 c -7.686,-3.393 -21.992,-9.708 -35.639,-11.456 l 0,0 c -8.473,-1.084 -26.59,-1.569 -11.889,17.321 l 0,0 c -2.513,-3.012 -5.378,-6.581 -8.207,-10.177"
                 id="path228"
                 style="fill:url(#linearGradient3479);stroke:none" /></g></g></g></g><g
         id="g230"><g
           clip-path="url(#clipPath234)"
           id="g232"><g
             id="g238"><g
               id="g240"><path
                 d="m 230.976,609.049 c -1.866,-2.372 -3.704,-4.742 -5.426,-6.989 l 0,0 c -1.494,-2.036 -2.985,-4.097 -4.403,-6.094 l 0,0 c -0.504,-0.711 -0.993,-1.405 -1.476,-2.095 l 0,0 c -3.853,-5.66 -6.396,-9.601 -8.989,-14.005 l 0,0 c -2.432,-4.132 -4.924,-8.694 -8.623,-15.55 l 0,0 c -0.588,-1.086 -1.203,-2.227 -1.856,-3.438 l 0,0 c -1.63,-3.323 -2.908,-5.954 -4.018,-8.328 l 0,0 c -1.281,-2.794 -2.542,-5.689 -3.783,-8.682 l 0,0 c -0.305,-0.759 -0.615,-1.542 -0.934,-2.37 l 0,0 c -1.793,-4.628 -3.931,-10.559 -7.381,-20.138 l 0,0 c -3.273,-15.069 13.513,-17.903 49.896,-8.425 l 0,0 c 44.364,11.668 76.278,26.691 79.691,66.931 l 0,0 c 0.931,10.972 0.168,44.235 -26.963,33.497 l 0,0 c -7.686,-3.393 -21.992,-9.709 -35.639,-11.457 l 0,0 c -8.472,-1.084 -26.59,-1.57 -11.889,17.32 l 0,0 c -2.513,-3.011 -5.377,-6.58 -8.207,-10.177"
                 id="path254"
                 style="fill:url(#linearGradient3481);stroke:none" /></g></g></g></g><g
         id="g256"><g
           clip-path="url(#clipPath260)"
           id="g258"><g
             id="g264"><g
               id="g266"><path
                 d="m 435.349,716.067 c -0.015,-0.002 -0.03,-0.002 -0.047,-0.004 l 0,0 c -0.323,-0.014 -0.628,-0.031 -0.94,-0.045 l 0,0 c -0.61,-0.031 -1.19,-0.061 -1.742,-0.089 l 0,0 c -1.713,-0.092 -3.618,-0.203 -5.544,-0.339 l 0,0 c -3.684,-0.275 -7.115,-0.662 -13.763,-1.476 l 0,0 c -1.357,-0.151 -2.684,-0.301 -3.931,-0.447 l 0,0 c -0.6,-0.086 -1.23,-0.176 -1.912,-0.274 l 0,0 c -0.063,-0.01 -0.118,-0.019 -0.184,-0.031 l 0,0 c -0.081,-0.01 -0.156,-0.021 -0.239,-0.032 l 0,0 c -4.704,-0.7 -6.927,-1.057 -11.096,-1.902 l 0,0 c -0.148,-0.027 -0.295,-0.052 -0.439,-0.078 l 0,0 c -3.104,-0.64 -6.974,-1.407 -9.944,-2.091 l 0,0 c -0.059,-0.013 -0.121,-0.027 -0.182,-0.041 l 0,0 c -0.149,-0.035 -0.323,-0.077 -0.478,-0.113 l 0,0 c -0.048,-0.011 -0.089,-0.019 -0.137,-0.03 l 0,0 c -1.849,-0.433 -3.203,-0.752 -4.46,-1.064 l 0,0 c -1.208,-0.31 -2.53,-0.661 -4.234,-1.12 l 0,0 c -0.37,-0.102 -0.765,-0.215 -1.181,-0.333 l 0,0 c -0.566,-0.147 -1.086,-0.285 -1.565,-0.414 l 0,0 c -2.171,-0.606 -5.049,-1.449 -8.098,-2.397 l 0,0 c -0.031,-0.012 -0.057,-0.02 -0.089,-0.03 l 0,0 c -2.191,-0.684 -4.402,-1.398 -6.432,-2.087 l 0,0 c -0.648,-0.226 -1.355,-0.479 -2.159,-0.768 l 0,0 c -0.265,-0.088 -0.517,-0.174 -0.758,-0.256 l 0,0 c -3.131,-1.122 -5.763,-2.098 -7.949,-2.932 l 0,0 c -0.037,-0.017 -0.071,-0.031 -0.107,-0.046 l 0,0 c -0.095,-0.034 -0.191,-0.071 -0.283,-0.108 l 0,0 c -3.328,-1.301 -4.752,-1.864 -7.616,-3.108 l 0,0 c -0.24,-0.097 -0.472,-0.193 -0.692,-0.285 l 0,0 c -2.339,-1.032 -5.245,-2.285 -7.465,-3.313 l 0,0 c -0.005,-0.002 -0.008,-0.004 -0.013,-0.006 l 0,0 c -0.008,-0.003 -0.015,-0.004 -0.02,-0.009 l 0,0 c -0.461,-0.211 -0.967,-0.453 -1.471,-0.692 l 0,0 c -0.891,-0.422 -1.762,-0.842 -2.619,-1.261 l 0,0 c -0.344,-0.167 -0.679,-0.331 -1.018,-0.498 l 0,0 c -19.627,-9.77 -30.275,-19.439 -32.163,-24.978 l 0,0 c -0.818,-2.397 -0.152,-4.297 1.828,-5.508 l 0,0 c 5.443,-3.326 20.886,-1.408 43.334,9.994 l 0,0 c -0.687,2.429 -0.171,4.976 1.336,7.527 l 0,0 c 9.651,16.363 60.089,32.989 96.775,21.084 l 0,0 c 3.964,-1.288 7.774,-2.9 11.347,-4.889 l 0,0 c 20.089,-11.184 26.935,-29.148 23.89,-50.699 l 0,0 c -3.881,-27.456 -23.847,-60.738 -53.069,-93.302 l 0,0 C 368.522,490.411 288.736,435.485 217.436,418.298 l 0,0 c -42.671,-8.364 -45.449,3.389 -46.635,8.411 l 0,0 c 0.266,-6.09 0.689,-11.878 1.238,-17.416 l 0,0 c 0.088,-0.849 0.175,-1.694 0.27,-2.567 l 0,0 c 0.018,-0.164 0.035,-0.326 0.054,-0.49 l 0,0 c 0.137,-1.239 0.283,-2.498 0.441,-3.788 l 0,0 c 1.38,-11.232 4.249,-25.557 7.383,-37.388 l 0,0 c 0.94,-3.399 1.924,-6.679 2.943,-9.862 l 0,0 c 0.097,-0.302 0.195,-0.605 0.293,-0.906 l 0,0 c 1.47,-4.539 3.007,-8.878 4.582,-13.059 l 0,0 c 3.198,-8.483 6.543,-16.322 9.768,-23.875 l 0,0 1.851,-3.82 c 6.54,-8.896 20.558,-7.552 35.4,-6.124 l 0,0 c -0.437,1.201 -0.849,2.414 -1.269,3.621 l 0,0 c 0.422,-1.164 0.847,-2.361 1.269,-3.621 l 0,0 c 74.299,12.341 162.014,77.625 216.586,123.969 l 0,0 c 5.976,5.076 11.711,10.151 17.258,15.218 l 0,0 c 42.475,38.805 72.322,77.175 89.427,112.285 l 0,0 c 14.037,28.813 19.495,55.424 16.311,78.279 l 0,0 c -3.201,22.974 -15.13,42.142 -35.858,55.922 l 0,0 c -18.349,12.201 -43.569,20.186 -75.747,22.83 l 0,0 c -0.307,0.016 -0.615,0.03 -0.923,0.046 l 0,0 c 0.148,-0.005 0.306,-0.008 0.457,-0.011 l 0,0 c -0.175,0.004 -0.361,0.009 -0.536,0.014 l 0,0 c -0.01,0 -0.016,10e-4 -0.026,10e-4 l 0,0 c -3.942,0.115 -8.441,0.176 -12.963,0.192 l 0,0 c -1.245,0.007 -2.491,0.011 -3.724,0.011 l 0,0 c -3.502,0 -6.906,-0.031 -9.937,-0.103 m 27.323,-0.118 c -0.045,0.001 -0.09,0.002 -0.137,0.003 l 0,0 c 0.047,-10e-4 0.092,-0.002 0.137,-0.003"
                 id="path278"
                 style="fill:url(#linearGradient3483);stroke:none" /></g></g></g></g><g
         id="g280"><g
           clip-path="url(#clipPath284)"
           id="g282"><g
             id="g288"><g
               id="g290"><path
                 d="m 435.349,714.067 c -0.015,-0.002 -0.03,-0.002 -0.047,-0.003 l 0,0 c -0.323,-0.015 -0.628,-0.032 -0.94,-0.046 l 0,0 c -0.61,-0.031 -1.19,-0.061 -1.742,-0.088 l 0,0 c -1.713,-0.092 -3.618,-0.205 -5.544,-0.34 l 0,0 c -3.684,-0.275 -7.115,-0.661 -13.763,-1.476 l 0,0 c -1.357,-0.152 -2.684,-0.301 -3.931,-0.447 l 0,0 c -0.6,-0.086 -1.23,-0.176 -1.912,-0.274 l 0,0 c -0.063,-0.01 -0.118,-0.019 -0.184,-0.031 l 0,0 c -0.081,-0.01 -0.156,-0.021 -0.239,-0.032 l 0,0 c -4.704,-0.7 -6.927,-1.056 -11.096,-1.901 l 0,0 c -0.148,-0.027 -0.295,-0.053 -0.439,-0.079 l 0,0 c -3.104,-0.641 -6.974,-1.407 -9.944,-2.09 l 0,0 c -0.059,-0.015 -0.121,-0.028 -0.182,-0.042 l 0,0 c -0.149,-0.036 -0.323,-0.077 -0.478,-0.113 l 0,0 c -0.048,-0.011 -0.089,-0.02 -0.137,-0.03 l 0,0 c -1.849,-0.433 -3.203,-0.753 -4.46,-1.064 l 0,0 c -1.208,-0.309 -2.53,-0.66 -4.234,-1.12 l 0,0 c -0.37,-0.103 -0.765,-0.214 -1.181,-0.332 l 0,0 c -0.566,-0.149 -1.086,-0.286 -1.565,-0.414 l 0,0 c -2.171,-0.608 -5.049,-1.451 -8.098,-2.399 l 0,0 c -0.031,-0.011 -0.057,-0.019 -0.089,-0.03 l 0,0 c -2.191,-0.683 -4.402,-1.396 -6.432,-2.086 l 0,0 c -0.648,-0.226 -1.355,-0.479 -2.159,-0.767 l 0,0 c -0.265,-0.09 -0.517,-0.176 -0.758,-0.258 l 0,0 c -3.131,-1.121 -5.763,-2.097 -7.949,-2.932 l 0,0 c -0.037,-0.015 -0.071,-0.03 -0.107,-0.045 l 0,0 c -0.095,-0.035 -0.191,-0.071 -0.283,-0.108 l 0,0 c -3.328,-1.301 -4.752,-1.864 -7.616,-3.108 l 0,0 c -0.24,-0.097 -0.472,-0.193 -0.692,-0.285 l 0,0 c -2.339,-1.031 -5.245,-2.285 -7.465,-3.313 l 0,0 c -0.005,-0.002 -0.008,-0.004 -0.013,-0.005 l 0,0 c -0.008,-0.004 -0.015,-0.006 -0.02,-0.009 l 0,0 c -0.461,-0.212 -0.967,-0.454 -1.471,-0.693 l 0,0 c -0.891,-0.422 -1.762,-0.843 -2.619,-1.262 l 0,0 c -0.344,-0.167 -0.679,-0.329 -1.018,-0.497 l 0,0 c -19.627,-9.77 -30.275,-19.439 -32.163,-24.978 l 0,0 c -0.818,-2.398 -0.152,-4.297 1.828,-5.508 l 0,0 c 5.443,-3.326 20.886,-1.408 43.334,9.993 l 0,0 c -0.687,2.43 -0.171,4.976 1.336,7.529 l 0,0 c 9.651,16.362 60.089,32.988 96.775,21.083 l 0,0 c 3.964,-1.288 7.774,-2.9 11.347,-4.89 l 0,0 c 20.089,-11.183 26.935,-29.147 23.89,-50.698 l 0,0 c -3.881,-27.456 -23.847,-60.738 -53.069,-93.302 l 0,0 C 368.522,488.411 288.736,433.485 217.436,416.299 l 0,0 c -42.671,-8.365 -45.449,3.387 -46.635,8.41 l 0,0 c 0.266,-6.091 0.689,-11.878 1.238,-17.416 l 0,0 c 0.088,-0.849 0.175,-1.694 0.27,-2.567 l 0,0 c 0.018,-0.163 0.035,-0.326 0.054,-0.491 l 0,0 c 0.137,-1.238 0.283,-2.497 0.441,-3.787 l 0,0 c 1.38,-11.231 4.249,-25.557 7.383,-37.388 l 0,0 c 0.94,-3.399 1.924,-6.679 2.943,-9.863 l 0,0 c 0.097,-0.301 0.195,-0.604 0.293,-0.905 l 0,0 c 1.47,-4.538 3.007,-8.878 4.582,-13.059 l 0,0 c 3.198,-8.483 6.543,-16.322 9.768,-23.875 l 0,0 1.851,-3.82 c 6.54,-8.897 20.558,-7.551 35.4,-6.124 l 0,0 c -0.437,1.201 -0.849,2.414 -1.269,3.621 l 0,0 c 0.422,-1.164 0.847,-2.361 1.269,-3.621 l 0,0 c 74.299,12.341 162.014,77.625 216.586,123.97 l 0,0 c 5.976,5.075 11.711,10.15 17.258,15.217 l 0,0 c 42.475,38.805 72.322,77.174 89.427,112.284 l 0,0 c 14.037,28.814 19.495,55.425 16.311,78.28 l 0,0 c -3.201,22.974 -15.13,42.143 -35.858,55.922 l 0,0 c -18.349,12.201 -43.569,20.187 -75.747,22.83 l 0,0 c -0.307,0.015 -0.615,0.031 -0.923,0.046 l 0,0 c 0.139,-0.004 0.288,-0.007 0.432,-0.01 l 0,0 c -0.168,0.004 -0.345,0.008 -0.511,0.013 l 0,0 c -0.01,0 -0.016,0 -0.026,0 l 0,0 c -3.942,0.116 -8.441,0.178 -12.963,0.193 l 0,0 c -1.245,0.007 -2.491,0.011 -3.724,0.011 l 0,0 c -3.502,0 -6.906,-0.031 -9.937,-0.103 m 27.323,-0.119 c -0.053,0.002 -0.107,0.003 -0.162,0.005 l 0,0 c 0.055,-0.002 0.109,-0.003 0.162,-0.005"
                 id="path304"
                 style="fill:url(#linearGradient3485);stroke:none" /></g></g></g></g></g><text
       x="35.131363"
       y="-295.1524"
       transform="scale(1,-1)"
       id="text3487"
       xml:space="preserve"
       style="font-size:244.02258301px;font-style:normal;font-variant:normal;font-weight:300;font-stretch:normal;text-align:start;line-height:100%;letter-spacing:0px;word-spacing:0px;writing-mode:lr-tb;text-anchor:start;fill:#454545;fill-opacity:1;stroke:none;font-family:DIN Next LT Arabic;-inkscape-font-specification:DIN Next LT Arabic Light"
       sodipodi:linespacing="100%"><tspan
         x="35.131363"
         y="-295.1524"
         id="tspan3489"
         style="font-size:244.02258301px;font-style:normal;font-variant:normal;font-weight:300;font-stretch:normal;text-align:start;line-height:100%;writing-mode:lr-tb;text-anchor:start;font-family:DIN Next LT Arabic;-inkscape-font-specification:DIN Next LT Arabic Light">Ste des Services</tspan></text>
<text
       x="50.067032"
       y="-207.42165"
       transform="scale(1,-1)"
       id="text3487-3"
       xml:space="preserve"
       style="font-size:94.83451843px;font-style:normal;font-variant:normal;font-weight:300;font-stretch:normal;text-align:start;line-height:100%;letter-spacing:0px;word-spacing:0px;writing-mode:lr-tb;text-anchor:start;fill:#666666;fill-opacity:1;stroke:none;font-family:DIN Next LT Arabic;-inkscape-font-specification:DIN Next LT Arabic Light"
       sodipodi:linespacing="100%"><tspan
         x="50.067032"
         y="-207.42165"
         id="tspan3489-2"
         style="font-size:94.83451843px;font-style:normal;font-variant:normal;font-weight:300;font-stretch:normal;text-align:start;line-height:100%;letter-spacing:24.60438728px;writing-mode:lr-tb;text-anchor:start;font-family:DIN Next LT Arabic;-inkscape-font-specification:DIN Next LT Arabic Light">Votre partenaire de succs</tspan></text>
</g></svg>