<?xml version="1.0" encoding="UTF-8" standalone="no"?>
<!-- Created with Inkscape (http://www.inkscape.org/) -->

<svg
   xmlns:dc="http://purl.org/dc/elements/1.1/"
   xmlns:cc="http://creativecommons.org/ns#"
   xmlns:rdf="http://www.w3.org/1999/02/22-rdf-syntax-ns#"
   xmlns:svg="http://www.w3.org/2000/svg"
   xmlns="http://www.w3.org/2000/svg"
   version="1.1"
   width="2180"
   height="745"
   id="svg2"
   xml:space="preserve"><metadata
     id="metadata8"><rdf:RDF><cc:Work
         rdf:about=""><dc:format>image/svg+xml</dc:format><dc:type
           rdf:resource="http://purl.org/dc/dcmitype/StillImage" /><dc:title></dc:title></cc:Work></rdf:RDF></metadata><defs
     id="defs6"><clipPath
       id="clipPath16"><path
         d="M 0,596 1744,596 1744,0 0,0 0,596 z"
         id="path18" /></clipPath></defs><g
     transform="matrix(1.25,0,0,-1.25,0,745)"
     id="g10"><g
       id="g12"><g
         clip-path="url(#clipPath16)"
         id="g14"><g
           transform="translate(320.8639,120.0875)"
           id="g20"><path
             d="m 0,0 0,139.463 c 0,20.733 -4.043,35.859 -12.127,45.38 -8.087,9.517 -20.473,14.279 -37.164,14.279 -21.778,0 -37.882,-6 -48.313,-17.996 -10.435,-11.999 -15.648,-30.841 -15.648,-56.528 l 0,-124.598 -19.756,0 0,145.331 c 0,35.859 -16.43,53.791 -49.291,53.791 -22.299,0 -38.533,-6.489 -48.704,-19.464 -10.172,-12.976 -15.257,-33.739 -15.257,-62.298 l 0,-117.36 -19.365,0 0,212.618 16.039,0 4.108,-29.145 1.174,0 c 5.867,10.563 14.211,18.744 25.036,24.548 10.823,5.801 22.754,8.704 35.795,8.704 33.512,0 55.028,-12.586 64.549,-37.75 l 0.782,0 c 6.91,12.126 16.201,21.448 27.873,27.97 11.668,6.519 24.939,9.78 39.804,9.78 23.209,0 40.618,-6.195 52.225,-18.582 11.606,-12.39 17.409,-32.078 17.409,-59.071 L 19.169,0 0,0 z"
             id="path22"
             style="fill:#504f4f;fill-opacity:1;fill-rule:nonzero;stroke:none" /></g><g
           transform="translate(459.7407,133.7787)"
           id="g24"><path
             d="M 0,0 C 22.69,0 40.588,6.486 53.693,19.464 66.798,32.437 73.35,50.466 73.35,73.547 l 0,20.929 -37.163,-1.565 C 6.324,91.474 -14.963,86.814 -27.677,78.926 -40.391,71.035 -46.749,58.745 -46.749,42.054 c 0,-13.3 4.075,-23.636 12.226,-31.002 C -26.375,3.683 -14.865,0 0,0 m 78.241,-13.691 -4.891,33.642 -1.565,0 C 61.092,6.26 50.105,-3.422 38.827,-9.095 c -11.281,-5.672 -24.616,-8.508 -40,-8.508 -20.865,0 -37.101,5.345 -48.705,16.04 -11.607,10.689 -17.408,25.491 -17.408,44.401 0,20.733 8.637,36.836 25.917,48.312 17.277,11.473 42.28,17.538 75.013,18.191 l 40.49,1.175 0,14.082 c 0,20.212 -4.109,35.468 -12.324,45.77 -8.216,10.301 -21.451,15.454 -39.707,15.454 -19.691,0 -40.098,-5.477 -61.223,-16.431 l -7.237,16.821 c 23.341,10.954 46.421,16.431 69.242,16.431 23.342,0 40.783,-6.063 52.324,-18.191 11.54,-12.128 17.311,-31.036 17.311,-56.724 l 0,-141.419 -14.279,0 z"
             id="path26"
             style="fill:#504f4f;fill-opacity:1;fill-rule:nonzero;stroke:none" /></g><g
           transform="translate(769.3763,120.0875)"
           id="g28"><path
             d="m 0,0 0,137.898 c 0,21.384 -4.498,36.935 -13.496,46.651 -8.998,9.712 -22.953,14.573 -41.859,14.573 -25.428,0 -44.043,-6.426 -55.844,-19.267 -11.802,-12.846 -17.701,-33.678 -17.701,-62.495 l 0,-117.36 -19.365,0 0,304.354 19.365,0 0,-96.822 -0.979,-27.189 1.37,0 c 7.952,12.779 17.995,22.036 30.123,27.775 12.126,5.737 27.187,8.607 45.183,8.607 48.246,0 72.373,-25.886 72.373,-77.653 L 19.17,0 0,0 z"
             id="path30"
             style="fill:#504f4f;fill-opacity:1;fill-rule:nonzero;stroke:none" /></g><g
           transform="translate(935.2446,319.2094)"
           id="g32"><path
             d="m 0,0 c -23.212,0 -40.655,-8.151 -52.323,-24.451 -11.672,-16.302 -17.506,-39.97 -17.506,-71.002 0,-60.245 23.404,-90.369 70.22,-90.369 23.992,0 41.596,6.975 52.812,20.931 11.213,13.952 16.822,36.968 16.822,69.046 l 0,3.325 c 0,32.861 -5.511,56.495 -16.528,70.905 C 42.475,-7.207 24.645,0 0,0 m 0,17.603 c 15.385,0 28.685,-2.806 39.903,-8.41 C 51.115,3.584 61.155,-6 70.025,-19.561 l 1.174,0 C 70.415,-3.13 70.025,12.973 70.025,28.752 l 0,76.48 19.168,0 0,-304.354 -12.713,0 -4.89,32.47 -1.565,0 c -16.17,-24.256 -39.384,-36.382 -69.634,-36.382 -29.34,0 -51.77,9.127 -67.287,27.384 -15.519,18.255 -23.275,44.857 -23.275,79.805 0,36.772 7.691,64.873 23.079,84.303 C -51.705,7.887 -29.34,17.603 0,17.603"
             id="path34"
             style="fill:#504f4f;fill-opacity:1;fill-rule:nonzero;stroke:none" /></g><g
           transform="translate(84.8759,77.1195)"
           id="g36"><path
             d="m 0,0 c 0,-4.005 -1.471,-7.176 -4.414,-9.518 -2.943,-2.342 -6.855,-3.511 -11.733,-3.511 -5.864,0 -10.36,0.646 -13.49,1.936 l 0,3.347 c 3.457,-1.466 7.867,-2.199 13.227,-2.199 3.939,0 7.062,0.904 9.37,2.709 2.308,1.804 3.462,4.172 3.462,7.104 0,1.816 -0.383,3.321 -1.148,4.513 -0.766,1.194 -2.013,2.282 -3.741,3.266 -1.73,0.985 -4.267,2.045 -7.614,3.184 -4.902,1.684 -8.288,3.506 -10.158,5.464 -1.871,1.959 -2.806,4.567 -2.806,7.829 0,3.588 1.405,6.513 4.216,8.777 2.812,2.266 6.428,3.399 10.847,3.399 4.508,0 8.741,-0.855 12.702,-2.562 l -1.215,-2.887 c -3.982,1.662 -7.789,2.493 -11.421,2.493 -3.544,0 -6.366,-0.819 -8.467,-2.461 -2.101,-1.64 -3.15,-3.873 -3.15,-6.694 0,-1.772 0.322,-3.228 0.967,-4.366 0.646,-1.137 1.701,-2.16 3.167,-3.069 1.466,-0.907 3.982,-1.995 7.549,-3.265 3.741,-1.292 6.552,-2.544 8.434,-3.758 C -3.534,8.518 -2.161,7.138 -1.297,5.596 -0.432,4.054 0,2.187 0,0"
             id="path38"
             style="fill:#504f4f;fill-opacity:1;fill-rule:nonzero;stroke:none" /></g><g
           transform="translate(95.5418,82.6327)"
           id="g40"><path
             d="m 0,0 c 0,-4.901 1.078,-8.725 3.233,-11.469 2.154,-2.746 5.202,-4.119 9.14,-4.119 3.939,0 6.985,1.373 9.141,4.119 2.154,2.744 3.232,6.568 3.232,11.469 0,4.924 -1.088,8.741 -3.266,11.455 -2.177,2.713 -5.234,4.07 -9.172,4.07 C 8.369,15.525 5.334,14.173 3.2,11.471 1.067,8.769 0,4.945 0,0 m 28.16,0 c 0,-5.819 -1.412,-10.365 -4.234,-13.635 -2.823,-3.272 -6.718,-4.907 -11.684,-4.907 -3.129,0 -5.886,0.754 -8.271,2.265 -2.384,1.51 -4.212,3.676 -5.48,6.497 -1.27,2.824 -1.904,6.083 -1.904,9.78 0,5.821 1.411,10.355 4.234,13.605 2.822,3.249 6.695,4.874 11.618,4.874 4.901,0 8.746,-1.648 11.536,-4.94 C 26.765,10.246 28.16,5.733 28.16,0"
             id="path42"
             style="fill:#504f4f;fill-opacity:1;fill-rule:nonzero;stroke:none" /></g><g
           transform="translate(146.84,97.5987)"
           id="g44"><path
             d="m 0,0 -8.402,0 0,-32.852 -3.249,0 0,32.852 -6.63,0 0,1.904 6.63,1.215 0,2.756 c 0,4.376 0.804,7.586 2.412,9.632 1.608,2.047 4.239,3.07 7.893,3.07 1.969,0 3.938,-0.295 5.908,-0.886 L 3.807,14.868 c -1.751,0.546 -3.491,0.821 -5.219,0.821 -2.538,0 -4.338,-0.751 -5.399,-2.249 -1.061,-1.5 -1.591,-3.933 -1.591,-7.303 l 0,-3.314 L 0,2.823 0,0 z"
             id="path46"
             style="fill:#504f4f;fill-opacity:1;fill-rule:nonzero;stroke:none" /></g><g
           transform="translate(163.1508,66.9775)"
           id="g48"><path
             d="m 0,0 c 2.057,0 3.851,0.176 5.382,0.526 l 0,-2.625 c -1.575,-0.526 -3.391,-0.788 -5.448,-0.788 -3.15,0 -5.475,0.842 -6.974,2.527 -1.499,1.684 -2.248,4.331 -2.248,7.942 l 0,23.039 -5.284,0 0,1.904 5.284,1.477 1.642,8.074 1.673,0 0,-8.631 10.469,0 0,-2.824 -10.469,0 0,-22.58 c 0,-2.735 0.481,-4.759 1.444,-6.07 C -3.566,0.658 -2.057,0 0,0"
             id="path50"
             style="fill:#504f4f;fill-opacity:1;fill-rule:nonzero;stroke:none" /></g><g
           transform="translate(204.7667,64.7466)"
           id="g52"><path
             d="m 0,0 -7.811,23.86 c -0.504,1.619 -1.149,3.992 -1.936,7.122 l -0.197,0 -0.689,-2.428 L -12.11,23.795 -20.053,0 l -3.216,0 -10.207,35.675 3.479,0 5.711,-20.676 c 1.334,-5.121 2.21,-8.885 2.625,-11.29 l 0.197,0 c 1.291,5.12 2.232,8.522 2.823,10.206 l 7.351,21.76 2.954,0 6.991,-21.693 C 0.23,8.839 1.193,5.438 1.543,3.774 l 0.197,0 c 0.174,1.423 1.05,5.229 2.625,11.422 l 5.448,20.479 3.282,0 L 3.414,0 0,0 z"
             id="path54"
             style="fill:#504f4f;fill-opacity:1;fill-rule:nonzero;stroke:none" /></g><g
           transform="translate(233.3855,67.0443)"
           id="g56"><path
             d="m 0,0 c 3.807,0 6.811,1.088 9.009,3.265 2.199,2.178 3.299,5.202 3.299,9.075 l 0,3.512 -6.237,-0.264 c -5.01,-0.24 -8.581,-1.023 -10.715,-2.345 -2.133,-1.325 -3.2,-3.386 -3.2,-6.186 0,-2.233 0.684,-3.966 2.051,-5.202 C -4.426,0.617 -2.495,0 0,0 m 13.128,-2.298 -0.82,5.645 -0.263,0 C 10.251,1.05 8.407,-0.575 6.515,-1.526 4.622,-2.479 2.385,-2.953 -0.197,-2.953 c -3.501,0 -6.225,0.896 -8.172,2.689 -1.948,1.795 -2.921,4.279 -2.921,7.451 0,3.479 1.449,6.181 4.348,8.106 2.899,1.925 7.095,2.943 12.587,3.054 l 6.794,0.197 0,2.362 c 0,3.392 -0.689,5.951 -2.068,7.679 -1.379,1.729 -3.599,2.593 -6.662,2.593 -3.305,0 -6.728,-0.919 -10.273,-2.756 l -1.214,2.822 c 3.917,1.838 7.789,2.758 11.618,2.758 3.916,0 6.843,-1.018 8.779,-3.054 1.937,-2.034 2.905,-5.207 2.905,-9.518 l 0,-23.728 -2.396,0 z"
             id="path58"
             style="fill:#504f4f;fill-opacity:1;fill-rule:nonzero;stroke:none" /></g><g
           transform="translate(274.5091,101.1112)"
           id="g60"><path
             d="M 0,0 C 1.509,0 3.128,-0.153 4.857,-0.461 L 4.233,-3.578 c -1.488,0.371 -3.031,0.558 -4.627,0.558 -3.041,0 -5.536,-1.291 -7.483,-3.873 -1.948,-2.581 -2.921,-5.842 -2.921,-9.78 l 0,-19.692 -3.249,0 0,35.676 2.757,0 0.328,-6.433 0.229,0 c 1.466,2.625 3.031,4.469 4.694,5.529 C -4.377,-0.531 -2.364,0 0,0"
             id="path62"
             style="fill:#504f4f;fill-opacity:1;fill-rule:nonzero;stroke:none" /></g><g
           transform="translate(300.076,98.2228)"
           id="g64"><path
             d="m 0,0 c -3.436,0 -6.193,-1.132 -8.271,-3.396 -2.078,-2.265 -3.293,-5.531 -3.643,-9.798 l 22.055,0 c 0,4.135 -0.897,7.368 -2.691,9.699 C 5.656,-1.166 3.172,0 0,0 m 0.951,-34.132 c -5.185,0 -9.228,1.596 -12.127,4.791 -2.899,3.194 -4.348,7.668 -4.348,13.424 0,5.689 1.4,10.244 4.201,13.668 2.8,3.425 6.575,5.137 11.323,5.137 4.201,0 7.516,-1.466 9.944,-4.398 2.429,-2.933 3.643,-6.914 3.643,-11.946 l 0,-2.626 -25.698,0 c 0.044,-4.902 1.187,-8.643 3.43,-11.224 2.242,-2.582 5.453,-3.872 9.632,-3.872 2.035,0 3.824,0.142 5.366,0.425 1.543,0.285 3.495,0.898 5.859,1.839 l 0,-2.954 c -2.014,-0.875 -3.873,-1.471 -5.58,-1.789 -1.706,-0.317 -3.588,-0.475 -5.645,-0.475"
             id="path66"
             style="fill:#504f4f;fill-opacity:1;fill-rule:nonzero;stroke:none" /></g><g
           transform="translate(354.0313,98.1578)"
           id="g68"><path
             d="m 0,0 c -3.895,0 -6.822,-1.368 -8.78,-4.103 -1.958,-2.736 -2.937,-6.707 -2.937,-11.914 0,-10.109 3.927,-15.163 11.782,-15.163 4.026,0 6.979,1.171 8.861,3.512 1.882,2.342 2.823,6.203 2.823,11.586 l 0,0.557 c 0,5.515 -0.925,9.479 -2.773,11.898 C 7.127,-1.21 4.135,0 0,0 m 0,2.953 c 2.581,0 4.813,-0.471 6.695,-1.411 1.882,-0.941 3.566,-2.549 5.054,-4.824 l 0.197,0 c -0.131,2.756 -0.197,5.458 -0.197,8.106 l 0,12.832 3.216,0 0,-51.067 -2.133,0 -0.82,5.448 -0.263,0 c -2.713,-4.07 -6.608,-6.104 -11.684,-6.104 -4.922,0 -8.686,1.531 -11.29,4.594 -2.604,3.064 -3.905,7.526 -3.905,13.391 0,6.17 1.291,10.885 3.873,14.145 2.581,3.261 6.334,4.89 11.257,4.89"
             id="path70"
             style="fill:#504f4f;fill-opacity:1;fill-rule:nonzero;stroke:none" /></g><g
           transform="translate(394.4324,98.2228)"
           id="g72"><path
             d="m 0,0 c -3.436,0 -6.193,-1.132 -8.271,-3.396 -2.078,-2.265 -3.293,-5.531 -3.643,-9.798 l 22.055,0 c 0,4.135 -0.897,7.368 -2.691,9.699 C 5.656,-1.166 3.172,0 0,0 m 0.951,-34.132 c -5.185,0 -9.228,1.596 -12.127,4.791 -2.899,3.194 -4.348,7.668 -4.348,13.424 0,5.689 1.4,10.244 4.201,13.668 2.8,3.425 6.575,5.137 11.323,5.137 4.201,0 7.516,-1.466 9.944,-4.398 2.429,-2.933 3.643,-6.914 3.643,-11.946 l 0,-2.626 -25.698,0 c 0.044,-4.902 1.187,-8.643 3.43,-11.224 2.242,-2.582 5.453,-3.872 9.632,-3.872 2.035,0 3.824,0.142 5.366,0.425 1.543,0.285 3.495,0.898 5.859,1.839 l 0,-2.954 c -2.014,-0.875 -3.873,-1.471 -5.58,-1.789 -1.706,-0.317 -3.588,-0.475 -5.645,-0.475"
             id="path74"
             style="fill:#504f4f;fill-opacity:1;fill-rule:nonzero;stroke:none" /></g><g
           transform="translate(425.6768,64.7466)"
           id="g76"><path
             d="m 0,0 -13.785,35.675 3.348,0 9.222,-24.253 C 0.011,8.314 0.929,5.601 1.542,3.282 l 0.198,0 c 0.896,2.975 1.815,5.71 2.756,8.205 l 9.223,24.188 3.347,0 L 3.281,0 0,0 z"
             id="path78"
             style="fill:#504f4f;fill-opacity:1;fill-rule:nonzero;stroke:none" /></g><g
           transform="translate(462.1724,98.2228)"
           id="g80"><path
             d="m 0,0 c -3.436,0 -6.193,-1.132 -8.271,-3.396 -2.078,-2.265 -3.293,-5.531 -3.643,-9.798 l 22.055,0 c 0,4.135 -0.897,7.368 -2.691,9.699 C 5.656,-1.166 3.172,0 0,0 m 0.951,-34.132 c -5.185,0 -9.228,1.596 -12.127,4.791 -2.899,3.194 -4.348,7.668 -4.348,13.424 0,5.689 1.4,10.244 4.201,13.668 2.8,3.425 6.575,5.137 11.323,5.137 4.201,0 7.516,-1.466 9.944,-4.398 2.429,-2.933 3.643,-6.914 3.643,-11.946 l 0,-2.626 -25.698,0 c 0.044,-4.902 1.187,-8.643 3.43,-11.224 2.242,-2.582 5.453,-3.872 9.632,-3.872 2.035,0 3.824,0.142 5.366,0.425 1.543,0.285 3.495,0.898 5.859,1.839 l 0,-2.954 c -2.014,-0.875 -3.873,-1.471 -5.58,-1.789 -1.706,-0.317 -3.588,-0.475 -5.645,-0.475"
             id="path82"
             style="fill:#504f4f;fill-opacity:1;fill-rule:nonzero;stroke:none" /></g><path
           d="m 488.855,64.747 -3.25,0 0,51.067 3.25,0 0,-51.067 z"
           id="path84"
           style="fill:#504f4f;fill-opacity:1;fill-rule:nonzero;stroke:none" /><g
           transform="translate(502.1471,82.6327)"
           id="g86"><path
             d="m 0,0 c 0,-4.901 1.078,-8.725 3.233,-11.469 2.154,-2.746 5.202,-4.119 9.14,-4.119 3.939,0 6.985,1.373 9.14,4.119 2.155,2.744 3.233,6.568 3.233,11.469 0,4.924 -1.088,8.741 -3.265,11.455 -2.178,2.713 -5.235,4.07 -9.173,4.07 C 8.369,15.525 5.334,14.173 3.2,11.471 1.067,8.769 0,4.945 0,0 m 28.16,0 c 0,-5.819 -1.412,-10.365 -4.233,-13.635 -2.824,-3.272 -6.719,-4.907 -11.685,-4.907 -3.129,0 -5.886,0.754 -8.271,2.265 -2.384,1.51 -4.212,3.676 -5.48,6.497 -1.27,2.824 -1.904,6.083 -1.904,9.78 0,5.821 1.412,10.355 4.234,13.605 2.822,3.249 6.695,4.874 11.618,4.874 4.901,0 8.747,-1.648 11.537,-4.94 C 26.764,10.246 28.16,5.733 28.16,0"
             id="path88"
             style="fill:#504f4f;fill-opacity:1;fill-rule:nonzero;stroke:none" /></g><g
           transform="translate(555.3799,66.9775)"
           id="g90"><path
             d="m 0,0 c 3.655,0 6.482,1.357 8.484,4.07 2.003,2.712 3.003,6.51 3.003,11.388 0,10.482 -3.785,15.722 -11.355,15.722 -4.158,0 -7.21,-1.144 -9.158,-3.43 -1.946,-2.287 -2.92,-6.012 -2.92,-11.175 l 0,-1.05 c 0,-5.58 0.936,-9.562 2.806,-11.947 C -7.269,1.194 -4.223,0 0,0 m 0.067,-2.887 c -5.492,0 -9.497,2.055 -12.013,6.169 l -0.23,0 0.098,-2.756 c 0.088,-1.619 0.132,-3.392 0.132,-5.317 l 0,-13.587 -3.249,0 0,51.823 2.757,0 0.624,-5.088 0.197,0 c 2.449,3.852 6.366,5.777 11.749,5.777 4.813,0 8.484,-1.581 11.01,-4.743 C 13.67,26.23 14.933,21.629 14.933,15.59 14.933,9.727 13.604,5.181 10.945,1.953 8.287,-1.275 4.66,-2.887 0.067,-2.887"
             id="path92"
             style="fill:#504f4f;fill-opacity:1;fill-rule:nonzero;stroke:none" /></g><g
           transform="translate(624.7619,64.7466)"
           id="g94"><path
             d="m 0,0 0,23.401 c 0,3.479 -0.679,6.016 -2.036,7.614 -1.357,1.596 -3.435,2.396 -6.235,2.396 -3.654,0 -6.356,-1.007 -8.107,-3.02 -1.751,-2.013 -2.624,-5.174 -2.624,-9.485 l 0,-20.906 -3.316,0 0,24.385 c 0,6.016 -2.757,9.026 -8.27,9.026 -3.743,0 -6.466,-1.09 -8.173,-3.266 -1.707,-2.177 -2.559,-5.661 -2.559,-10.453 l 0,-19.692 -3.249,0 0,35.675 2.691,0 0.689,-4.89 0.197,0 c 0.985,1.772 2.384,3.145 4.2,4.119 1.816,0.974 3.819,1.461 6.007,1.461 5.622,0 9.233,-2.112 10.83,-6.335 l 0.132,0 c 1.158,2.035 2.717,3.599 4.676,4.693 1.958,1.095 4.184,1.642 6.679,1.642 3.894,0 6.815,-1.039 8.763,-3.119 1.947,-2.078 2.92,-5.381 2.92,-9.912 L 3.215,0 0,0 z"
             id="path96"
             style="fill:#504f4f;fill-opacity:1;fill-rule:nonzero;stroke:none" /></g><g
           transform="translate(652.9869,98.2228)"
           id="g98"><path
             d="m 0,0 c -3.435,0 -6.192,-1.132 -8.271,-3.396 -2.078,-2.265 -3.293,-5.531 -3.643,-9.798 l 22.054,0 c 0,4.135 -0.896,7.368 -2.69,9.699 C 5.656,-1.166 3.171,0 0,0 m 0.951,-34.132 c -5.184,0 -9.228,1.596 -12.127,4.791 -2.899,3.194 -4.347,7.668 -4.347,13.424 0,5.689 1.399,10.244 4.2,13.668 2.8,3.425 6.575,5.137 11.323,5.137 4.2,0 7.516,-1.466 9.943,-4.398 2.43,-2.933 3.645,-6.914 3.645,-11.946 l 0,-2.626 -25.699,0 c 0.044,-4.902 1.187,-8.643 3.43,-11.224 2.243,-2.582 5.453,-3.872 9.632,-3.872 2.036,0 3.824,0.142 5.367,0.425 1.542,0.285 3.495,0.898 5.858,1.839 l 0,-2.954 c -2.013,-0.875 -3.873,-1.471 -5.58,-1.789 -1.707,-0.317 -3.588,-0.475 -5.645,-0.475"
             id="path100"
             style="fill:#504f4f;fill-opacity:1;fill-rule:nonzero;stroke:none" /></g><g
           transform="translate(701.2991,64.7466)"
           id="g102"><path
             d="m 0,0 0,23.137 c 0,3.588 -0.756,6.199 -2.266,7.829 -1.508,1.629 -3.85,2.445 -7.023,2.445 -4.267,0 -7.389,-1.078 -9.371,-3.233 -1.979,-2.155 -2.969,-5.65 -2.969,-10.486 l 0,-19.692 -3.249,0 0,35.675 2.757,0 0.624,-4.89 0.197,0 c 2.319,3.72 6.443,5.58 12.373,5.58 8.094,0 12.142,-4.344 12.142,-13.031 L 3.215,0 0,0 z"
             id="path104"
             style="fill:#504f4f;fill-opacity:1;fill-rule:nonzero;stroke:none" /></g><g
           transform="translate(725.4859,66.9775)"
           id="g106"><path
             d="m 0,0 c 2.055,0 3.85,0.176 5.381,0.526 l 0,-2.625 C 3.806,-2.625 1.99,-2.887 -0.067,-2.887 c -3.15,0 -5.474,0.842 -6.974,2.527 -1.498,1.684 -2.248,4.331 -2.248,7.942 l 0,23.039 -5.283,0 0,1.904 5.283,1.477 1.642,8.074 1.673,0 0,-8.631 10.469,0 0,-2.824 -10.469,0 0,-22.58 c 0,-2.735 0.482,-4.759 1.444,-6.07 C -3.567,0.658 -2.057,0 0,0"
             id="path108"
             style="fill:#504f4f;fill-opacity:1;fill-rule:nonzero;stroke:none" /></g><g
           transform="translate(770.2855,64.0909)"
           id="g110"><path
             d="m 0,0 c -5.098,0 -9.091,1.607 -11.979,4.824 -2.889,3.215 -4.332,7.702 -4.332,13.456 0,5.907 1.498,10.508 4.495,13.8 2.998,3.293 7.101,4.94 12.308,4.94 3.086,0 6.039,-0.536 8.861,-1.608 L 8.467,32.523 c -3.084,1.029 -5.765,1.544 -8.04,1.544 -4.377,0 -7.691,-1.352 -9.945,-4.054 -2.254,-2.702 -3.381,-6.591 -3.381,-11.668 0,-4.814 1.127,-8.581 3.381,-11.306 2.254,-2.723 5.404,-4.086 9.453,-4.086 3.237,0 6.246,0.579 9.024,1.739 l 0,-3.018 C 6.684,0.557 3.697,0 0,0"
             id="path112"
             style="fill:#504f4f;fill-opacity:1;fill-rule:nonzero;stroke:none" /></g><g
           transform="translate(789.3196,82.6327)"
           id="g114"><path
             d="m 0,0 c 0,-4.901 1.078,-8.725 3.233,-11.469 2.155,-2.746 5.202,-4.119 9.14,-4.119 3.938,0 6.985,1.373 9.14,4.119 2.155,2.744 3.233,6.568 3.233,11.469 0,4.924 -1.088,8.741 -3.265,11.455 -2.178,2.713 -5.235,4.07 -9.173,4.07 C 8.37,15.525 5.334,14.173 3.2,11.471 1.067,8.769 0,4.945 0,0 m 28.16,0 c 0,-5.819 -1.412,-10.365 -4.233,-13.635 -2.824,-3.272 -6.718,-4.907 -11.686,-4.907 -3.127,0 -5.886,0.754 -8.27,2.265 -2.385,1.51 -4.212,3.676 -5.481,6.497 -1.269,2.824 -1.902,6.083 -1.902,9.78 0,5.821 1.41,10.355 4.233,13.605 2.822,3.249 6.695,4.874 11.619,4.874 4.899,0 8.746,-1.648 11.536,-4.94 C 26.764,10.246 28.16,5.733 28.16,0"
             id="path116"
             style="fill:#504f4f;fill-opacity:1;fill-rule:nonzero;stroke:none" /></g><g
           transform="translate(871.9289,64.7466)"
           id="g118"><path
             d="m 0,0 0,23.401 c 0,3.479 -0.679,6.016 -2.036,7.614 -1.357,1.596 -3.435,2.396 -6.235,2.396 -3.654,0 -6.356,-1.007 -8.107,-3.02 -1.751,-2.013 -2.624,-5.174 -2.624,-9.485 l 0,-20.906 -3.316,0 0,24.385 c 0,6.016 -2.757,9.026 -8.27,9.026 -3.743,0 -6.466,-1.09 -8.173,-3.266 -1.707,-2.177 -2.559,-5.661 -2.559,-10.453 l 0,-19.692 -3.249,0 0,35.675 2.691,0 0.689,-4.89 0.197,0 c 0.985,1.772 2.384,3.145 4.2,4.119 1.816,0.974 3.819,1.461 6.007,1.461 5.622,0 9.233,-2.112 10.83,-6.335 l 0.132,0 c 1.158,2.035 2.717,3.599 4.676,4.693 1.958,1.095 4.184,1.642 6.679,1.642 3.894,0 6.815,-1.039 8.763,-3.119 1.946,-2.078 2.92,-5.381 2.92,-9.912 L 3.215,0 0,0 z"
             id="path120"
             style="fill:#504f4f;fill-opacity:1;fill-rule:nonzero;stroke:none" /></g><g
           transform="translate(901.8908,66.9775)"
           id="g122"><path
             d="m 0,0 c 3.655,0 6.482,1.357 8.484,4.07 2.003,2.712 3.003,6.51 3.003,11.388 0,10.482 -3.785,15.722 -11.355,15.722 -4.158,0 -7.21,-1.144 -9.158,-3.43 -1.946,-2.287 -2.92,-6.012 -2.92,-11.175 l 0,-1.05 c 0,-5.58 0.936,-9.562 2.806,-11.947 C -7.269,1.194 -4.223,0 0,0 m 0.067,-2.887 c -5.492,0 -9.497,2.055 -12.013,6.169 l -0.23,0 0.098,-2.756 c 0.088,-1.619 0.132,-3.392 0.132,-5.317 l 0,-13.587 -3.249,0 0,51.823 2.757,0 0.624,-5.088 0.197,0 c 2.449,3.852 6.366,5.777 11.749,5.777 4.813,0 8.484,-1.581 11.01,-4.743 C 13.67,26.23 14.933,21.629 14.933,15.59 14.933,9.727 13.604,5.181 10.945,1.953 8.287,-1.275 4.661,-2.887 0.067,-2.887"
             id="path124"
             style="fill:#504f4f;fill-opacity:1;fill-rule:nonzero;stroke:none" /></g><g
           transform="translate(935.2387,67.0443)"
           id="g126"><path
             d="m 0,0 c 3.806,0 6.809,1.088 9.008,3.265 2.199,2.178 3.298,5.202 3.298,9.075 l 0,3.512 L 6.07,15.588 C 1.06,15.348 -2.512,14.565 -4.645,13.243 -6.779,11.918 -7.844,9.857 -7.844,7.057 -7.844,4.824 -7.16,3.091 -5.793,1.855 -4.427,0.617 -2.495,0 0,0 m 13.127,-2.298 -0.821,5.645 -0.262,0 C 10.249,1.05 8.407,-0.575 6.513,-1.526 4.622,-2.479 2.384,-2.953 -0.197,-2.953 c -3.502,0 -6.225,0.896 -8.173,2.689 -1.948,1.795 -2.92,4.279 -2.92,7.451 0,3.479 1.449,6.181 4.348,8.106 2.899,1.925 7.093,2.943 12.587,3.054 l 6.793,0.197 0,2.362 c 0,3.392 -0.689,5.951 -2.067,7.679 -1.379,1.729 -3.601,2.593 -6.663,2.593 -3.304,0 -6.728,-0.919 -10.272,-2.756 l -1.215,2.822 c 3.917,1.838 7.79,2.758 11.618,2.758 3.916,0 6.843,-1.018 8.78,-3.054 1.936,-2.034 2.904,-5.207 2.904,-9.518 l 0,-23.728 -2.396,0 z"
             id="path128"
             style="fill:#504f4f;fill-opacity:1;fill-rule:nonzero;stroke:none" /></g><g
           transform="translate(987.1917,64.7466)"
           id="g130"><path
             d="m 0,0 0,23.137 c 0,3.588 -0.756,6.199 -2.266,7.829 -1.508,1.629 -3.85,2.445 -7.023,2.445 -4.267,0 -7.389,-1.078 -9.371,-3.233 -1.979,-2.155 -2.969,-5.65 -2.969,-10.486 l 0,-19.692 -3.249,0 0,35.675 2.757,0 0.624,-4.89 0.197,0 c 2.319,3.72 6.443,5.58 12.373,5.58 8.094,0 12.142,-4.344 12.142,-13.031 L 3.215,0 0,0 z"
             id="path132"
             style="fill:#504f4f;fill-opacity:1;fill-rule:nonzero;stroke:none" /></g><g
           transform="translate(995.9871,100.4221)"
           id="g134"><path
             d="m 0,0 3.347,0 7.549,-20.02 c 2.298,-6.15 3.752,-10.295 4.365,-12.438 l 0.197,0 c 0.92,2.821 2.418,7.034 4.497,12.635 L 27.502,0 30.851,0 14.868,-41.452 c -1.293,-3.369 -2.376,-5.645 -3.249,-6.827 -0.876,-1.181 -1.899,-2.067 -3.07,-2.658 -1.171,-0.591 -2.588,-0.886 -4.249,-0.886 -1.248,0 -2.637,0.23 -4.168,0.689 l 0,2.824 c 1.267,-0.35 2.635,-0.526 4.101,-0.526 1.117,0 2.101,0.262 2.954,0.788 0.854,0.525 1.626,1.339 2.315,2.445 0.689,1.104 1.487,2.855 2.394,5.251 0.909,2.396 1.495,3.954 1.757,4.677 L 0,0 z"
             id="path136"
             style="fill:#504f4f;fill-opacity:1;fill-rule:nonzero;stroke:none" /></g><g
           transform="translate(1612.3429,368.767)"
           id="g138"><path
             d="m 0,0 c 9.13,-22.515 13.76,-46.324 13.76,-70.767 0,-24.442 -4.63,-48.252 -13.76,-70.767 -9.439,-23.277 -23.334,-44.188 -41.297,-62.151 -17.963,-17.964 -38.874,-31.858 -62.151,-41.297 -22.515,-9.131 -46.325,-13.76 -70.767,-13.76 -24.443,0 -48.253,4.629 -70.767,13.76 -23.278,9.439 -44.189,23.333 -62.152,41.297 -17.963,17.963 -31.858,38.874 -41.297,62.151 -9.13,22.515 -13.76,46.325 -13.759,70.767 0,24.443 4.629,48.252 13.759,70.767 9.439,23.277 23.334,44.188 41.297,62.151 17.963,17.964 38.874,31.858 62.152,41.298 22.514,9.13 46.324,13.759 70.767,13.759 24.442,0 48.252,-4.629 70.767,-13.759 23.277,-9.44 44.188,-23.334 62.151,-41.298 C -23.334,44.188 -9.439,23.277 0,0 m -351.44,106.458 c -52.933,-52.933 -77.237,-123.653 -72.917,-192.921 l -37.848,37.849 c -12.235,12.235 -32.072,12.235 -44.307,0 -12.234,-12.235 -12.234,-32.071 0,-44.306 l 155.072,-155.072 c 10e-4,0 0.002,-0.001 0.002,-0.002 97.879,-97.876 256.569,-97.875 354.447,0.002 97.879,97.879 97.879,256.571 0,354.45 -97.878,97.878 -256.571,97.878 -354.449,0"
             id="path140"
             style="fill:#2b74b9;fill-opacity:1;fill-rule:nonzero;stroke:none" /></g></g></g></g></svg>