<?xml version="1.0" encoding="UTF-8" standalone="no"?>
<!-- Created with Inkscape (http://www.inkscape.org/) -->

<svg
   xmlns:dc="http://purl.org/dc/elements/1.1/"
   xmlns:cc="http://creativecommons.org/ns#"
   xmlns:rdf="http://www.w3.org/1999/02/22-rdf-syntax-ns#"
   xmlns:svg="http://www.w3.org/2000/svg"
   xmlns="http://www.w3.org/2000/svg"
   version="1.1"
   width="337"
   height="112.58361"
   id="svg2"
   xml:space="preserve"><metadata
     id="metadata8"><rdf:RDF><cc:Work
         rdf:about=""><dc:format>image/svg+xml</dc:format><dc:type
           rdf:resource="http://purl.org/dc/dcmitype/StillImage" /><dc:title></dc:title></cc:Work></rdf:RDF></metadata><defs
     id="defs6" /><g
     transform="matrix(1.25,0,0,-1.25,-74.89071,157.32199)"
     id="g10"><g
       transform="matrix(0.94212227,0,0,0.94212227,3.4676034,2.0714845)"
       id="g2998"
       style="fill:#ffffff;fill-opacity:1"><path
         d="M 432.09375,29.53125 359.21875,30 358.75,118.71875 352.5,123.5 l 25.90625,0 0.34375,-2.5 -7.0625,-2.65625 0,-17.375 5.40625,0 13.84375,20.84375 -2.53125,0.15625 0.0625,1.53125 20.625,0 0,-3.84375 -6.25,0 -17.25,-28.28125 12,-12.9375 9.5625,-1.9375 0.96875,-3.8125 -24.9375,0 0.5,4.78125 5.75,1.90625 -17.625,17.40625 -0.71875,-48.4375 52.875,-8.28125 0.46875,88.25 -349.125,0 357.28125,20.71875 -0.5,-119.5 z m -5.625,99.53125 0.40625,0 -0.0312,3.8125 2.90625,0 0,0.875 -2.9375,0 -0.0937,7.5625 c -0.004,0.37525 0.0341,0.68512 0.0937,0.9375 0.0595,0.25262 0.14013,0.45763 0.25,0.59375 0.11612,0.14238 0.25412,0.25437 0.40625,0.3125 0.14525,0.0581 0.288,0.0625 0.46875,0.0625 0.30575,0 0.59512,-0.0816 0.875,-0.25 0.28025,-0.16825 0.50638,-0.413 0.65625,-0.75 l 0.5625,0 c -0.32238,0.82875 -0.78612,1.46075 -1.375,1.875 -0.58813,0.41425 -1.21875,0.625 -1.84375,0.625 -0.71575,0 -1.2935,-0.24638 -1.71875,-0.71875 -0.43225,-0.46625 -0.63887,-1.26675 -0.625,-2.40625 l 0.0937,-7.84375 -2,0 0,-0.40625 c 0.78162,-0.2785 1.49187,-0.7575 2.125,-1.4375 0.6265,-0.67325 1.23162,-1.62063 1.78125,-2.84375 z M 399.875,132.5 l 0.59375,0 -0.0312,2.5 c 1.47163,-1.65687 2.88462,-2.5 4.21875,-2.5 0.4585,0 0.894,0.07 1.28125,0.21875 0.394,0.1425 0.73687,0.38212 1.03125,0.71875 0.28775,0.33662 0.496,0.81187 0.65625,1.375 0.153,0.56262 0.22863,1.259 0.21875,2.09375 l -0.0625,4.96875 c -0.006,0.50488 0.0346,0.89587 0.0937,1.1875 0.0591,0.2845 0.14413,0.50737 0.28125,0.65625 0.14425,0.14238 0.35137,0.24263 0.59375,0.28125 0.24312,0.039 0.5555,0.0625 0.9375,0.0625 l 0,0.4375 -6.1875,0 0,-0.4375 0.25,0 c 0.40287,0 0.73137,-0.0538 0.96875,-0.125 0.23712,-0.0711 0.41075,-0.18213 0.53125,-0.34375 0.113,-0.16825 0.18037,-0.37175 0.21875,-0.65625 0.0379,-0.285 0.0575,-0.64825 0.0625,-1.0625 l 0.0625,-4.75 c 0.0131,-1.07463 -0.12025,-1.84663 -0.40625,-2.3125 -0.28663,-0.466 -0.79838,-0.71875 -1.5,-0.71875 -1.098,0 -2.18063,0.57413 -3.25,1.6875 l -0.0625,6.09375 c -0.006,0.49175 -8.8e-4,0.87175 0.0312,1.15625 0.0312,0.28487 0.12,0.50075 0.25,0.65625 0.13712,0.14888 0.32337,0.23587 0.59375,0.28125 0.27075,0.0454 0.64562,0.0937 1.125,0.0937 l 0,0.4375 -6.15625,0 0,-0.4375 0.25,0 c 0.31963,0 0.60312,-0.0538 0.8125,-0.125 0.20938,-0.0711 0.37313,-0.18212 0.5,-0.34375 0.1205,-0.16825 0.198,-0.40263 0.25,-0.6875 0.0518,-0.28487 0.0888,-0.61025 0.0937,-1.03125 l 0.0312,-4.3125 c 0.01,-0.83513 0.0221,-1.48425 0,-1.9375 -0.0224,-0.4595 -0.0822,-0.79262 -0.15625,-1 -0.067,-0.21325 -0.1565,-0.33638 -0.28125,-0.375 -0.1315,-0.0325 -0.31212,-0.0625 -0.5,-0.0625 -0.13175,0 -0.267,0.03 -0.40625,0.0625 -0.14637,0.0323 -0.3115,0.0605 -0.5,0.125 l -0.1875,-0.46875 3.75,-1.40625 z m 16.875,0 c 0.68813,0 1.32525,0.12375 1.90625,0.34375 0.574,0.22675 1.07412,0.52963 1.5,0.9375 0.41875,0.41425 0.73237,0.91787 0.96875,1.5 0.236,0.58288 0.35262,1.24375 0.34375,1.96875 l -8.625,0 c -0.01,0.87413 0.10175,1.66413 0.34375,2.34375 0.242,0.686 0.55775,1.2645 0.96875,1.75 0.41137,0.479 0.89112,0.84113 1.4375,1.09375 0.54575,0.25225 1.13838,0.375 1.75,0.375 0.81313,0 1.51525,-0.20438 2.125,-0.625 0.6095,-0.421 1.1405,-1.15812 1.5625,-2.1875 l 0.40625,0.25 c -0.10425,0.56975 -0.30212,1.13725 -0.59375,1.6875 -0.29125,0.55025 -0.6505,1.02862 -1.09375,1.46875 -0.44962,0.43375 -0.97537,0.797 -1.5625,1.0625 -0.5865,0.26537 -1.21813,0.40625 -1.90625,0.40625 -0.74337,0 -1.43725,-0.15262 -2.09375,-0.4375 -0.64988,-0.28487 -1.23125,-0.688 -1.71875,-1.21875 -0.49388,-0.5245 -0.87287,-1.16188 -1.15625,-1.90625 -0.28275,-0.73812 -0.41762,-1.54288 -0.40625,-2.46875 0.0113,-0.99675 0.1605,-1.90437 0.46875,-2.6875 0.30788,-0.78338 0.72913,-1.4565 1.25,-2 0.5205,-0.544 1.13888,-0.94025 1.84375,-1.21875 0.69837,-0.2785 1.46812,-0.4375 2.28125,-0.4375 z m -0.78125,0.90625 c -0.3615,0 -0.738,0.0828 -1.09375,0.21875 -0.35613,0.1425 -0.6565,0.32837 -0.9375,0.59375 -0.281,0.2655 -0.52637,0.58075 -0.71875,0.96875 -0.192,0.382 -0.32713,0.82075 -0.375,1.3125 l 5.8125,0 c -0.0566,-1.07425 -0.332,-1.84525 -0.8125,-2.34375 -0.47375,-0.49863 -1.09663,-0.75 -1.875,-0.75 z m -23.59375,8.625 c 0.40287,0 0.767,0.1345 1.0625,0.40625 0.2955,0.27213 0.44213,0.61162 0.4375,1 -0.005,0.39475 -0.16688,0.7215 -0.46875,1 -0.30225,0.2785 -0.65963,0.4375 -1.0625,0.4375 -0.42413,0 -0.7985,-0.159 -1.09375,-0.4375 -0.2955,-0.2785 -0.44213,-0.60525 -0.4375,-1 0.005,-0.4015 0.1665,-0.73463 0.46875,-1 0.3015,-0.26538 0.66963,-0.40625 1.09375,-0.40625 z"
         transform="matrix(0.8,0,0,-0.8,0,155.0157)"
         id="path16"
         style="fill:#ffffff;fill-opacity:1;fill-rule:evenodd;stroke:none" /><path
         d="m 82.5384,82.2362 0.0595,5.3549 c 0.0394,3.5535 -2.9154,4.8682 -10.8989,4.8682 -7.9838,0 -10.9707,-1.5579 -11.0183,-5.8419 L 60.6132,80.5326 C 60.5429,74.2039 74.1277,70.0659 74.0684,64.711 c -0.0173,-1.5579 -1.1469,-2.4341 -3.1915,-2.4341 -2.0446,0 -3.1566,0.6817 -3.1425,1.9474 l 0.0323,2.9208 -7.789,0 -0.0649,-5.8416 c -0.0352,-3.1644 3.9379,-4.868 11.3862,-4.868 8.373,0 11.4573,1.5574 11.5047,5.8414 l 0.0757,6.8156 c 0.0703,6.3284 -14.004,10.2229 -13.9448,15.5778 0.0142,1.2657 1.044,1.9471 2.9427,1.9471 1.8986,0 2.9154,-0.4867 2.9046,-1.4604 l -0.0323,-2.9208 7.7888,0 z m 14.1247,9.7361 -0.3889,-35.0501 18.4986,0 0.0757,6.8151 -8.7625,0 0.0811,7.3023 5.8417,0 0.0756,6.8154 -5.8419,0 0.0811,7.302 8.7624,0 0.0757,6.8153 -18.4986,0 z m 41.4567,-5.8416 1.9471,0 c 1.2657,0 1.9375,-0.8765 1.9202,-2.4341 l -0.0538,-4.8679 c -0.0173,-1.558 -0.7087,-2.4344 -1.9744,-2.4344 l -1.9474,0 0.1083,9.7364 z m -9.6715,5.8416 -0.3889,-35.0501 9.7361,0 0.1514,13.6307 2.3366,0 c 0.9249,0 1.5471,-0.9737 1.5307,-2.4341 l -0.0539,-4.8682 c -0.0513,-4.6247 0.2217,-6.3284 1.6337,-6.3284 l 8.2757,0 c -0.1355,0.9735 -0.2171,2.3854 -0.2004,3.8946 l 0.0757,6.815 c 0.0303,2.7264 -3.0079,5.3062 -6.2592,6.2314 4.1939,0.6815 5.8677,2.3363 5.9023,5.4522 l 0.0757,6.8153 c 0.0473,4.2837 -3.0997,5.8416 -11.6187,5.8416 l -11.1968,0 z m 36.4096,0 -0.1403,-12.6569 c -0.0973,-8.7625 6.567,-22.3932 6.567,-22.3932 l 9.7359,0 c 0,0 6.9667,13.6307 7.0639,22.3932 l 0.1403,12.6569 -9.7358,0 -0.1741,-15.6753 c -0.0445,-3.9917 -1.2016,-11.7807 -2.0976,-13.5331 -0.8079,1.7524 -1.8414,9.5414 -1.7969,13.5331 l 0.1737,15.6753 -9.7361,0 z m 36.8966,0 -0.3889,-35.0501 9.7361,0 0.3889,35.0501 -9.7361,0 z m 45.5187,-12.6569 0.0865,7.789 c 0.0431,3.8942 -2.8128,5.3549 -10.6503,5.3549 -8.519,0 -11.7009,-1.5579 -11.7482,-5.8419 L 224.691,62.2769 c -0.0476,-4.284 3.0994,-5.8414 11.6184,-5.8414 7.8378,0 10.726,1.4602 10.7694,5.355 l 0.0864,7.7887 -8.7624,0 -0.0542,-4.8682 c -0.0173,-1.5579 -0.7083,-2.4341 -1.9743,-2.4341 -1.2657,0 -1.9375,0.8762 -1.9202,2.4341 l 0.216,19.4726 c 0.0173,1.5576 0.7087,2.4338 1.9743,2.4338 1.266,0 1.9375,-0.8762 1.9202,-2.4338 l -0.0538,-4.8682 8.7624,0 z m 13.6707,12.6569 -0.3892,-35.0501 18.4986,0 0.0757,6.8151 -8.7625,0 0.0811,7.3023 5.8419,0 0.0754,6.8154 -5.8416,0 0.081,7.302 8.7625,0 0.0757,6.8153 -18.4986,0 z"
         id="path18"
         style="fill:#ffffff;fill-opacity:1;fill-rule:evenodd;stroke:none" /></g></g></svg>