<?xml version="1.0" encoding="UTF-8" standalone="no"?>
<svg
   xmlns:dc="http://purl.org/dc/elements/1.1/"
   xmlns:cc="http://creativecommons.org/ns#"
   xmlns:rdf="http://www.w3.org/1999/02/22-rdf-syntax-ns#"
   xmlns:svg="http://www.w3.org/2000/svg"
   xmlns="http://www.w3.org/2000/svg"
   xmlns:sodipodi="http://sodipodi.sourceforge.net/DTD/sodipodi-0.dtd"
   xmlns:inkscape="http://www.inkscape.org/namespaces/inkscape"
   viewBox="0 0 125.40233 50.000003"
   height="50"
   width="125.40233"
   class="logo-default"
   id="svg4136"
   version="1.1"
   inkscape:version="0.91 r13725"
   sodipodi:docname="logo-rtl2.svg">
  <metadata
     id="metadata4160">
    <rdf:RDF>
      <cc:Work
         rdf:about="">
        <dc:format>image/svg+xml</dc:format>
        <dc:type
           rdf:resource="http://purl.org/dc/dcmitype/StillImage" />
        <dc:title></dc:title>
      </cc:Work>
    </rdf:RDF>
  </metadata>
  <defs
     id="defs4158" />
  <sodipodi:namedview
     pagecolor="#ffffff"
     bordercolor="#666666"
     borderopacity="1"
     objecttolerance="10"
     gridtolerance="10"
     guidetolerance="10"
     inkscape:pageopacity="0"
     inkscape:pageshadow="2"
     inkscape:window-width="1547"
     inkscape:window-height="876"
     id="namedview4156"
     showgrid="false"
     fit-margin-top="0"
     fit-margin-left="0"
     fit-margin-right="0"
     fit-margin-bottom="0"
     inkscape:zoom="4"
     inkscape:cx="59.07959"
     inkscape:cy="39.254079"
     inkscape:window-x="1653"
     inkscape:window-y="24"
     inkscape:window-maximized="1"
     inkscape:current-layer="svg4136"
     inkscape:snap-page="false"
     inkscape:document-units="px"
     units="px"
     inkscape:object-paths="false" />
  <path
     style="fill:#428bca"
     d="m 109.08182,24.998397 c 0.001,4.739999 -3.83971,8.583708 -8.57971,8.585292 -4.740003,0.0013 -8.58382,-3.839686 -8.58531,-8.579694 -0.0012,-4.739987 3.839709,-8.583804 8.5797,-8.585298 4.74001,-0.0012 8.58383,3.839698 8.58532,8.5797"
     id="path4142"
     inkscape:connector-curvature="0" />
  <path
     sodipodi:nodetypes="ccscccsssss"
     style="fill:#ffffff;fill-opacity:1"
     d="m 100.49939,50.000003 c -13.743342,0 -25.313692,-11.255314 -24.980085,-25.326796 C 75.852912,10.601721 87.178689,0 100.4994,0 c 13.32987,0 24.50672,10.615873 24.89348,24.680283 0.38674,14.064406 -11.15022,25.31972 -24.89355,25.31972 z m 0,-12.407089 c 7.08431,0 12.59423,-5.507282 12.59423,-12.591561 0,-7.084313 -5.50992,-12.594233 -12.59423,-12.594233 -7.084299,0 -12.591568,5.50992 -12.591568,12.594233 0,7.084295 5.507269,12.591561 12.591568,12.591561 z"
     id="path4144"
     inkscape:connector-curvature="0" />
  <path
     style="opacity:1;fill:#ffffff;fill-opacity:1;fill-rule:nonzero;stroke:none;stroke-width:124.11699677;stroke-linecap:round;stroke-linejoin:round;stroke-miterlimit:4;stroke-dasharray:none;stroke-opacity:1"
     d="M 12.990234 7.4121094 C 5.793735 7.4121094 1.1842379e-15 15.258511 0 25.001953 C 0 34.74539 5.793735 42.587891 12.990234 42.587891 L 79.169922 42.587891 C 74.809572 37.839711 72.195108 31.580391 72.392578 24.681641 C 72.585228 17.950085 75.203888 11.964902 79.361328 7.4121094 L 12.990234 7.4121094 z M 64.556641 12.650391 L 65.542969 12.650391 C 65.730924 12.650391 65.824219 12.745639 65.824219 12.933594 L 65.824219 28.269531 C 65.824219 28.870987 65.777572 29.398517 65.683594 29.849609 C 65.589616 30.300701 65.420123 30.675836 65.175781 30.976562 C 64.93144 31.258495 64.594406 31.474636 64.162109 31.625 C 63.748609 31.756568 63.203981 31.822266 62.527344 31.822266 L 60.769531 31.822266 L 60.75 31.822266 L 58.796875 31.822266 L 58.796875 33.205078 C 58.796875 34.671127 58.487438 35.722281 57.867188 36.361328 C 57.265732 37.01917 56.305919 37.349609 54.990234 37.349609 L 51.072266 37.349609 C 50.88431 37.349609 50.791016 37.254361 50.791016 37.066406 L 50.791016 36.050781 C 50.791016 35.862827 50.88431 35.769531 51.072266 35.769531 L 54.511719 35.769531 C 55.432698 35.769531 56.10872 35.600037 56.541016 35.261719 C 56.992108 34.923399 57.21875 34.247378 57.21875 33.232422 L 57.21875 31.822266 L 54.033203 31.822266 C 53.243793 31.822266 52.527719 31.72897 51.888672 31.541016 C 51.249625 31.353061 50.69645 31.043625 50.226562 30.611328 C 49.775472 30.179032 49.427935 29.604854 49.183594 28.890625 C 48.939252 28.157601 48.816406 27.254936 48.816406 26.183594 C 48.816406 25.168637 48.9478 24.276475 49.210938 23.505859 C 49.474073 22.716449 49.832111 22.068026 50.283203 21.560547 C 50.75309 21.034274 51.287216 20.64009 51.888672 20.376953 C 52.508923 20.095021 53.176396 19.953125 53.890625 19.953125 C 55.563424 19.953125 56.794574 20.451105 57.583984 21.447266 C 58.39219 22.443427 58.796875 23.966916 58.796875 26.015625 L 58.796875 30.244141 L 60.75 30.244141 L 60.769531 30.244141 L 62.808594 30.244141 C 63.278481 30.244141 63.634565 30.131796 63.878906 29.90625 C 64.142043 29.680704 64.273438 29.295069 64.273438 28.75 L 64.273438 12.933594 C 64.273438 12.745639 64.368685 12.650391 64.556641 12.650391 z M 40.125 19.953125 C 41.797799 19.953125 43.028949 20.451105 43.818359 21.447266 C 44.626566 22.443427 45.03125 23.966916 45.03125 26.015625 L 45.03125 33.205078 C 45.03125 34.671127 44.719861 35.722281 44.099609 36.361328 C 43.498153 37.01917 42.540294 37.349609 41.224609 37.349609 L 37.306641 37.349609 C 37.118686 37.349609 37.023437 37.254361 37.023438 37.066406 L 37.023438 36.050781 C 37.023438 35.862827 37.118686 35.769531 37.306641 35.769531 L 40.746094 35.769531 C 41.667073 35.769531 42.343095 35.600037 42.775391 35.261719 C 43.226483 34.923399 43.451172 34.247378 43.451172 33.232422 L 43.451172 31.822266 L 40.265625 31.822266 C 39.476214 31.822266 38.762094 31.72897 38.123047 31.541016 C 37.484 31.353061 36.930824 31.043625 36.460938 30.611328 C 36.009846 30.179032 35.660357 29.604854 35.416016 28.890625 C 35.171674 28.157601 35.050781 27.254936 35.050781 26.183594 C 35.050781 25.168637 35.182177 24.276475 35.445312 23.505859 C 35.70845 22.716449 36.064534 22.068026 36.515625 21.560547 C 36.985512 21.034274 37.521591 20.64009 38.123047 20.376953 C 38.743298 20.095021 39.410771 19.953125 40.125 19.953125 z M 30.292969 20.460938 L 31.279297 20.460938 C 31.467252 20.460938 31.5625 20.554233 31.5625 20.742188 L 31.5625 28.777344 C 31.5625 29.848686 31.327309 30.628505 30.857422 31.117188 C 30.387535 31.587074 29.643863 31.822266 28.628906 31.822266 L 15.181641 31.822266 C 13.997525 31.822266 13.15201 31.587074 12.644531 31.117188 C 12.137053 30.6473 11.882812 29.848432 11.882812 28.720703 L 11.882812 22.546875 C 11.882812 22.35892 11.976109 22.265625 12.164062 22.265625 L 13.152344 22.265625 C 13.340298 22.265625 13.433594 22.35892 13.433594 22.546875 L 13.433594 28.75 C 13.433594 29.295069 13.53739 29.680704 13.744141 29.90625 C 13.969687 30.131796 14.317222 30.244141 14.787109 30.244141 L 28.628906 30.244141 C 29.117589 30.244141 29.467077 30.140344 29.673828 29.933594 C 29.899374 29.708048 30.011719 29.313865 30.011719 28.75 L 30.011719 20.742188 C 30.011719 20.554233 30.105014 20.460938 30.292969 20.460938 z M 40.125 21.533203 C 39.091248 21.533203 38.254281 21.927386 37.615234 22.716797 C 36.994983 23.506207 36.685547 24.680208 36.685547 26.240234 C 36.685547 26.992054 36.751246 27.621428 36.882812 28.128906 C 37.033176 28.636384 37.257866 29.049617 37.558594 29.369141 C 37.859322 29.669868 38.236408 29.896511 38.6875 30.046875 C 39.138591 30.178444 39.664169 30.244141 40.265625 30.244141 L 43.451172 30.244141 L 43.451172 26.072266 C 43.451172 24.625012 43.198884 23.506207 42.691406 22.716797 C 42.183928 21.927386 41.327911 21.533203 40.125 21.533203 z M 53.890625 21.533203 C 52.856872 21.533203 52.021859 21.927386 51.382812 22.716797 C 50.762562 23.506207 50.451172 24.680208 50.451172 26.240234 C 50.451172 26.992054 50.516869 27.621428 50.648438 28.128906 C 50.7988 28.636384 51.025444 29.049617 51.326172 29.369141 C 51.6269 29.669868 52.002034 29.896511 52.453125 30.046875 C 52.904217 30.178444 53.431747 30.244141 54.033203 30.244141 L 57.21875 30.244141 L 57.21875 26.072266 C 57.21875 24.625012 56.96451 23.506207 56.457031 22.716797 C 55.949553 21.927386 55.093536 21.533203 53.890625 21.533203 z M 20.847656 34.191406 L 22.314453 34.191406 C 22.502408 34.191406 22.595703 34.284701 22.595703 34.472656 L 22.595703 36.164062 C 22.595703 36.352018 22.502408 36.447266 22.314453 36.447266 L 20.847656 36.447266 C 20.659702 36.447266 20.566406 36.352018 20.566406 36.164062 L 20.566406 34.472656 C 20.566406 34.284701 20.659702 34.191406 20.847656 34.191406 z "
     transform="translate(-3.8146975e-6,0)"
     id="rect4230-7" />
</svg>
