<?xml version="1.0" encoding="UTF-8" standalone="no"?>
<svg
   xmlns:dc="http://purl.org/dc/elements/1.1/"
   xmlns:cc="http://creativecommons.org/ns#"
   xmlns:rdf="http://www.w3.org/1999/02/22-rdf-syntax-ns#"
   xmlns:svg="http://www.w3.org/2000/svg"
   xmlns="http://www.w3.org/2000/svg"
   xmlns:sodipodi="http://sodipodi.sourceforge.net/DTD/sodipodi-0.dtd"
   xmlns:inkscape="http://www.inkscape.org/namespaces/inkscape"
   viewBox="0 0 125.40233 50.000003"
   height="50"
   width="125.40233"
   class="logo-default"
   id="svg4136"
   version="1.1"
   inkscape:version="0.91 r13725"
   sodipodi:docname="logo-rtl.svg">
  <metadata
     id="metadata4160">
    <rdf:RDF>
      <cc:Work
         rdf:about="">
        <dc:format>image/svg+xml</dc:format>
        <dc:type
           rdf:resource="http://purl.org/dc/dcmitype/StillImage" />
        <dc:title></dc:title>
      </cc:Work>
    </rdf:RDF>
  </metadata>
  <defs
     id="defs4158" />
  <sodipodi:namedview
     pagecolor="#ffffff"
     bordercolor="#666666"
     borderopacity="1"
     objecttolerance="10"
     gridtolerance="10"
     guidetolerance="10"
     inkscape:pageopacity="0"
     inkscape:pageshadow="2"
     inkscape:window-width="1547"
     inkscape:window-height="876"
     id="namedview4156"
     showgrid="false"
     fit-margin-top="0"
     fit-margin-left="0"
     fit-margin-right="0"
     fit-margin-bottom="0"
     inkscape:zoom="4"
     inkscape:cx="32.730551"
     inkscape:cy="17.7058"
     inkscape:window-x="1653"
     inkscape:window-y="24"
     inkscape:window-maximized="1"
     inkscape:current-layer="svg4136"
     inkscape:snap-page="false"
     inkscape:document-units="px"
     units="px" />
  <path
     style="fill:#ed2790"
     d="m 109.08182,24.998397 c 0.001,4.739999 -3.83971,8.583708 -8.57971,8.585292 -4.740003,0.0013 -8.58382,-3.839686 -8.58531,-8.579694 -0.0012,-4.739987 3.839709,-8.583804 8.5797,-8.585298 4.74001,-0.0012 8.58383,3.839698 8.58532,8.5797"
     id="path4142"
     inkscape:connector-curvature="0" />
  <path
     sodipodi:nodetypes="ccscccsssss"
     style="fill:#ffffff;fill-opacity:1"
     d="m 100.49939,50.000003 c -13.743342,0 -25.313692,-11.255314 -24.980085,-25.326796 C 75.852912,10.601721 87.178689,0 100.4994,0 c 13.32987,0 24.50672,10.615873 24.89348,24.680283 0.38674,14.064406 -11.15022,25.31972 -24.89355,25.31972 z m 0,-12.407089 c 7.08431,0 12.59423,-5.507282 12.59423,-12.591561 0,-7.084313 -5.50992,-12.594233 -12.59423,-12.594233 -7.084299,0 -12.591568,5.50992 -12.591568,12.594233 0,7.084295 5.507269,12.591561 12.591568,12.591561 z"
     id="path4144"
     inkscape:connector-curvature="0" />
  <path
     style="opacity:1;fill:#ffffff;fill-opacity:1;fill-rule:nonzero;stroke:none;stroke-width:124.11699677;stroke-linecap:round;stroke-linejoin:round;stroke-miterlimit:4;stroke-dasharray:none;stroke-opacity:1"
     d="M 12.99023,7.4121111 C 5.7937302,7.4121111 -3.8146975e-6,15.258511 -3.8146975e-6,25.001954 -3.8146975e-6,34.745391 5.7937302,42.587892 12.99023,42.587892 l 66.179687,0 c -4.36035,-4.74818 -6.97481,-11.007499 -6.77734,-17.90625 0.19265,-6.731556 2.81131,-12.716738 6.96875,-17.2695309 l -66.371097,0 z m -0.783203,3.6230459 1.105469,0 c 0.216501,0 0.324219,0.10967 0.324219,0.326172 l 0,18.152344 c 0,0.757756 0.128869,1.288695 0.388671,1.591797 0.259802,0.281453 0.683024,0.421875 1.267579,0.421875 l 0.550781,0 c 0.216502,0 0.326172,0.10967 0.326172,0.326172 l 0,1.039062 c 0,0.216502 -0.10967,0.324219 -0.326172,0.324219 l -0.746094,0 c -1.169109,0 -2.002046,-0.280845 -2.5,-0.84375 -0.476304,-0.562904 -0.714844,-1.493958 -0.714844,-2.792969 l 0,-18.21875 c 0,-0.216502 0.107717,-0.326172 0.324219,-0.326172 z m 13.46875,6.267578 c 1.428911,0 2.640811,0.348211 3.636719,1.041016 1.017558,0.692806 1.742778,1.687318 2.175781,2.986328 0.173201,0.519604 0.304024,1.094802 0.390625,1.722656 0.0866,0.606205 0.128906,1.373731 0.128906,2.304688 0,0.952607 -0.0423,1.743238 -0.128906,2.371094 -0.0866,0.606204 -0.217424,1.167896 -0.390625,1.6875 -0.433003,1.29901 -1.158223,2.295476 -2.175781,2.988281 -0.995908,0.692806 -2.207808,1.039062 -3.636719,1.039063 -1.428911,0 -2.640811,-0.346257 -3.636719,-1.039063 -0.995907,-0.692805 -1.711528,-1.689271 -2.144531,-2.988281 -0.173201,-0.519604 -0.302071,-1.081296 -0.388672,-1.6875 -0.0866,-0.627856 -0.130859,-1.418487 -0.130859,-2.371094 0,-0.930957 0.04426,-1.698483 0.130859,-2.304688 0.0866,-0.627854 0.215471,-1.203052 0.388672,-1.722656 0.433003,-1.29901 1.148624,-2.293522 2.144531,-2.986328 0.995908,-0.692805 2.207808,-1.041015 3.636719,-1.041016 z m 16.554688,0 c 1.42891,0 2.64081,0.348211 3.636718,1.041016 1.017558,0.692806 1.742778,1.687318 2.175782,2.986328 0.173201,0.519604 0.304024,1.094802 0.390624,1.722656 0.0866,0.606205 0.128907,1.373731 0.128907,2.304688 0,0.952607 -0.04231,1.743238 -0.128907,2.371094 -0.0866,0.606204 -0.217423,1.167896 -0.390624,1.6875 -0.433004,1.29901 -1.158224,2.295476 -2.175782,2.988281 -0.995908,0.692806 -2.207808,1.039062 -3.636718,1.039063 -1.428912,0 -2.640811,-0.346257 -3.636719,-1.039063 -0.995908,-0.692805 -1.711528,-1.689271 -2.144531,-2.988281 -0.173202,-0.519604 -0.302072,-1.081296 -0.388672,-1.6875 -0.0866,-0.627856 -0.13086,-1.418487 -0.13086,-2.371094 0,-0.930957 0.04426,-1.698483 0.13086,-2.304688 0.0866,-0.627854 0.21547,-1.203052 0.388672,-1.722656 0.433003,-1.29901 1.148623,-2.293522 2.144531,-2.986328 0.995908,-0.692805 2.207807,-1.041015 3.636719,-1.041016 z m 17.789062,0 c 2.68462,0 4.43706,1.235006 5.25977,3.703126 0.19485,0.627855 0.33722,1.299216 0.42382,2.013671 0.0866,0.692806 0.12891,1.483437 0.12891,2.371094 0,0.866007 -0.04231,1.654685 -0.12891,2.369141 -0.0866,0.692805 -0.22897,1.354566 -0.42382,1.982422 -0.82271,2.468119 -2.57515,3.701172 -5.25977,3.701172 -1.29901,0 -2.31663,-0.23854 -3.05273,-0.714844 -0.73611,-0.476304 -1.2882,-1.082254 -1.65625,-1.81836 l -0.03321,0 0,7.730469 c 0,0.216502 -0.10772,0.324219 -0.32422,0.324219 l -1.10351,0 c -0.2165,0 -0.32617,-0.107717 -0.32617,-0.324219 l 0,-20.6875 c 0,-0.216501 0.10967,-0.324219 0.32617,-0.324219 l 1.10351,0 c 0.2165,0 0.32422,0.107718 0.32422,0.324219 l 0,1.882813 0.03321,0 c 0.36805,-0.736106 0.92014,-1.342056 1.65625,-1.81836 0.7361,-0.476304 1.75372,-0.714843 3.05273,-0.714844 z m -34.34375,1.689454 c -0.995908,0 -1.851951,0.250093 -2.566406,0.748046 -0.714456,0.497954 -1.222289,1.211621 -1.525391,2.142579 -0.151551,0.433003 -0.259268,0.919682 -0.324219,1.460937 -0.06495,0.519604 -0.09766,1.190966 -0.09766,2.013672 0,0.844357 0.0327,1.53687 0.09766,2.078125 0.06495,0.519604 0.17267,0.996684 0.324219,1.429687 0.303102,0.930958 0.810935,1.644625 1.525391,2.142579 0.714455,0.497954 1.570498,0.748046 2.566406,0.748047 1.017558,0 1.883201,-0.250093 2.597656,-0.748047 0.714456,-0.497954 1.224242,-1.211621 1.527344,-2.142579 0.151551,-0.433003 0.259268,-0.910083 0.324219,-1.429687 0.06495,-0.541255 0.09766,-1.233768 0.09766,-2.078125 0,-0.822706 -0.0327,-1.494068 -0.09766,-2.013672 -0.06495,-0.541255 -0.17267,-1.027934 -0.324219,-1.460937 -0.303102,-0.930958 -0.812888,-1.644625 -1.527344,-2.142579 -0.714455,-0.497953 -1.580098,-0.748046 -2.597656,-0.748046 z m 16.554688,0 c -0.995908,0 -1.851951,0.250093 -2.566407,0.748046 -0.714455,0.497954 -1.222288,1.211621 -1.52539,2.142579 -0.151552,0.433003 -0.259268,0.919682 -0.324219,1.460937 -0.06495,0.519604 -0.09766,1.190966 -0.09766,2.013672 0,0.844357 0.0327,1.53687 0.09766,2.078125 0.06495,0.519604 0.17267,0.996684 0.324219,1.429687 0.303102,0.930958 0.810935,1.644625 1.52539,2.142579 0.714456,0.497954 1.570499,0.748046 2.566407,0.748047 1.017557,0 1.8832,-0.250093 2.597656,-0.748047 0.714455,-0.497954 1.224241,-1.211621 1.527344,-2.142579 0.151551,-0.433003 0.259268,-0.910083 0.324218,-1.429687 0.06495,-0.541255 0.09766,-1.233768 0.09766,-2.078125 0,-0.822706 -0.0327,-1.494068 -0.09766,-2.013672 -0.06495,-0.541255 -0.172671,-1.027934 -0.324218,-1.460937 -0.303103,-0.930958 -0.812889,-1.644625 -1.527344,-2.142579 -0.714456,-0.497953 -1.580099,-0.748046 -2.597656,-0.748046 z m 17.431642,0 c -0.97426,0 -1.8072,0.226986 -2.5,0.68164 -0.67116,0.454654 -1.15979,1.137568 -1.46289,2.046875 -0.15156,0.433004 -0.25927,0.940836 -0.32422,1.525391 -0.06493,0.584555 -0.09766,1.300175 -0.09766,2.144531 0,0.844356 0.03273,1.558024 0.09766,2.142578 0.06493,0.562905 0.17265,1.061138 0.32422,1.494141 0.3031,0.909307 0.79173,1.590268 1.46289,2.044922 0.6928,0.454653 1.52574,0.683594 2.5,0.683594 1.0392,0 1.88369,-0.228941 2.5332,-0.683594 0.64951,-0.476304 1.12464,-1.157266 1.42774,-2.044922 0.1732,-0.497954 0.28287,-1.050045 0.32617,-1.65625 0.06493,-0.627855 0.09765,-1.287664 0.09765,-1.980469 0,-0.692806 -0.03272,-1.354567 -0.09765,-1.982422 -0.04334,-0.627854 -0.153,-1.189546 -0.32617,-1.6875 -0.3031,-0.887657 -0.77823,-1.559018 -1.42774,-2.013672 -0.64951,-0.476304 -1.494,-0.714843 -2.5332,-0.714843 z"
     id="rect4230-7"
     inkscape:connector-curvature="0" />
</svg>
