<?xml version="1.0" encoding="UTF-8" standalone="no"?>
<!-- Created with Inkscape (http://www.inkscape.org/) -->

<svg
   xmlns:dc="http://purl.org/dc/elements/1.1/"
   xmlns:cc="http://creativecommons.org/ns#"
   xmlns:rdf="http://www.w3.org/1999/02/22-rdf-syntax-ns#"
   xmlns:svg="http://www.w3.org/2000/svg"
   xmlns="http://www.w3.org/2000/svg"
   version="1.1"
   width="337"
   height="103.14927"
   id="svg2"
   xml:space="preserve"><metadata
     id="metadata8"><rdf:RDF><cc:Work
         rdf:about=""><dc:format>image/svg+xml</dc:format><dc:type
           rdf:resource="http://purl.org/dc/dcmitype/StillImage" /><dc:title></dc:title></cc:Work></rdf:RDF></metadata><defs
     id="defs6" /><g
     transform="matrix(1.25,0,0,-1.25,-211.59201,728.36528)"
     id="g10"><g
       transform="matrix(0.8631738,0,0,0.8631738,22.616728,87.760648)"
       id="g12"
       style="fill:#ffffff;fill-opacity:1"><path
         d="m 589.6875,336.8125 -72.875,0.46875 -0.46875,88.71875 -6.25,4.78125 25.90625,0 0.34375,-2.5 -7.0625,-2.65625 0,-17.375 5.40625,0 13.84375,20.84375 -2.53125,0.1875 0.0625,1.5 20.625,0 0,-3.84375 -6.25,0 -17.25,-28.28125 12,-12.9375 9.5625,-1.9375 0.96875,-3.8125 -24.9375,0 0.5,4.78125 5.75,1.9375 -17.625,17.375 -0.71875,-48.4375 52.875,-8.28125 0.46875,88.25 -382.11392,0 390.27017,20.71875 z M 576,437.96875 l 1.8125,0 0,3.25 3.4375,0 0,1.0625 -3.4375,0 0,6.65625 c -10e-6,0.88733 0.11041,1.43774 0.28125,1.6875 0.17089,0.24976 0.4774,0.375 0.9375,0.375 0.47324,0 0.81434,-0.13019 1.03125,-0.40625 0.2169,-0.28263 0.33059,-0.75059 0.34375,-1.375 l 1.375,0 c -0.0526,0.95305 -0.3146,1.65338 -0.78125,2.09375 -0.46667,0.44037 -1.17195,0.65625 -2.125,0.65625 -1.04507,0 -1.78495,-0.2274 -2.21875,-0.6875 C 576.22244,450.81459 576,450.0483 576,448.9375 l 0,-6.65625 -1.59375,0 0,-1.0625 1.59375,0 z m -19.6875,2.96875 c 1.1568,0 2.01695,0.33615 2.5625,1 0.54552,0.66385 0.81249,1.68719 0.8125,3.09375 l 0,5.625 1.625,0 0,1.03125 -5.03125,0 0,-1.03125 1.59375,0 0,-5.0625 c -10e-6,-1.28169 -0.18451,-2.15175 -0.5,-2.625 -0.3155,-0.4798 -0.86095,-0.71875 -1.65625,-0.71875 -0.84131,0 -1.46589,0.31966 -1.90625,0.9375 -0.44039,0.61127 -0.68751,1.51098 -0.6875,2.6875 l 0,4.78125 1.59375,0 0,1.03125 -5.03125,0 0,-1.03125 1.625,0 0,-8.375 -1.71875,0 0,-1.0625 3.53125,0 0,1.875 c 0.3352,-0.70985 0.7801,-1.26349 1.3125,-1.625 0.53896,-0.36149 1.16514,-0.53125 1.875,-0.53125 z m 11.53125,0 c 1.58402,0 2.80835,0.48941 3.65625,1.46875 0.84787,0.97277 1.27962,2.38991 1.3125,4.25 l -7.8125,0 0,0.0625 c 0,1.41315 0.2801,2.49575 0.8125,3.21875 0.53239,0.71644 1.30524,1.0625 2.34375,1.0625 0.79529,0 1.43139,-0.21091 1.9375,-0.625 0.51266,-0.42066 0.88999,-1.02215 1.09375,-1.84375 l 1.46875,0 c -0.28921,1.15024 -0.84285,2.01535 -1.625,2.59375 -0.77559,0.5784 -1.79396,0.84375 -3.0625,0.84375 -1.53146,0 -2.75416,-0.49436 -3.6875,-1.5 -0.92676,-1.0122 -1.40625,-2.36176 -1.40625,-4.03125 0,-1.65634 0.46137,-2.98779 1.375,-4 0.91361,-1.01219 2.1083,-1.5 3.59375,-1.5 z m 0,0.96875 c -0.83475,10e-6 -1.48894,0.31309 -1.96875,0.9375 -0.47981,0.62441 -0.76984,1.53404 -0.875,2.75 l 5.6875,0 c -0.0395,-1.22254 -0.30145,-2.13216 -0.78125,-2.75 -0.47325,-0.62441 -1.16861,-0.93749 -2.0625,-0.9375 z m -22.1875,7.4375 c 0.3615,0 0.64991,0.14992 0.90625,0.40625 0.25634,0.25635 0.40625,0.56942 0.40625,0.9375 0,0.3615 -0.14991,0.64991 -0.40625,0.90625 -0.25634,0.25634 -0.54475,0.375 -0.90625,0.375 -0.37465,0 -0.68772,-0.12524 -0.9375,-0.375 -0.24976,-0.25635 -0.375,-0.53818 -0.375,-0.90625 0,-0.36808 0.12524,-0.68115 0.375,-0.9375 0.24977,-0.25633 0.56285,-0.40625 0.9375,-0.40625 z"
         transform="matrix(0.8,0,0,-0.8,10.089933,842.83577)"
         id="path16"
         style="fill:#ffffff;fill-opacity:1;fill-rule:evenodd;stroke:none" /><g
         transform="matrix(1,0,-0.0111,-1,0,0)"
         id="text18"
         style="font-size:54.39905548px;font-style:normal;font-variant:normal;font-weight:normal;font-stretch:normal;text-align:start;line-height:125%;writing-mode:lr-tb;text-anchor:start;fill:#ffffff;fill-opacity:1;font-family:Serif;-inkscape-font-specification:Serif"><path
           d="m 164.51473,-500.87215 0,-9.0311 3.05464,0.0266 c 0.0885,3.01037 0.95622,5.24158 2.60308,6.69363 1.66454,1.43435 4.18793,2.15153 7.57018,2.15152 3.152,10e-6 5.55144,-0.61977 7.19831,-1.85934 1.66453,-1.25726 2.4968,-3.08119 2.49683,-5.47178 -3e-5,-1.91245 -0.50471,-3.38222 -1.51404,-4.4093 -0.99167,-1.02705 -3.09892,-2.02755 -6.32176,-3.00151 l -5.23272,-1.56716 c -3.78953,-1.151 -6.46344,-2.58535 -8.02174,-4.30305 -1.5406,-1.71765 -2.3109,-4.07282 -2.31089,-7.0655 -1e-5,-3.36449 1.19528,-5.97642 3.58587,-7.8358 2.39057,-1.8593 5.74624,-2.78897 10.06701,-2.78902 1.84162,5e-5 3.86033,0.20369 6.05615,0.61093 2.19577,0.38962 4.53322,0.96513 7.01238,1.72653 l 0,8.44673 -3.00151,0 c -0.30107,-2.79783 -1.23959,-4.81655 -2.81558,-6.05614 -1.55833,-1.25724 -3.94006,-1.88587 -7.14519,-1.88591 -2.79788,4e-5 -4.9317,0.57555 -6.40145,1.72654 -1.45207,1.13334 -2.1781,2.78904 -2.17809,4.9671 -1e-5,1.89478 0.54894,3.38226 1.64685,4.46242 1.09788,1.08021 3.42649,2.15155 6.98582,3.21401 l 4.91397,1.46091 c 3.5947,1.08021 6.15351,2.46143 7.67643,4.14368 1.54057,1.66457 2.31087,3.90463 2.3109,6.72019 -3e-5,3.84265 -1.23074,6.73791 -3.69212,8.68579 -2.46145,1.94788 -6.127,2.92182 -10.99669,2.92182 -2.1781,0 -4.40046,-0.22135 -6.66707,-0.66405 -2.24893,-0.4427 -4.54212,-1.1156 -6.87957,-2.01871"
           id="path3787"
           style="line-height:125%;fill:#ffffff;fill-opacity:1;fill-rule:nonzero;stroke:none;font-family:Serif;-inkscape-font-specification:Serif" /><path
           d="m 197.20824,-498.95969 0,-2.81557 5.04678,0 0,-33.99941 -5.04678,0 0,-2.84214 31.92757,0 0,8.8186 -3.26713,0 0,-5.55147 -18.22156,0 0,13.28102 12.98883,0 0,-4.9671 3.26714,0 0,13.17477 -3.26714,0 0,-4.9671 -12.98883,0 0,16.60127 18.64655,0 0,-5.55146 3.26713,0 0,8.81859 -32.35256,0"
           id="path3789"
           style="line-height:125%;fill:#ffffff;fill-opacity:1;fill-rule:nonzero;stroke:none;font-family:Serif;-inkscape-font-specification:Serif" /><path
           d="m 258.34762,-518.64216 c 1.23954,0.33647 2.30202,0.91199 3.18745,1.72654 0.90308,0.79687 1.70879,1.92133 2.41715,3.37337 l 5.76396,11.76699 4.83429,0 0,2.81557 -9.34984,0 -6.18895,-12.61696 c -1.18647,-2.4437 -2.27551,-4.01971 -3.26713,-4.72805 -0.99168,-0.72601 -2.35519,-1.08902 -4.09056,-1.08904 l -5.92333,0 0,15.61848 5.60459,0 0,2.81557 -16.04347,0 0,-2.81557 5.04678,0 0,-33.99941 -5.04678,0 0,-2.84214 20.10746,0 c 3.86032,4e-5 6.83527,0.92086 8.92484,2.76245 2.10722,1.84167 3.16085,4.4536 3.16089,7.8358 -4e-5,2.72707 -0.77034,4.87859 -2.3109,6.45458 -1.52292,1.55833 -3.7984,2.53227 -6.82645,2.92182 m -12.61696,-1.59372 7.8358,0 c 2.67389,2e-5 4.64833,-0.62861 5.92333,-1.8859 1.27495,-1.27496 1.91244,-3.24055 1.91247,-5.89678 -3e-5,-2.65617 -0.63752,-4.6129 -1.91247,-5.87021 -1.275,-1.25723 -3.24944,-1.88587 -5.92333,-1.8859 l -7.8358,0 0,15.53879"
           id="path3791"
           style="line-height:125%;fill:#ffffff;fill-opacity:1;fill-rule:nonzero;stroke:none;font-family:Serif;-inkscape-font-specification:Serif" /><path
           d="m 280.25507,-535.77467 11.71386,30.44009 11.6873,-30.44009 -4.46242,0 0,-2.84214 11.63417,0 0,2.84214 -3.8515,0 -14.15756,36.81498 -4.56867,0 -14.07789,-36.81498 -3.95774,0 0,-2.84214 14.44975,0 0,2.84214 -4.4093,0"
           id="path3793"
           style="line-height:125%;fill:#ffffff;fill-opacity:1;fill-rule:nonzero;stroke:none;font-family:Serif;-inkscape-font-specification:Serif" /><path
           d="m 327.44188,-501.77526 5.04679,0 0,2.81557 -15.48567,0 0,-2.81557 5.04679,0 0,-33.99941 -5.04679,0 0,-2.84214 15.48567,0 0,2.84214 -5.04679,0 0,33.99941"
           id="path3795"
           style="line-height:125%;fill:#ffffff;fill-opacity:1;fill-rule:nonzero;stroke:none;font-family:Serif;-inkscape-font-specification:Serif" /><path
           d="m 372.04716,-509.45169 c -1.16877,3.70098 -3.13436,6.5077 -5.89678,8.42016 -2.74477,1.89476 -6.22439,2.84214 -10.43888,2.84214 -2.58539,0 -4.98483,-0.4427 -7.19831,-1.3281 -2.21352,-0.8854 -4.17911,-2.18694 -5.89677,-3.90462 -1.98331,-1.98329 -3.46193,-4.23221 -4.43586,-6.74676 -0.95624,-2.53223 -1.43436,-5.39207 -1.43435,-8.57954 -1e-5,-6.16236 1.77965,-11.12946 5.33897,-14.9013 3.5593,-3.78948 8.25192,-5.68423 14.07788,-5.68428 2.16035,5e-5 4.46239,0.28337 6.90613,0.84999 2.44367,0.5667 5.07331,1.42553 7.88892,2.57652 l 0,9.13734 -3.00151,0 c -0.65523,-3.32908 -1.97448,-5.78164 -3.95774,-7.35769 -1.96562,-1.57597 -4.72807,-2.36398 -8.28736,-2.36402 -4.23223,4e-5 -7.43738,1.50522 -9.61546,4.51555 -2.17809,2.99269 -3.26714,7.40198 -3.26713,13.22789 -1e-5,5.80825 1.08904,10.21755 3.26713,13.2279 2.17808,2.99266 5.38323,4.48899 9.61546,4.48898 2.95722,10e-6 5.39207,-0.69946 7.30456,-2.0984 1.91244,-1.41663 3.29366,-3.52389 4.14368,-6.32176 l 4.88742,0"
           id="path3797"
           style="line-height:125%;fill:#ffffff;fill-opacity:1;fill-rule:nonzero;stroke:none;font-family:Serif;-inkscape-font-specification:Serif" /><path
           d="m 377.31471,-498.95969 0,-2.81557 5.04679,0 0,-33.99941 -5.04679,0 0,-2.84214 31.92757,0 0,8.8186 -3.26713,0 0,-5.55147 -18.22156,0 0,13.28102 12.98884,0 0,-4.9671 3.26713,0 0,13.17477 -3.26713,0 0,-4.9671 -12.98884,0 0,16.60127 18.64655,0 0,-5.55146 3.26714,0 0,8.81859 -32.35257,0"
           id="path3799"
           style="line-height:125%;fill:#ffffff;fill-opacity:1;fill-rule:nonzero;stroke:none;font-family:Serif;-inkscape-font-specification:Serif" /></g><g
         transform="scale(1,-1)"
         id="text3001"
         style="font-size:16.15323448px;font-style:normal;font-variant:normal;font-weight:normal;font-stretch:normal;text-align:start;line-height:125%;letter-spacing:0px;word-spacing:0px;writing-mode:lr-tb;text-anchor:start;fill:#ffffff;fill-opacity:1;stroke:none;font-family:Serif;-inkscape-font-specification:Serif" /></g></g></svg>