<?xml version="1.0" encoding="UTF-8" standalone="no"?>
<svg
   xmlns:dc="http://purl.org/dc/elements/1.1/"
   xmlns:cc="http://creativecommons.org/ns#"
   xmlns:rdf="http://www.w3.org/1999/02/22-rdf-syntax-ns#"
   xmlns:svg="http://www.w3.org/2000/svg"
   xmlns="http://www.w3.org/2000/svg"
   xmlns:sodipodi="http://sodipodi.sourceforge.net/DTD/sodipodi-0.dtd"
   xmlns:inkscape="http://www.inkscape.org/namespaces/inkscape"
   viewBox="0 0 97.599243 60"
   height="60"
   width="97.599243"
   xml:space="preserve"
   version="1.1"
   id="svg2"
   inkscape:version="0.91 r13725"
   sodipodi:docname="website-logo_1.svg"><sodipodi:namedview
     pagecolor="#ffffff"
     bordercolor="#666666"
     borderopacity="1"
     objecttolerance="10"
     gridtolerance="10"
     guidetolerance="10"
     inkscape:pageopacity="0"
     inkscape:pageshadow="2"
     inkscape:window-width="1600"
     inkscape:window-height="876"
     id="namedview4705"
     showgrid="false"
     fit-margin-top="0"
     fit-margin-left="0"
     fit-margin-right="0"
     fit-margin-bottom="0"
     inkscape:zoom="4.871964"
     inkscape:cx="39.306526"
     inkscape:cy="19.999998"
     inkscape:window-x="0"
     inkscape:window-y="24"
     inkscape:window-maximized="1"
     inkscape:current-layer="svg2" /><metadata
     id="metadata8"><rdf:RDF><cc:Work
         rdf:about=""><dc:format>image/svg+xml</dc:format><dc:type
           rdf:resource="http://purl.org/dc/dcmitype/StillImage" /><dc:title></dc:title></cc:Work></rdf:RDF></metadata><defs
     id="defs6"><clipPath
       id="clipPath18"
       clipPathUnits="userSpaceOnUse"><path
         id="path20"
         d="M 0,600 800,600 800,0 0,0 0,600 Z"
         inkscape:connector-curvature="0" /></clipPath></defs><g
     transform="matrix(1.8750001,0,0,-1.8750001,-139.87967,247.42332)"
     id="g10"><g
       id="g14"><g
         transform="matrix(0.0799836,0,0,0.0799836,68.635513,91.964011)"
         clip-path="url(#clipPath18)"
         id="g16"><g
           style="stroke:none"
           transform="translate(599.7314,300.1799)"
           id="g22"><path
             id="path24"
             style="fill:#ed2790;fill-opacity:1;fill-rule:nonzero;stroke:none"
             d="m 0,0 c 0.013,-41.419 -33.552,-75.006 -74.971,-75.02 -41.419,-0.013 -75.007,33.552 -75.02,74.971 -0.014,41.419 33.552,75.007 74.971,75.02 C -33.601,74.985 -0.013,41.419 0,0"
             inkscape:connector-curvature="0" /></g><g
           transform="translate(666.7725,441.5081)"
           id="g26"><path
             id="path28"
             style="fill:#3a1f4d;fill-opacity:1;fill-rule:nonzero;stroke:none"
             d="m 0,0 c -37.773,37.749 -87.974,58.533 -141.373,58.533 l -0.066,0 c -43.768,-0.014 -85.317,-13.91 -120.189,-40.185 -0.029,-0.022 -0.06,-0.041 -0.09,-0.063 l -160.371,-119.773 c -22.125,-16.524 -26.665,-47.855 -10.141,-69.98 9.817,-13.145 24.863,-20.084 40.099,-20.084 10.406,0 20.902,3.238 29.88,9.943 l 160.371,119.773 c 0.044,0.032 0.084,0.067 0.128,0.1 0.04,0.03 0.082,0.058 0.123,0.089 17.439,13.194 38.263,20.173 60.222,20.18 l 0.033,0 c 26.698,0 51.802,-10.393 70.686,-29.267 18.895,-18.881 29.304,-43.99 29.313,-70.701 0.009,-26.711 -10.385,-51.827 -29.266,-70.72 -18.881,-18.894 -43.99,-29.303 -70.702,-29.312 l -0.035,0 c -31.799,0 -60.996,14.625 -80.101,40.125 -0.029,0.039 -0.061,0.075 -0.09,0.113 -0.032,0.043 -0.061,0.088 -0.093,0.131 -16.583,22.082 -47.927,26.536 -70.006,9.955 l -40.492,-30.409 c -17.39,-13.075 -38.13,-19.989 -59.977,-19.997 l -0.033,0 c -55.122,0 -99.982,44.841 -100,99.968 -0.009,26.711 10.385,51.827 29.266,70.721 18.882,18.893 43.99,29.303 70.701,29.312 l 0.033,0 c 10.163,0 20.058,-1.5 29.443,-4.365 l 88.334,65.971 c -8.478,6.199 -17.426,11.742 -26.753,16.515 -27.969,14.315 -59.441,21.879 -91.026,21.879 l -0.063,0 c -110.28,-0.036 -199.971,-89.785 -199.935,-200.065 0.036,-110.26 89.748,-199.936 200.001,-199.936 l 0.065,0 c 43.686,0.015 85.195,13.87 120.017,40.052 l 5.491,4.124 c 10.639,-8.558 22.128,-16.043 34.248,-22.242 27.954,-14.297 59.409,-21.852 90.971,-21.852 l 0.066,0 c 53.422,0.017 103.641,20.837 141.404,58.624 37.762,37.787 58.55,88.019 58.532,141.441 C 58.608,-87.98 37.788,-37.763 0,0"
             inkscape:connector-curvature="0" /></g></g></g></g></svg>
