<?xml version="1.0" encoding="UTF-8" standalone="no"?>
<svg
   xmlns:dc="http://purl.org/dc/elements/1.1/"
   xmlns:cc="http://creativecommons.org/ns#"
   xmlns:rdf="http://www.w3.org/1999/02/22-rdf-syntax-ns#"
   xmlns:svg="http://www.w3.org/2000/svg"
   xmlns="http://www.w3.org/2000/svg"
   xmlns:sodipodi="http://sodipodi.sourceforge.net/DTD/sodipodi-0.dtd"
   xmlns:inkscape="http://www.inkscape.org/namespaces/inkscape"
   viewBox="0 0 125.40233 50.000003"
   height="50"
   width="125.40233"
   class="logo-default"
   id="svg4136"
   version="1.1"
   inkscape:version="0.91 r13725"
   sodipodi:docname="newlogo.svg">
  <metadata
     id="metadata4160">
    <rdf:RDF>
      <cc:Work
         rdf:about="">
        <dc:format>image/svg+xml</dc:format>
        <dc:type
           rdf:resource="http://purl.org/dc/dcmitype/StillImage" />
        <dc:title></dc:title>
      </cc:Work>
    </rdf:RDF>
  </metadata>
  <defs
     id="defs4158" />
  <sodipodi:namedview
     pagecolor="#ffffff"
     bordercolor="#666666"
     borderopacity="1"
     objecttolerance="10"
     gridtolerance="10"
     guidetolerance="10"
     inkscape:pageopacity="0"
     inkscape:pageshadow="2"
     inkscape:window-width="1547"
     inkscape:window-height="876"
     id="namedview4156"
     showgrid="false"
     fit-margin-top="0"
     fit-margin-left="0"
     fit-margin-right="0"
     fit-margin-bottom="0"
     inkscape:zoom="5.6568542"
     inkscape:cx="103.03753"
     inkscape:cy="1.3301056"
     inkscape:window-x="1653"
     inkscape:window-y="24"
     inkscape:window-maximized="1"
     inkscape:current-layer="svg4136"
     inkscape:snap-page="false"
     inkscape:document-units="px"
     units="px" />
  <path
     style="opacity:1;fill:#ffffff;fill-opacity:1;fill-rule:nonzero;stroke:none;stroke-width:124.11699677;stroke-linecap:round;stroke-linejoin:round;stroke-miterlimit:4;stroke-dasharray:none;stroke-opacity:1"
     d="m 46.041008,7.28125 c 4.157439,4.552794 6.7761,10.537975 6.96875,17.269531 0.19747,6.898752 -2.416985,13.15807 -6.777344,17.90625 l 66.179686,0 c 7.1965,0 12.99023,-7.842501 12.99023,-17.585937 0,-9.743443 -5.79373,-17.589844 -12.99023,-17.589844 l -66.371092,0 z m 14.298828,3.753906 1.103515,0 c 0.216504,0 0.326172,0.107715 0.326172,0.324219 l 0,18.154297 c 0,0.757762 0.128868,1.288691 0.388672,1.591797 0.259805,0.281454 0.683018,0.421875 1.267578,0.421875 l 0.550781,0 c 0.216504,0 0.326172,0.107715 0.326172,0.324218 l 0,1.039063 c 0,0.216503 -0.109668,0.326172 -0.326172,0.326172 l -0.746093,0 c -1.169119,0 -2.003995,-0.282794 -2.501953,-0.845703 -0.476308,-0.56291 -0.712891,-1.493947 -0.712891,-2.792969 l 0,-18.21875 c 0,-0.216504 0.107715,-0.324219 0.324219,-0.324219 z m 13.46875,6.267578 c 1.428924,0 2.640802,0.346251 3.636718,1.039063 1.017568,0.692811 1.742774,1.689259 2.175782,2.988281 0.173202,0.519609 0.304023,1.092843 0.390625,1.720703 0.0866,0.60621 0.128906,1.375675 0.128906,2.306641 0,0.952616 -0.0423,1.743233 -0.128906,2.371094 -0.0866,0.60621 -0.217423,1.167891 -0.390625,1.6875 -0.433008,1.299022 -1.158214,2.295469 -2.175782,2.988281 -0.995916,0.692811 -2.207794,1.039062 -3.636718,1.039062 -1.428925,0 -2.642756,-0.346251 -3.638672,-1.039062 -0.995917,-0.692812 -1.709571,-1.689259 -2.142578,-2.988281 -0.173203,-0.519609 -0.304024,-1.08129 -0.390625,-1.6875 -0.0866,-0.627861 -0.128907,-1.418478 -0.128907,-2.371094 0,-0.930966 0.0423,-1.700431 0.128907,-2.306641 0.0866,-0.62786 0.217422,-1.201094 0.390625,-1.720703 0.433007,-1.299022 1.146661,-2.29547 2.142578,-2.988281 0.995916,-0.692812 2.209747,-1.039063 3.638672,-1.039063 z m 16.554687,0 c 1.428924,0 2.640802,0.346251 3.636719,1.039063 1.017567,0.692811 1.742774,1.689259 2.175781,2.988281 0.173203,0.519609 0.304023,1.092843 0.390625,1.720703 0.0866,0.60621 0.128907,1.375675 0.128906,2.306641 0,0.952616 -0.0423,1.743233 -0.128906,2.371094 -0.0866,0.60621 -0.217422,1.167891 -0.390625,1.6875 -0.433007,1.299022 -1.158214,2.295469 -2.175781,2.988281 -0.995917,0.692811 -2.207795,1.039062 -3.636719,1.039062 -1.428924,0 -2.640802,-0.346251 -3.636719,-1.039062 -0.995917,-0.692812 -1.711523,-1.689259 -2.144531,-2.988281 -0.173202,-0.519609 -0.30207,-1.08129 -0.388672,-1.6875 -0.0866,-0.627861 -0.130859,-1.418478 -0.130859,-2.371094 0,-0.930966 0.04426,-1.700431 0.130859,-2.306641 0.0866,-0.62786 0.21547,-1.201094 0.388672,-1.720703 0.433008,-1.299022 1.148614,-2.29547 2.144531,-2.988281 0.995917,-0.692812 2.207795,-1.039063 3.636719,-1.039063 z m 17.789057,0 c 2.68465,0 4.43706,1.234984 5.25977,3.703125 0.19485,0.62786 0.33723,1.29921 0.42383,2.013672 0.0866,0.692812 0.1289,1.483429 0.1289,2.371094 0,0.866015 -0.0423,1.654679 -0.1289,2.369141 -0.0866,0.692812 -0.22898,1.354561 -0.42383,1.982422 -0.82271,2.468141 -2.57512,3.701171 -5.25977,3.701171 -1.29902,0 -2.31662,-0.238535 -3.05273,-0.714843 -0.73611,-0.476308 -1.2882,-1.082248 -1.65625,-1.81836 l -0.0332,0 0,7.730469 c 0,0.216503 -0.10772,0.324219 -0.32422,0.324219 l -1.10352,0 c -0.2165,0 -0.32617,-0.107716 -0.32617,-0.324219 l 0,-20.6875 c 0,-0.216503 0.10967,-0.324219 0.32617,-0.324219 l 1.10352,0 c 0.2165,0 0.32422,0.107716 0.32422,0.324219 l 0,1.882813 0.0332,0 c 0.36805,-0.736113 0.92014,-1.342052 1.65625,-1.81836 0.73611,-0.476308 1.75371,-0.714844 3.05273,-0.714844 z m -34.343744,1.689454 c -0.995917,0 -1.851945,0.248135 -2.566406,0.746093 -0.714462,0.497959 -1.222286,1.213566 -1.525391,2.144531 -0.151553,0.433008 -0.261221,0.919679 -0.326172,1.460938 -0.06495,0.519609 -0.09766,1.190958 -0.09766,2.013672 0,0.844364 0.0327,1.536866 0.09766,2.078125 0.06495,0.519609 0.174621,0.99668 0.326172,1.429687 0.303105,0.930966 0.810929,1.644621 1.525391,2.142578 0.714461,0.497959 1.570489,0.748047 2.566406,0.748047 1.017566,0 1.883194,-0.250088 2.597656,-0.748047 0.714463,-0.497957 1.222286,-1.211612 1.525391,-2.142578 0.151552,-0.433007 0.26122,-0.910078 0.326171,-1.429687 0.06495,-0.541259 0.09766,-1.233761 0.09766,-2.078125 0,-0.822714 -0.0327,-1.494063 -0.09766,-2.013672 -0.06495,-0.541259 -0.174621,-1.02793 -0.326171,-1.460938 -0.303105,-0.930965 -0.810928,-1.646572 -1.525391,-2.144531 -0.714462,-0.497958 -1.58009,-0.746094 -2.597656,-0.746093 z m 16.554687,0 c -0.995916,0 -1.851944,0.248135 -2.566406,0.746093 -0.714462,0.497959 -1.222285,1.213566 -1.525391,2.144531 -0.151552,0.433008 -0.26122,0.919679 -0.326172,1.460938 -0.06495,0.519609 -0.0957,1.190958 -0.0957,2.013672 0,0.844364 0.03075,1.536866 0.0957,2.078125 0.06495,0.519609 0.174622,0.99668 0.326172,1.429687 0.303106,0.930966 0.810929,1.644621 1.525391,2.142578 0.714462,0.497959 1.57049,0.748047 2.566406,0.748047 1.017567,0 1.883195,-0.250088 2.597657,-0.748047 0.714461,-0.497957 1.222285,-1.211612 1.52539,-2.142578 0.151553,-0.433007 0.261221,-0.910078 0.326172,-1.429687 0.06495,-0.541259 0.09766,-1.233761 0.09766,-2.078125 0,-0.822714 -0.0327,-1.494063 -0.09766,-2.013672 -0.06495,-0.541259 -0.174621,-1.02793 -0.326172,-1.460938 -0.303105,-0.930965 -0.810929,-1.646572 -1.52539,-2.144531 -0.714462,-0.497958 -1.58009,-0.746094 -2.597657,-0.746093 z m 17.431637,0 c -0.97426,0 -1.80719,0.226983 -2.5,0.68164 -0.67116,0.454658 -1.15979,1.13756 -1.46289,2.046875 -0.15155,0.433007 -0.25926,0.940831 -0.32422,1.525391 -0.0649,0.58456 -0.0977,1.300167 -0.0977,2.144531 0,0.844365 0.0327,1.558018 0.0977,2.142578 0.0649,0.562909 0.17265,1.061133 0.32422,1.494141 0.3031,0.909315 0.79173,1.590264 1.46289,2.044922 0.69281,0.454658 1.52574,0.683593 2.5,0.683593 1.03922,0 1.88369,-0.228935 2.5332,-0.683593 0.64951,-0.476308 1.12463,-1.157258 1.42774,-2.044922 0.1732,-0.497959 0.28286,-1.05004 0.32617,-1.65625 0.0649,-0.627861 0.0977,-1.287657 0.0977,-1.980469 0,-0.692811 -0.0327,-1.354561 -0.0977,-1.982422 -0.0433,-0.627861 -0.153,-1.189542 -0.32617,-1.6875 -0.30311,-0.887665 -0.77823,-1.559014 -1.42774,-2.013672 -0.64951,-0.476308 -1.49398,-0.714843 -2.5332,-0.714843 z"
     id="rect4230"
     inkscape:connector-curvature="0" />
  <path
     style="fill:#428bca"
     d="m 33.569545,24.998397 c 0.0013,4.739999 -3.839707,8.583708 -8.57971,8.585292 -4.740002,0.0013 -8.583819,-3.839686 -8.585309,-8.579694 -0.0012,-4.739987 3.839709,-8.583804 8.579698,-8.585298 4.740016,-0.0012 8.583833,3.839698 8.585321,8.5797"
     id="path4142"
     inkscape:connector-curvature="0" />
  <path
     sodipodi:nodetypes="ccscccsssss"
     style="fill:#ffffff;fill-opacity:1"
     d="M 24.987115,50.000003 C 11.243774,50.000003 -0.32657603,38.744689 0.00703137,24.673207 0.34063847,10.601721 11.666415,0 24.987124,0 38.316993,0 49.493843,10.615873 49.880609,24.680283 50.267342,38.744689 38.730388,50.000003 24.987056,50.000003 Z m 0,-12.407089 c 7.084307,0 12.594232,-5.507282 12.594232,-12.591561 0,-7.084313 -5.509925,-12.594233 -12.594232,-12.594233 -7.084298,0 -12.591567,5.50992 -12.591567,12.594233 0,7.084295 5.507269,12.591561 12.591567,12.591561 z"
     id="path4144"
     inkscape:connector-curvature="0" />
</svg>
