<?xml version="1.0" encoding="UTF-8" standalone="no"?>
<svg
   xmlns:dc="http://purl.org/dc/elements/1.1/"
   xmlns:cc="http://creativecommons.org/ns#"
   xmlns:rdf="http://www.w3.org/1999/02/22-rdf-syntax-ns#"
   xmlns:svg="http://www.w3.org/2000/svg"
   xmlns="http://www.w3.org/2000/svg"
   xmlns:sodipodi="http://sodipodi.sourceforge.net/DTD/sodipodi-0.dtd"
   xmlns:inkscape="http://www.inkscape.org/namespaces/inkscape"
   version="1.1"
   id="svg4285"
   viewBox="0 0 218.47404 44.291338"
   height="12.5mm"
   width="61.658226mm"
   inkscape:version="0.48.4 r9939"
   sodipodi:docname="logo-rtl.svg">
  <sodipodi:namedview
     pagecolor="#ffffff"
     bordercolor="#666666"
     borderopacity="1"
     objecttolerance="10"
     gridtolerance="10"
     guidetolerance="10"
     inkscape:pageopacity="0"
     inkscape:pageshadow="2"
     inkscape:window-width="1287"
     inkscape:window-height="652"
     id="namedview27"
     showgrid="false"
     fit-margin-top="0"
     fit-margin-left="0"
     fit-margin-right="0"
     fit-margin-bottom="-0.2"
     inkscape:zoom="4"
     inkscape:cx="128.8755"
     inkscape:cy="15.383509"
     inkscape:window-x="1717"
     inkscape:window-y="106"
     inkscape:window-maximized="0"
     inkscape:current-layer="g4896" />
  <defs
     id="defs4287" />
  <metadata
     id="metadata4290">
    <rdf:RDF>
      <cc:Work
         rdf:about="">
        <dc:format>image/svg+xml</dc:format>
        <dc:type
           rdf:resource="http://purl.org/dc/dcmitype/StillImage" />
        <dc:title />
      </cc:Work>
    </rdf:RDF>
  </metadata>
  <g
     transform="matrix(0.20662216,0,0,0.20662216,153.40348,-70.040765)"
     id="layer1">
    <g
       id="g4900"
       transform="matrix(0.96566506,0,0,0.96566506,-25.751681,19.321091)">
      <g
         id="g4896"
         transform="matrix(0.95298504,0,0,0.82245944,-5.6087282,80.033688)">
        <path
           style="fill:#004a9d;fill-opacity:1;stroke:none"
           d="m -659.4171,334.89637 701.790743,0 -46.1339001,212.07813 c -0.6336,3.4315 -3.40445,5.7107 -6.9812199,5.7107 l -729.639373,0 45.84357,-188.29287 c 4.32584,-17.76747 16.94477,-29.42431 35.12018,-29.49596 z"
           id="rect4623-7-8-5-6"
           inkscape:connector-curvature="0"
           sodipodi:nodetypes="cccscsc" />
        <path
           style="fill:#0079c6;fill-opacity:1;stroke:none"
           d="m 29.210743,334.89636 315.530367,0 -46.1339,193.72154 c -4.7764,15.3321 -12.7013,24.0673 -29.0564,24.0673 l -295.494417,0 c 15.2812,-70.24783 30.5027799,-140.50867 45.84357,-210.74352 0.87659,-4.01331 3.1567,-7.02106 9.31078,-7.04532 z"
           id="rect4623-7-83-8"
           inkscape:connector-curvature="0"
           sodipodi:nodetypes="cccscsc" />
        <path
           style="fill:none;stroke:#ecf0f1;stroke-width:7.74360418;stroke-miterlimit:4;stroke-opacity:1;stroke-dasharray:none"
           d="m -656.27578,334.89634 c -18.17541,0.0716 -30.79072,11.73422 -35.11656,29.5017 l -45.84531,188.28719 714.440088,0 15.1998724,0 280.2897196,0 c 16.35512,0 24.28109,-8.73436 29.05749,-24.06645 l 46.13833,-193.72244 -302.37114,0 -13.15808,0 -688.63441,0 z"
           id="rect4623-7-8-5-6-1"
           inkscape:connector-curvature="0" />
      </g>
      <g
         id="g4878"
         transform="matrix(0.82175922,0,0,0.82175922,-2.4312966,80.185514)">
        <g
           transform="matrix(1,0,-0.25024087,1,-935.1156,-262.08912)"
           style="font-style:normal;font-variant:normal;font-weight:normal;font-stretch:normal;font-size:204.12405396px;line-height:125%;font-family:Ubuntu;-inkscape-font-specification:'Ubuntu, Normal';text-align:start;letter-spacing:0px;word-spacing:0px;writing-mode:lr-tb;text-anchor:start;fill:#ecf0f1;fill-opacity:1;stroke:none;stroke-width:1px;stroke-linecap:butt;stroke-linejoin:miter;stroke-opacity:1"
           id="text4267-1-6">
          <path
             style="fill:#ecf0f1;fill-opacity:1"
             d="m 344.46991,788.76865 q 31.02686,0 31.02686,-21.2289 0,-6.53197 -2.85774,-11.0227 -2.65361,-4.69485 -7.34847,-7.96084 -4.69485,-3.47011 -10.81857,-5.9196 -5.9196,-2.44948 -12.65569,-4.89897 -7.75672,-2.65362 -14.69693,-5.9196 -6.94022,-3.47011 -12.04332,-7.96084 -5.1031,-4.69485 -8.16497,-11.0227 -2.85773,-6.32784 -2.85773,-15.3093 0,-18.57529 12.65569,-28.98562 12.65569,-10.41032 34.90521,-10.41032 12.85982,0 23.27014,2.85773 10.61446,2.65362 15.51343,5.9196 l -6.32784,16.1258 q -4.28661,-2.65361 -12.85982,-5.1031 -8.36908,-2.65361 -19.59591,-2.65361 -5.71547,0 -10.61445,1.22474 -4.89898,1.22475 -8.57321,3.67423 -3.67423,2.44949 -5.9196,6.32785 -2.04124,3.67423 -2.04124,8.77733 0,5.71548 2.24537,9.59383 2.24536,3.87836 6.32784,6.94022 4.08248,2.85774 9.38971,5.30723 5.51135,2.44949 12.04332,4.89898 9.18558,3.67423 16.73817,7.34846 7.75672,3.67423 13.26807,8.77734 5.71547,5.1031 8.77733,12.24744 3.06186,6.94022 3.06186,16.9423 0,18.57528 -13.67631,28.57736 -13.47219,10.00208 -38.1712,10.00208 -8.36909,0 -15.51343,-1.22474 -6.94022,-1.02062 -12.45156,-2.44949 -5.51135,-1.63299 -9.59384,-3.26599 -3.87835,-1.83711 -6.12372,-3.06186 l 5.9196,-16.32992 q 4.69485,2.65361 14.28868,5.9196 9.59384,3.26598 23.47427,3.26598 z"
             id="path4691-7-9"
             inkscape:connector-curvature="0" />
          <path
             style="fill:#ecf0f1;fill-opacity:1"
             d="m 420.04684,802.85321 0,-141.45797 86.34448,0 0,16.9423 -66.54445,0 0,42.04955 59.19598,0 0,16.53405 -59.19598,0 0,48.98977 71.64755,0 0,16.9423 -91.44758,0 z"
             id="path4693-8-7"
             inkscape:connector-curvature="0" />
          <path
             style="fill:#ecf0f1;fill-opacity:1"
             d="m 605.6594,743.65723 q 3.26599,4.08249 8.16496,10.81858 5.1031,6.53197 10.41033,14.69693 5.30722,7.96084 10.41033,16.73817 5.30722,8.77734 8.98145,16.9423 l -21.63715,0 q -4.08248,-7.75671 -8.98145,-15.71755 -4.69486,-7.96084 -9.59383,-15.10518 -4.89898,-7.34847 -9.79796,-13.67631 -4.69485,-6.32785 -8.57321,-11.0227 -2.65361,0.20412 -5.51135,0.20412 -2.65361,0 -5.51135,0 l -17.75879,0 0,55.31762 -19.80003,0 0,-139.41673 q 8.36908,-2.04124 18.57528,-2.65361 10.41033,-0.8165 18.98354,-0.8165 29.80211,0 45.31554,11.22683 15.71755,11.22682 15.71755,33.47634 0,14.08456 -7.55259,24.08664 -7.34846,10.00208 -21.84127,14.90105 z m -30.00624,-66.34031 q -12.65569,0 -19.39178,0.61237 l 0,53.27638 14.08456,0 q 10.2062,0 18.37116,-1.02062 8.16497,-1.02062 13.67632,-3.87836 5.71547,-2.85774 8.77733,-7.96084 3.06186,-5.30722 3.06186,-13.88043 0,-7.96084 -3.06186,-13.26807 -3.06186,-5.30722 -8.36909,-8.36908 -5.1031,-3.06186 -12.24744,-4.28661 -6.94022,-1.22474 -14.90106,-1.22474 z"
             id="path4695-3-7"
             inkscape:connector-curvature="0" />
          <path
             style="fill:#ecf0f1;fill-opacity:1"
             d="m 777.15229,661.39524 q -7.75672,22.45365 -14.90106,41.64131 -6.94022,18.98354 -13.67631,36.12996 -6.7361,17.14642 -13.47219,32.86397 -6.53197,15.51343 -13.47219,30.82273 l -18.57529,0 q -6.94021,-15.3093 -13.67631,-30.82273 -6.53197,-15.71755 -13.47218,-32.86397 -6.7361,-17.14642 -13.88044,-36.12996 -7.14434,-19.18766 -14.69693,-41.64131 l 21.84127,0 q 11.0227,32.2516 21.63715,62.05371 10.61445,29.80212 21.84127,55.92999 11.22683,-25.92375 21.84128,-55.72586 10.61445,-30.00624 21.43302,-62.25784 l 21.22891,0 z"
             id="path4697-9-1"
             inkscape:connector-curvature="0" />
          <path
             style="fill:#ecf0f1;fill-opacity:1"
             d="m 796.79924,661.39524 19.80003,0 0,141.45797 -19.80003,0 0,-141.45797 z"
             id="path4699-6-8"
             inkscape:connector-curvature="0" />
          <path
             style="fill:#ecf0f1;fill-opacity:1"
             d="m 912.64603,805.91507 q -14.90106,0 -27.1485,-4.89898 -12.24745,-4.89897 -21.02478,-14.28868 -8.77733,-9.38971 -13.67631,-23.06602 -4.69485,-13.88043 -4.69485,-31.63923 0,-17.75879 5.30722,-31.4351 5.51135,-13.88044 14.69693,-23.27014 9.18558,-9.38971 21.43303,-14.28869 12.24744,-4.89897 26.12788,-4.89897 8.77733,0 15.71755,1.22474 7.14434,1.22474 12.24744,2.85774 5.30723,1.63299 8.57321,3.26598 3.26599,1.63299 4.49073,2.44949 l -5.71547,16.32993 q -1.83712,-1.22475 -5.30723,-2.65362 -3.47011,-1.42887 -7.96084,-2.85773 -4.2866,-1.42887 -9.59383,-2.24537 -5.1031,-1.02062 -10.41032,-1.02062 -11.22683,0 -20.20828,3.87836 -8.98146,3.87835 -15.30931,11.22682 -6.32784,7.34847 -9.79795,17.96292 -3.26599,10.41032 -3.26599,23.47426 0,12.6557 2.85774,23.06602 3.06186,10.41033 8.98146,17.96292 5.9196,7.34846 14.69693,11.43095 8.98146,4.08248 20.82065,4.08248 13.67631,0 22.65777,-2.85774 8.98146,-2.85774 13.47219,-5.1031 l 5.1031,16.32992 q -1.42887,1.02062 -5.1031,2.65362 -3.67423,1.42886 -9.18558,2.85773 -5.51135,1.42887 -12.85982,2.44949 -7.34846,1.02062 -15.92167,1.02062 z"
             id="path4701-5-7"
             inkscape:connector-curvature="0" />
          <path
             style="fill:#ecf0f1;fill-opacity:1"
             d="m 978.19853,802.85321 0,-141.45797 86.34447,0 0,16.9423 -66.54444,0 0,42.04955 59.19594,0 0,16.53405 -59.19594,0 0,48.98977 71.64754,0 0,16.9423 -91.44757,0 z"
             id="path4703-2-4"
             inkscape:connector-curvature="0" />
        </g>
        <g
           id="g4874">
          <path
             id="rect4623-72-9"
             d="m 10.696975,341.2603 26.441485,0 -43.1381896,198.3069 c -0.693556,3.18829 -4.1578544,6.11587 -6.9659064,6.24948 -11.006138,0.5237 -28.280891,0.37062 -28.280891,0.37062 14.2889,-65.68627 28.948422,-132.65287 43.237322,-198.33917 0.87532,-3.74012 2.95172,-6.56515 8.70618,-6.58783 z"
             style="fill:#ecf0f1;fill-opacity:1;stroke:none"
             inkscape:connector-curvature="0"
             sodipodi:nodetypes="ccssccc" />
          <path
             id="rect4630-1-8"
             d="m 78.210863,397.52969 c -5.7718,0.0243 -8.1087,1.88316 -10.7633,5.26163 l -45.81525,62.01164 c -3.39961,4.15068 -3.38228,8.30015 0.23226,13.19259 l 45.54809,61.65135 c 2.6545,3.3785 4.9915,5.2359 10.76321,5.2601 l 34.920097,0 -54.424597,-73.68864 54.457997,-73.68867 z"
             style="fill:#ecf0f1;fill-opacity:1;stroke:none"
             inkscape:connector-curvature="0" />
        </g>
        <g
           id="text4275"
           style="font-style:normal;font-variant:normal;font-weight:300;font-stretch:normal;font-size:116.5506897px;line-height:125%;font-family:Ubuntu;-inkscape-font-specification:'Ubuntu, Light';text-align:start;letter-spacing:0px;word-spacing:0px;writing-mode:lr-tb;text-anchor:start;fill:#ecf0f1;fill-opacity:1;stroke:none;stroke-width:1px;stroke-linecap:butt;stroke-linejoin:miter;stroke-opacity:1"
           transform="matrix(1,0,-0.22221388,1,0,0)">
          <path
             id="path4866"
             d="m 259.87789,538.49668 q 0,2.68067 -1.74826,4.54548 -1.63171,1.86481 -4.66203,1.86481 -3.03032,0 -4.77858,-1.86481 -1.63171,-1.86481 -1.63171,-4.54548 0,-2.68066 1.63171,-4.54547 1.74826,-1.86482 4.77858,-1.86482 3.03032,0 4.66203,1.86482 1.74826,1.86481 1.74826,4.54547 z"
             inkscape:connector-curvature="0" />
          <path
             id="path4868"
             d="m 277.83762,485.34957 q 3.37997,-0.93241 9.09096,-2.09791 5.71098,-1.16551 13.98608,-1.16551 6.87649,0 11.42197,1.98136 4.66202,1.98136 7.34269,5.71098 2.79722,3.61308 3.96272,8.74131 1.16551,5.12823 1.16551,11.30541 l 0,33.68315 -7.5758,0 0,-31.23558 q 0,-6.41029 -0.9324,-10.83922 -0.81586,-4.42892 -2.91377,-7.22614 -1.98136,-2.79722 -5.36133,-3.96272 -3.26342,-1.28206 -8.2751,-1.28206 -5.36133,0 -9.32405,0.58275 -3.84618,0.58276 -5.01168,1.04896 l 0,52.91401 -7.5758,0 0,-58.15879 z"
             inkscape:connector-curvature="0" />
          <path
             id="path4870"
             d="m 340.46723,513.32173 q 0,-7.92544 2.21446,-13.75298 2.33101,-5.94408 5.94408,-9.90681 3.72963,-3.96272 8.39165,-5.82753 4.77858,-1.98136 9.79026,-1.98136 11.07232,0 17.59916,7.22614 6.64339,7.22614 6.64339,22.26118 0,0.93241 -0.11656,1.86481 0,0.93241 -0.11655,1.74826 l -42.3079,0 q 0.34966,11.07232 5.47789,17.0164 5.12823,5.94409 16.31709,5.94409 6.17719,0 9.79026,-1.16551 3.61307,-1.16551 5.24478,-1.98136 l 1.39861,6.52684 q -1.63171,0.9324 -6.17719,2.21446 -4.42892,1.28206 -10.48956,1.28206 -7.92545,0 -13.51988,-2.33101 -5.59443,-2.33102 -9.2075,-6.52684 -3.61307,-4.19583 -5.24478,-9.90681 -1.63171,-5.82754 -1.63171,-12.70403 z m 42.7741,-4.77858 q -0.2331,-9.4406 -4.42893,-14.68538 -4.19582,-5.24478 -11.88817,-5.24478 -4.07927,0 -7.34269,1.63171 -3.14687,1.63171 -5.59443,4.42892 -2.33102,2.68067 -3.72963,6.29374 -1.28205,3.61307 -1.51515,7.57579 l 34.499,0 z"
             inkscape:connector-curvature="0" />
          <path
             id="path4872"
             d="m 415.15619,483.25166 24.00944,0 0,6.41028 -24.00944,0 0,32.05144 q 0,5.12823 0.81586,8.39165 0.9324,3.14687 2.56411,4.89513 1.63171,1.74826 3.96272,2.33102 2.33102,0.58275 5.12823,0.58275 4.77858,0 7.69235,-1.04896 2.91377,-1.1655 4.54548,-2.09791 l 1.86481,6.29374 q -1.63171,1.04895 -5.71099,2.44756 -4.07927,1.28206 -8.85785,1.28206 -5.59443,0 -9.4406,-1.39861 -3.72963,-1.51516 -6.06064,-4.42893 -2.21446,-3.03031 -3.14687,-7.45924 -0.9324,-4.42893 -0.9324,-10.48956 l 0,-55.47813 7.57579,-1.39861 0,19.11432 z"
             inkscape:connector-curvature="0" />
        </g>
      </g>
    </g>
  </g>
</svg>
