<?xml version="1.0" encoding="UTF-8" standalone="no"?>
<!-- Created with Inkscape (http://www.inkscape.org/) -->

<svg
   xmlns:dc="http://purl.org/dc/elements/1.1/"
   xmlns:cc="http://creativecommons.org/ns#"
   xmlns:rdf="http://www.w3.org/1999/02/22-rdf-syntax-ns#"
   xmlns:svg="http://www.w3.org/2000/svg"
   xmlns="http://www.w3.org/2000/svg"
   xmlns:sodipodi="http://sodipodi.sourceforge.net/DTD/sodipodi-0.dtd"
   xmlns:inkscape="http://www.inkscape.org/namespaces/inkscape"
   version="1.1"
   width="207.84714"
   height="48.845318"
   id="svg2"
   inkscape:version="0.48.4 r9939"
   sodipodi:docname="plus_help.svg">
  <sodipodi:namedview
     pagecolor="#ffffff"
     bordercolor="#666666"
     borderopacity="1"
     objecttolerance="10"
     gridtolerance="10"
     guidetolerance="10"
     inkscape:pageopacity="0"
     inkscape:pageshadow="2"
     inkscape:window-width="1547"
     inkscape:window-height="876"
     id="namedview3033"
     showgrid="false"
     fit-margin-top="0"
     fit-margin-left="0"
     fit-margin-right="0"
     fit-margin-bottom="0"
     inkscape:zoom="3.5731687"
     inkscape:cx="55.592865"
     inkscape:cy="3.5412512"
     inkscape:window-x="1653"
     inkscape:window-y="24"
     inkscape:window-maximized="1"
     inkscape:current-layer="layer1" />
  <defs
     id="defs4">
    <inkscape:path-effect
       effect="spiro"
       id="path-effect5406"
       is_visible="true" />
    <inkscape:path-effect
       effect="spiro"
       id="path-effect5402"
       is_visible="true" />
    <inkscape:path-effect
       effect="skeletal"
       id="path-effect5188"
       is_visible="true"
       pattern="M 0,0 1,0"
       copytype="single_stretched"
       prop_scale="1"
       scale_y_rel="false"
       spacing="0"
       normal_offset="0"
       tang_offset="0"
       prop_units="false"
       vertical_pattern="false"
       fuse_tolerance="0" />
    <inkscape:path-effect
       effect="skeletal"
       id="path-effect5166"
       is_visible="true"
       pattern="M 0,0 1,0"
       copytype="single_stretched"
       prop_scale="1"
       scale_y_rel="false"
       spacing="0"
       normal_offset="0"
       tang_offset="0"
       prop_units="false"
       vertical_pattern="false"
       fuse_tolerance="0" />
    <inkscape:path-effect
       effect="skeletal"
       id="path-effect5162"
       is_visible="true"
       pattern="M 0,0 1,0"
       copytype="single_stretched"
       prop_scale="1"
       scale_y_rel="false"
       spacing="0"
       normal_offset="0"
       tang_offset="0"
       prop_units="false"
       vertical_pattern="false"
       fuse_tolerance="0" />
    <inkscape:path-effect
       effect="skeletal"
       id="path-effect5158"
       is_visible="true"
       pattern="M 0,0 1,0"
       copytype="single_stretched"
       prop_scale="1"
       scale_y_rel="false"
       spacing="0"
       normal_offset="0"
       tang_offset="0"
       prop_units="false"
       vertical_pattern="false"
       fuse_tolerance="0" />
    <inkscape:path-effect
       effect="skeletal"
       id="path-effect5154"
       is_visible="true"
       pattern="M 0,0 1,0"
       copytype="single_stretched"
       prop_scale="1"
       scale_y_rel="false"
       spacing="0"
       normal_offset="0"
       tang_offset="0"
       prop_units="false"
       vertical_pattern="false"
       fuse_tolerance="0" />
    <inkscape:path-effect
       effect="skeletal"
       id="path-effect5148"
       is_visible="true"
       pattern="M 0,0 1,0"
       copytype="single_stretched"
       prop_scale="1"
       scale_y_rel="false"
       spacing="0"
       normal_offset="0"
       tang_offset="0"
       prop_units="false"
       vertical_pattern="false"
       fuse_tolerance="0" />
    <marker
       refX="0"
       refY="0"
       orient="auto"
       id="EmptyTriangleOutL"
       style="overflow:visible">
      <path
         d="m 5.77,0 -8.65,5 0,-10 8.65,5 z"
         transform="matrix(0.8,0,0,0.8,-4.8,0)"
         id="path3924"
         style="fill:#ffffff;fill-rule:evenodd;stroke:#000000;stroke-width:1pt"
         inkscape:connector-curvature="0" />
    </marker>
    <marker
       refX="0"
       refY="0"
       orient="auto"
       id="Arrow2Lend"
       style="overflow:visible">
      <path
         d="M 8.7185878,4.0337352 -2.2072895,0.01601326 8.7185884,-4.0017078 c -1.7454984,2.3720609 -1.7354408,5.6174519 -6e-7,8.035443 z"
         transform="matrix(-1.1,0,0,-1.1,-1.1,0)"
         id="path3785"
         style="fill-rule:evenodd;stroke-width:0.625;stroke-linejoin:round"
         inkscape:connector-curvature="0" />
    </marker>
    <marker
       refX="0"
       refY="0"
       orient="auto"
       id="Arrow1Mend"
       style="overflow:visible">
      <path
         d="M 0,0 5,-5 -12.5,0 5,5 0,0 z"
         transform="matrix(-0.4,0,0,-0.4,-4,0)"
         id="path3773"
         style="fill-rule:evenodd;stroke:#000000;stroke-width:1pt"
         inkscape:connector-curvature="0" />
    </marker>
    <marker
       refX="0"
       refY="0"
       orient="auto"
       id="Arrow1Lend"
       style="overflow:visible">
      <path
         d="M 0,0 5,-5 -12.5,0 5,5 0,0 z"
         transform="matrix(-0.8,0,0,-0.8,-10,0)"
         id="path3767"
         style="fill-rule:evenodd;stroke:#000000;stroke-width:1pt"
         inkscape:connector-curvature="0" />
    </marker>
    <filter
       id="filter3959"
       inkscape:label="Drop Shadow"
       color-interpolation-filters="sRGB">
      <feFlood
         id="feFlood3961"
         flood-opacity="0.8"
         flood-color="rgb(233,30,99)"
         result="flood" />
      <feComposite
         id="feComposite3963"
         in2="SourceGraphic"
         in="flood"
         operator="in"
         result="composite1" />
      <feGaussianBlur
         id="feGaussianBlur3965"
         stdDeviation="3"
         result="blur" />
      <feOffset
         id="feOffset3967"
         dx="1"
         dy="1"
         result="offset" />
      <feComposite
         id="feComposite3969"
         in2="offset"
         in="SourceGraphic"
         operator="over"
         result="composite2" />
    </filter>
  </defs>
  <metadata
     id="metadata7">
    <rdf:RDF>
      <cc:Work
         rdf:about="">
        <dc:format>image/svg+xml</dc:format>
        <dc:type
           rdf:resource="http://purl.org/dc/dcmitype/StillImage" />
        <dc:title />
      </cc:Work>
    </rdf:RDF>
  </metadata>
  <g
     transform="translate(-275.05592,-378.43436)"
     id="layer1"
     style="fill:#e953ff;fill-opacity:1">
    <g
       id="g3849"
       style="fill:#ffffff;fill-opacity:1;">
      <g
         id="g3845"
         style="fill:#ffffff;fill-opacity:1">
        <path
           style="fill:#ffffff;fill-opacity:1;stroke:none"
           id="rect5408"
           d="m 423.24478,398.70432 c 19.93176,2.82375 30.89416,10.19735 33.58669,8.90502 1.84388,-2.8779 -22.60721,-10.28669 -32.58705,-11.64102 -13.10406,-1.77832 -37.12485,-3.08347 -37.20808,-1.00154 0.10323,2.28909 15.1421,0.75306 36.20844,3.73754 z"
           inkscape:connector-curvature="0"
           sodipodi:nodetypes="scscs" />
        <path
           style="fill:#ffffff;fill-opacity:1;stroke:none"
           id="rect5411"
           d="m 465.4068,412.47914 c 1.57714,-2.12238 -7.89124,-16.17166 -11.3908,-16.29545 -0.40431,1.08649 10.37802,14.83471 8.38065,14.63838 -5.90376,-0.58029 -20.69881,-1.15674 -17.75467,1.84742 9.85981,-0.62098 20.1603,1.63212 20.76482,-0.19035 z"
           inkscape:connector-curvature="0" />
      </g>
      <g
         id="text5414"
         style="font-size:27.31838417px;font-style:normal;font-variant:normal;font-weight:300;font-stretch:normal;text-align:start;line-height:80.00000119%;letter-spacing:0px;word-spacing:0px;writing-mode:lr-tb;text-anchor:start;fill:#ffffff;fill-opacity:1;stroke:none;font-family:DIN Next LT Arabic;-inkscape-font-specification:DIN Next LT Arabic Light">
        <path
           d="m 294.33367,401.0813 c -0.18213,0 -0.27319,-0.0911 -0.27319,-0.27319 l 0,-18.03013 c 0,-0.1821 0.0911,-0.27316 0.27319,-0.27318 l 6.20127,0 c 1.78479,2e-5 3.17803,0.47353 4.17971,1.42055 1.01987,0.92884 1.52982,2.21281 1.52983,3.8519 -1e-5,1.63911 -0.50996,2.92307 -1.52983,3.85189 -1.00168,0.92883 -2.39492,1.39324 -4.17971,1.39324 l -4.7534,0 c -0.10928,0 -0.16391,0.0546 -0.16391,0.16391 l 0,7.62182 c 0,0.18213 -0.0911,0.27319 -0.27318,0.27319 l -1.01078,0 m 6.14663,-9.53412 c 1.36591,10e-6 2.40401,-0.32781 3.1143,-0.98346 0.72848,-0.65563 1.09272,-1.58445 1.09273,-2.78647 -10e-6,-1.202 -0.36425,-2.13082 -1.09273,-2.78648 -0.71029,-0.67384 -1.74839,-1.01076 -3.1143,-1.01078 l -4.69876,0 c -0.10928,2e-5 -0.16391,0.0547 -0.16391,0.16391 l 0,7.23937 c 0,0.10929 0.0546,0.16392 0.16391,0.16391 l 4.69876,0"
           id="path5430"
           inkscape:connector-curvature="0"
           style="fill:#ffffff;fill-opacity:1" />
        <path
           d="m 318.39946,401.0813 c -0.18214,0 -0.2732,-0.0911 -0.27319,-0.27319 l 0,-1.52982 -0.0273,0 c -0.32783,0.63743 -0.81956,1.14737 -1.47519,1.52982 -0.65565,0.36425 -1.42967,0.54637 -2.32206,0.54637 -1.45699,0 -2.57704,-0.42799 -3.36016,-1.28396 -0.76492,-0.85598 -1.14738,-2.0762 -1.14738,-3.66066 l 0,-8.08625 c 0,-0.18211 0.0911,-0.27317 0.27319,-0.27318 l 0.92882,0 c 0.18212,10e-6 0.27318,0.0911 0.27319,0.27318 l 0,7.70379 c -1e-5,2.60435 1.12005,3.90653 3.36016,3.90653 0.49172,0 0.94703,-0.082 1.36592,-0.24587 0.43708,-0.16391 0.81043,-0.40067 1.12005,-0.71028 0.3096,-0.32781 0.55547,-0.71027 0.7376,-1.14737 0.18211,-0.4553 0.27317,-0.96524 0.27318,-1.52983 l 0,-7.97697 c -10e-6,-0.18211 0.091,-0.27317 0.27319,-0.27318 l 0.92882,0 c 0.18211,10e-6 0.27317,0.0911 0.27318,0.27318 l 0,12.4845 c -10e-6,0.18213 -0.0911,0.27319 -0.27318,0.27319 l -0.92882,0"
           id="path5432"
           inkscape:connector-curvature="0"
           style="fill:#ffffff;fill-opacity:1" />
        <path
           d="m 330.09599,401.35448 c -1.09274,0 -1.94871,-0.20033 -2.56793,-0.601 -0.61922,-0.40067 -1.08363,-0.91061 -1.39323,-1.52983 l -0.0273,0 0,1.58446 c -10e-6,0.18213 -0.0911,0.27319 -0.27319,0.27319 l -0.92882,0 c -0.18213,0 -0.27319,-0.0911 -0.27318,-0.27319 l 0,-18.03013 c -10e-6,-0.1821 0.091,-0.27316 0.27318,-0.27318 l 0.92882,0 c 0.18212,2e-5 0.27318,0.0911 0.27319,0.27318 l 0,7.1301 0.0273,0 c 0.3096,-0.61921 0.77401,-1.12915 1.39323,-1.52983 0.61922,-0.40066 1.47519,-0.60099 2.56793,-0.601 2.25831,1e-5 3.7335,1.03811 4.42558,3.11429 0.1639,0.52817 0.28228,1.09275 0.35514,1.69374 0.0728,0.5828 0.10926,1.24755 0.10927,1.99424 -10e-6,0.7285 -0.0364,1.39325 -0.10927,1.99425 -0.0729,0.58279 -0.19124,1.13826 -0.35514,1.66642 -0.69208,2.07619 -2.16727,3.11429 -4.42558,3.11429 m -0.3005,-1.42055 c 0.87418,0 1.58446,-0.19123 2.13083,-0.57369 0.54636,-0.40067 0.94703,-0.97435 1.20201,-1.72106 0.14569,-0.41888 0.23675,-0.88329 0.27319,-1.39324 0.0546,-0.52815 0.0819,-1.08362 0.082,-1.66642 -10e-6,-0.58278 -0.0273,-1.13825 -0.082,-1.66642 -0.0364,-0.52814 -0.1275,-1.00166 -0.27319,-1.42055 -0.25498,-0.7467 -0.65565,-1.31128 -1.20201,-1.69374 -0.54637,-0.40066 -1.25665,-0.601 -2.13083,-0.60101 -0.81956,1e-5 -1.52073,0.19124 -2.10352,0.57369 -0.56458,0.38247 -0.97436,0.95615 -1.22932,1.72106 -0.12749,0.36425 -0.21855,0.79224 -0.27319,1.28396 -0.0546,0.49174 -0.082,1.09274 -0.082,1.80301 -1e-5,0.71029 0.0273,1.31129 0.082,1.80302 0.0546,0.47352 0.1457,0.8924 0.27319,1.25664 0.25496,0.76492 0.66474,1.33861 1.22932,1.72106 0.58279,0.38246 1.28396,0.57369 2.10352,0.57369"
           id="path5434"
           inkscape:connector-curvature="0"
           style="fill:#ffffff;fill-opacity:1" />
        <path
           d="m 341.82241,401.16325 c -0.98347,0 -1.68464,-0.23676 -2.10352,-0.71027 -0.40067,-0.47352 -0.601,-1.25665 -0.601,-2.34939 l 0,-15.32561 c 0,-0.1821 0.0911,-0.27316 0.27318,-0.27318 l 0.92883,0 c 0.18212,2e-5 0.27318,0.0911 0.27318,0.27318 l 0,15.27098 c 0,0.63743 0.10927,1.08363 0.32782,1.3386 0.21854,0.23676 0.57368,0.35514 1.06542,0.35514 l 0.46441,0 c 0.18212,0 0.27318,0.0911 0.27319,0.27318 l 0,0.87419 c -1e-5,0.18212 -0.0911,0.27318 -0.27319,0.27318 l -0.62832,0"
           id="path5436"
           inkscape:connector-curvature="0"
           style="fill:#ffffff;fill-opacity:1" />
        <path
           d="m 346.43153,384.58099 c -0.18212,2e-5 -0.27318,-0.091 -0.27318,-0.27318 l 0,-1.52983 c 0,-0.1821 0.0911,-0.27316 0.27318,-0.27318 l 1.20201,0 c 0.18212,2e-5 0.27318,0.0911 0.27319,0.27318 l 0,1.52983 c -10e-6,0.18214 -0.0911,0.2732 -0.27319,0.27318 l -1.20201,0 m 0.1366,16.50031 c -0.18213,0 -0.27319,-0.0911 -0.27319,-0.27319 l 0,-12.4845 c 0,-0.18211 0.0911,-0.27317 0.27319,-0.27318 l 0.92882,0 c 0.18212,10e-6 0.27318,0.0911 0.27318,0.27318 l 0,12.4845 c 0,0.18213 -0.0911,0.27319 -0.27318,0.27319 l -0.92882,0"
           id="path5438"
           inkscape:connector-curvature="0"
           style="fill:#ffffff;fill-opacity:1" />
        <path
           d="m 357.31193,401.35448 c -1.27486,0 -2.34028,-0.29139 -3.19625,-0.87419 -0.83777,-0.58279 -1.43877,-1.43876 -1.80301,-2.56792 -0.12749,-0.40067 -0.22766,-0.84687 -0.3005,-1.3386 -0.0546,-0.50994 -0.082,-1.1838 -0.082,-2.02156 0,-0.81955 0.0273,-1.4843 0.082,-1.99425 0.0728,-0.52814 0.17301,-0.99256 0.3005,-1.39323 0.36424,-1.09273 0.96524,-1.93049 1.80301,-2.5133 0.83776,-0.58278 1.84854,-0.87417 3.03234,-0.87418 1.18379,1e-5 2.19457,0.2914 3.03234,0.87418 0.85597,0.58281 1.46608,1.42057 1.83033,2.5133 0.14569,0.41889 0.24586,0.87419 0.30051,1.36591 0.0546,0.49174 0.0819,1.19291 0.082,2.10352 -10e-6,0.18213 -0.10018,0.27319 -0.3005,0.27318 l -8.49602,0 c -0.10928,1e-5 -0.16391,0.0638 -0.16391,0.19123 0,0.54638 0.0182,0.99258 0.0546,1.3386 0.0546,0.32783 0.12748,0.64654 0.21855,0.95615 0.3096,0.87419 0.77401,1.52072 1.39323,1.9396 0.63743,0.40067 1.40234,0.60101 2.29475,0.60101 0.85597,0 1.57535,-0.15481 2.15815,-0.46442 0.60099,-0.32781 1.09272,-0.72848 1.47519,-1.202 0.10926,-0.1457 0.23675,-0.16391 0.38246,-0.0546 l 0.62832,0.57368 c 0.12748,0.10928 0.13658,0.23677 0.0273,0.38246 -0.47353,0.63743 -1.11096,1.16559 -1.91229,1.58447 -0.80134,0.40067 -1.74838,0.601 -2.84111,0.601 m 3.4148,-7.70378 c 0.10926,1e-5 0.1639,-0.0546 0.16391,-0.16391 -10e-6,-0.40066 -0.0182,-0.7467 -0.0546,-1.0381 -0.0364,-0.3096 -0.10017,-0.59189 -0.19123,-0.84687 -0.25498,-0.81954 -0.68296,-1.42965 -1.28396,-1.83033 -0.60101,-0.41887 -1.33861,-0.62831 -2.21279,-0.62833 -0.85598,2e-5 -1.58447,0.20946 -2.18547,0.62833 -0.60101,0.40068 -1.029,1.01079 -1.28396,1.83033 -0.0911,0.25498 -0.15481,0.53727 -0.19123,0.84687 -0.0364,0.2914 -0.0546,0.63744 -0.0546,1.0381 0,0.10928 0.0546,0.16392 0.16391,0.16391 l 7.1301,0"
           id="path5440"
           inkscape:connector-curvature="0"
           style="fill:#ffffff;fill-opacity:1" />
        <path
           d="m 365.8613,401.0813 c -0.18212,0 -0.27318,-0.0911 -0.27318,-0.27319 l 0,-0.81955 c 0,-0.12748 0.0455,-0.24586 0.13659,-0.35514 l 7.73111,-10.13512 0,-0.0273 -7.23938,0 c -0.18212,10e-6 -0.27318,-0.091 -0.27318,-0.27319 l 0,-0.87419 c 0,-0.18211 0.0911,-0.27317 0.27318,-0.27318 l 8.74189,0 c 0.18211,1e-5 0.27317,0.0911 0.27318,0.27318 l 0,0.87419 c -1e-5,0.1275 -0.0455,0.24588 -0.13659,0.35514 l -7.70379,10.08048 0,0.0546 7.5672,0 c 0.18211,0 0.27317,0.0911 0.27318,0.27319 l 0,0.84686 c -1e-5,0.18213 -0.0911,0.27319 -0.27318,0.27319 l -9.09703,0"
           id="path5442"
           inkscape:connector-curvature="0"
           style="fill:#ffffff;fill-opacity:1" />
        <path
           d="m 297.44796,422.93601 c -0.16391,0 -0.27319,-0.0911 -0.32782,-0.27319 l -4.72608,-12.4845 c -0.0546,-0.18211 0.0182,-0.27317 0.21855,-0.27318 l 1.01078,0 c 0.16391,10e-6 0.28229,0.0911 0.35514,0.27318 l 3.93384,10.43562 0.0273,0 3.85189,-10.43562 c 0.0728,-0.18211 0.19122,-0.27317 0.35514,-0.27318 l 1.01078,0 c 0.20033,10e-6 0.27318,0.0911 0.21855,0.27318 l -4.72608,12.4845 c -0.0546,0.18213 -0.16392,0.27319 -0.32782,0.27319 l -0.87419,0"
           id="path5444"
           inkscape:connector-curvature="0"
           style="fill:#ffffff;fill-opacity:1" />
        <path
           d="m 311.18356,423.20919 c -1.20202,0 -2.2219,-0.2914 -3.05966,-0.87419 -0.83777,-0.58279 -1.43877,-1.42055 -1.80301,-2.51329 -0.1457,-0.43709 -0.25498,-0.91061 -0.32782,-1.42056 -0.0729,-0.52815 -0.10928,-1.19289 -0.10928,-1.99424 0,-0.78312 0.0364,-1.42965 0.10928,-1.9396 0.0728,-0.52815 0.18212,-1.01077 0.32782,-1.44788 0.36424,-1.09272 0.96524,-1.93048 1.80301,-2.51329 0.83776,-0.58278 1.85764,-0.87417 3.05966,-0.87419 1.202,2e-5 2.22189,0.29141 3.05966,0.87419 0.85596,0.58281 1.46607,1.42057 1.83033,2.51329 0.14569,0.43711 0.25496,0.91973 0.32782,1.44788 0.0728,0.50995 0.10926,1.15648 0.10927,1.9396 -1e-5,0.80135 -0.0364,1.46609 -0.10927,1.99424 -0.0729,0.50995 -0.18213,0.98347 -0.32782,1.42056 -0.36426,1.09274 -0.97437,1.9305 -1.83033,2.51329 -0.83777,0.58279 -1.85766,0.87419 -3.05966,0.87419 m 0,-1.42056 c 0.85597,10e-6 1.58446,-0.20944 2.18547,-0.62832 0.60099,-0.41888 1.02898,-1.01988 1.28396,-1.80301 0.12748,-0.36424 0.21854,-0.76491 0.27319,-1.20201 0.0546,-0.4553 0.0819,-1.03809 0.082,-1.74838 -10e-6,-0.69206 -0.0273,-1.25664 -0.082,-1.69374 -0.0546,-0.45529 -0.14571,-0.86507 -0.27319,-1.22932 -0.25498,-0.78312 -0.68297,-1.38413 -1.28396,-1.80302 -0.60101,-0.41887 -1.3295,-0.62831 -2.18547,-0.62832 -0.83777,1e-5 -1.55715,0.20945 -2.15815,0.62832 -0.60101,0.41889 -1.029,1.0199 -1.28397,1.80302 -0.12749,0.36425 -0.21855,0.77403 -0.27318,1.22932 -0.0546,0.4371 -0.082,1.00168 -0.082,1.69374 0,0.71029 0.0273,1.29308 0.082,1.74838 0.0546,0.4371 0.14569,0.83777 0.27318,1.20201 0.25497,0.78313 0.68296,1.38413 1.28397,1.80301 0.601,0.41888 1.32038,0.62833 2.15815,0.62832"
           id="path5446"
           inkscape:connector-curvature="0"
           style="fill:#ffffff;fill-opacity:1" />
        <path
           d="m 324.42657,423.01796 c -1.23844,0 -2.11262,-0.26408 -2.62256,-0.79223 -0.50995,-0.52816 -0.76492,-1.43877 -0.76492,-2.73184 l 0,-8.11356 c 0,-0.10926 -0.0546,-0.1639 -0.16391,-0.16391 l -1.36592,0 c -0.18212,10e-6 -0.27318,-0.0911 -0.27318,-0.27318 l 0,-0.76492 c 0,-0.18211 0.0911,-0.27317 0.27318,-0.27318 l 1.36592,0 c 0.10927,10e-6 0.16391,-0.0546 0.16391,-0.16391 l 0,-3.74262 c 0,-0.18211 0.0911,-0.27317 0.27319,-0.27319 l 0.92882,0 c 0.18212,2e-5 0.27318,0.0911 0.27319,0.27319 l 0,3.74262 c -1e-5,0.10928 0.0546,0.16392 0.16391,0.16391 l 2.45865,0 c 0.18212,10e-6 0.27318,0.0911 0.27318,0.27318 l 0,0.76492 c 0,0.18213 -0.0911,0.27319 -0.27318,0.27318 l -2.45865,0 c -0.10928,10e-6 -0.16392,0.0546 -0.16391,0.16391 l 0,8.0316 c -1e-5,0.8742 0.15479,1.45699 0.46441,1.74838 0.32781,0.2914 0.87418,0.4371 1.6391,0.4371 l 0.51905,0 c 0.18212,0 0.27318,0.0911 0.27318,0.27318 l 0,0.87419 c 0,0.18212 -0.0911,0.27318 -0.27318,0.27318 l -0.71028,0"
           id="path5448"
           inkscape:connector-curvature="0"
           style="fill:#ffffff;fill-opacity:1" />
        <path
           d="m 329.44078,422.93601 c -0.18213,0 -0.27319,-0.0911 -0.27319,-0.27319 l 0,-12.4845 c 0,-0.18211 0.0911,-0.27317 0.27319,-0.27318 l 0.92882,0 c 0.18212,10e-6 0.27318,0.0911 0.27318,0.27318 l 0,1.66642 0.0273,0 c 0.25497,-0.63741 0.66475,-1.16557 1.22933,-1.58446 0.58279,-0.41887 1.33859,-0.62831 2.26743,-0.62833 0.52814,2e-5 1.01987,0.082 1.47519,0.24587 0.4553,0.16392 0.83775,0.38247 1.14737,0.65564 0.14569,0.0911 0.1639,0.20945 0.0546,0.35514 l -0.54637,0.76491 c -0.0911,0.1275 -0.22766,0.14571 -0.40978,0.0546 -0.30961,-0.20032 -0.62833,-0.35513 -0.95614,-0.46441 -0.32783,-0.12748 -0.70118,-0.19122 -1.12005,-0.19123 -0.5828,10e-6 -1.07453,0.11839 -1.4752,0.35514 -0.40067,0.23677 -0.72849,0.55548 -0.98346,0.95614 -0.23676,0.38247 -0.41888,0.84688 -0.54636,1.39324 -0.10928,0.52816 -0.16392,1.09274 -0.16392,1.69374 l 0,7.21205 c 0,0.18213 -0.0911,0.27319 -0.27318,0.27319 l -0.92882,0"
           id="path5450"
           inkscape:connector-curvature="0"
           style="fill:#ffffff;fill-opacity:1" />
        <path
           d="m 344.50644,423.20919 c -1.27486,0 -2.34028,-0.2914 -3.19625,-0.87419 -0.83777,-0.58279 -1.43877,-1.43876 -1.80301,-2.56793 -0.12749,-0.40066 -0.22766,-0.84686 -0.30051,-1.3386 -0.0546,-0.50994 -0.0819,-1.18379 -0.0819,-2.02156 0,-0.81954 0.0273,-1.48429 0.0819,-1.99424 0.0729,-0.52815 0.17302,-0.99256 0.30051,-1.39324 0.36424,-1.09272 0.96524,-1.93048 1.80301,-2.51329 0.83776,-0.58278 1.84854,-0.87417 3.03234,-0.87419 1.18379,2e-5 2.19457,0.29141 3.03234,0.87419 0.85597,0.58281 1.46608,1.42057 1.83033,2.51329 0.14569,0.41889 0.24586,0.8742 0.3005,1.36592 0.0546,0.49174 0.082,1.19291 0.082,2.10352 -10e-6,0.18213 -0.10018,0.27319 -0.3005,0.27318 l -8.49602,0 c -0.10928,1e-5 -0.16391,0.0638 -0.16391,0.19123 0,0.54637 0.0182,0.99257 0.0546,1.3386 0.0546,0.32783 0.12748,0.64654 0.21854,0.95614 0.30961,0.8742 0.77402,1.52073 1.39324,1.93961 0.63742,0.40067 1.40234,0.60101 2.29474,0.601 0.85597,10e-6 1.57536,-0.1548 2.15816,-0.46441 0.60099,-0.32782 1.09272,-0.72849 1.47519,-1.20201 0.10926,-0.14569 0.23675,-0.1639 0.38246,-0.0546 l 0.62832,0.57368 c 0.12747,0.10928 0.13658,0.23676 0.0273,0.38246 -0.47353,0.63743 -1.11096,1.16558 -1.91229,1.58447 -0.80135,0.40067 -1.74838,0.601 -2.84111,0.601 m 3.4148,-7.70378 c 0.10926,0 0.1639,-0.0546 0.16391,-0.16391 -10e-6,-0.40067 -0.0182,-0.7467 -0.0546,-1.0381 -0.0364,-0.3096 -0.10018,-0.59189 -0.19123,-0.84687 -0.25498,-0.81954 -0.68297,-1.42965 -1.28396,-1.83033 -0.60101,-0.41887 -1.33861,-0.62832 -2.21279,-0.62833 -0.85598,10e-6 -1.58447,0.20946 -2.18547,0.62833 -0.60101,0.40068 -1.029,1.01079 -1.28397,1.83033 -0.0911,0.25498 -0.1548,0.53727 -0.19122,0.84687 -0.0364,0.2914 -0.0546,0.63743 -0.0546,1.0381 0,0.10928 0.0546,0.16391 0.16391,0.16391 l 7.1301,0"
           id="path5452"
           inkscape:connector-curvature="0"
           style="fill:#ffffff;fill-opacity:1" />
        <path
           d="m 377.59028,422.93601 c -0.18214,0 -0.2732,-0.0911 -0.27318,-0.27319 l 0,-7.70378 c -2e-5,-2.60434 -1.14739,-3.90652 -3.44212,-3.90653 -1.00169,1e-5 -1.83945,0.31873 -2.51329,0.95614 -0.67387,0.63744 -1.01079,1.52984 -1.01078,2.6772 l 0,7.97697 c -10e-6,0.18213 -0.0911,0.27319 -0.27319,0.27319 l -0.92882,0 c -0.18213,0 -0.2732,-0.0911 -0.27318,-0.27319 l 0,-7.70378 c -2e-5,-2.60434 -1.13828,-3.90652 -3.4148,-3.90653 -1.00168,1e-5 -1.84855,0.31873 -2.54061,0.95614 -0.67386,0.63744 -1.01079,1.52984 -1.01078,2.6772 l 0,7.97697 c -1e-5,0.18213 -0.0911,0.27319 -0.27319,0.27319 l -0.92882,0 c -0.18213,0 -0.27319,-0.0911 -0.27319,-0.27319 l 0,-12.4845 c 0,-0.18211 0.0911,-0.27317 0.27319,-0.27318 l 0.92882,0 c 0.18212,10e-6 0.27318,0.0911 0.27319,0.27318 l 0,1.55715 0.0273,0 c 0.32781,-0.63742 0.81954,-1.14736 1.47519,-1.52983 0.65563,-0.38244 1.44787,-0.57367 2.3767,-0.57369 2.02155,2e-5 3.36925,0.81046 4.04312,2.43134 l 0.0273,0 c 0.38244,-0.7649 0.9197,-1.3568 1.61178,-1.7757 0.71027,-0.43708 1.60267,-0.65562 2.6772,-0.65564 1.47518,2e-5 2.61344,0.428 3.4148,1.28397 0.81953,0.85598 1.22931,2.08531 1.22933,3.68798 l 0,8.05892 c -2e-5,0.18213 -0.0911,0.27319 -0.27318,0.27319 l -0.92883,0"
           id="path5454"
           inkscape:connector-curvature="0"
           style="fill:#ffffff;fill-opacity:1" />
        <path
           d="m 387.27764,407.69235 c -0.20034,1e-5 -0.25498,-0.091 -0.16391,-0.27319 l 2.10352,-3.33284 c 0.10926,-0.1821 0.26407,-0.27316 0.46441,-0.27318 l 1.0381,0 c 0.091,2e-5 0.14569,0.0273 0.16391,0.082 0.0364,0.0547 0.0273,0.1184 -0.0273,0.19123 l -2.40402,3.33284 c -0.0911,0.0911 -0.17302,0.16393 -0.24586,0.21855 -0.0547,0.0364 -0.1366,0.0546 -0.24587,0.0546 l -0.68296,0 m 0.87419,15.51684 c -1.27486,0 -2.34028,-0.2914 -3.19625,-0.87419 -0.83777,-0.58279 -1.43877,-1.43876 -1.80302,-2.56793 -0.12748,-0.40066 -0.22765,-0.84686 -0.3005,-1.3386 -0.0546,-0.50994 -0.082,-1.18379 -0.082,-2.02156 0,-0.81954 0.0273,-1.48429 0.082,-1.99424 0.0729,-0.52815 0.17302,-0.99256 0.3005,-1.39324 0.36425,-1.09272 0.96525,-1.93048 1.80302,-2.51329 0.83776,-0.58278 1.84854,-0.87417 3.03234,-0.87419 1.18379,2e-5 2.19457,0.29141 3.03234,0.87419 0.85596,0.58281 1.46607,1.42057 1.83033,2.51329 0.14569,0.41889 0.24585,0.8742 0.3005,1.36592 0.0546,0.49174 0.082,1.19291 0.082,2.10352 -1e-5,0.18213 -0.10018,0.27319 -0.3005,0.27318 l -8.49602,0 c -0.10928,10e-6 -0.16391,0.0638 -0.16391,0.19123 0,0.54637 0.0182,0.99257 0.0546,1.3386 0.0546,0.32783 0.12748,0.64654 0.21854,0.95614 0.30961,0.8742 0.77402,1.52073 1.39324,1.93961 0.63742,0.40067 1.40234,0.60101 2.29474,0.601 0.85597,1e-5 1.57536,-0.1548 2.15816,-0.46441 0.60099,-0.32782 1.09272,-0.72849 1.47519,-1.20201 0.10926,-0.14569 0.23675,-0.1639 0.38246,-0.0546 l 0.62832,0.57368 c 0.12747,0.10928 0.13658,0.23676 0.0273,0.38246 -0.47353,0.63743 -1.11096,1.16558 -1.91229,1.58447 -0.80135,0.40067 -1.74838,0.601 -2.84111,0.601 m 3.4148,-7.70378 c 0.10926,0 0.1639,-0.0546 0.16391,-0.16391 -1e-5,-0.40067 -0.0182,-0.7467 -0.0546,-1.0381 -0.0364,-0.3096 -0.10018,-0.59189 -0.19123,-0.84687 -0.25498,-0.81954 -0.68297,-1.42965 -1.28396,-1.83033 -0.60102,-0.41887 -1.33861,-0.62832 -2.21279,-0.62833 -0.85598,1e-5 -1.58447,0.20946 -2.18547,0.62833 -0.60101,0.40068 -1.029,1.01079 -1.28397,1.83033 -0.0911,0.25498 -0.1548,0.53727 -0.19122,0.84687 -0.0364,0.2914 -0.0546,0.63743 -0.0546,1.0381 0,0.10928 0.0546,0.16391 0.16391,0.16391 l 7.1301,0"
           id="path5456"
           inkscape:connector-curvature="0"
           style="fill:#ffffff;fill-opacity:1" />
        <path
           d="m 401.09946,423.01796 c -1.23844,0 -2.11262,-0.26408 -2.62256,-0.79223 -0.50995,-0.52816 -0.76492,-1.43877 -0.76492,-2.73184 l 0,-8.11356 c 0,-0.10926 -0.0546,-0.1639 -0.16391,-0.16391 l -1.36592,0 c -0.18212,10e-6 -0.27318,-0.0911 -0.27318,-0.27318 l 0,-0.76492 c 0,-0.18211 0.0911,-0.27317 0.27318,-0.27318 l 1.36592,0 c 0.10927,10e-6 0.16391,-0.0546 0.16391,-0.16391 l 0,-3.74262 c 0,-0.18211 0.0911,-0.27317 0.27319,-0.27319 l 0.92882,0 c 0.18212,2e-5 0.27318,0.0911 0.27318,0.27319 l 0,3.74262 c 0,0.10928 0.0546,0.16392 0.16392,0.16391 l 2.45865,0 c 0.18212,10e-6 0.27318,0.0911 0.27318,0.27318 l 0,0.76492 c 0,0.18213 -0.0911,0.27319 -0.27318,0.27318 l -2.45865,0 c -0.10928,10e-6 -0.16392,0.0546 -0.16392,0.16391 l 0,8.0316 c 0,0.8742 0.1548,1.45699 0.46442,1.74838 0.32781,0.2914 0.87418,0.4371 1.6391,0.4371 l 0.51905,0 c 0.18212,0 0.27318,0.0911 0.27318,0.27318 l 0,0.87419 c 0,0.18212 -0.0911,0.27318 -0.27318,0.27318 l -0.71028,0"
           id="path5458"
           inkscape:connector-curvature="0"
           style="fill:#ffffff;fill-opacity:1" />
        <path
           d="m 405.97707,406.4357 c -0.18213,2e-5 -0.27319,-0.091 -0.27318,-0.27318 l 0,-1.52983 c -10e-6,-0.1821 0.091,-0.27317 0.27318,-0.27318 l 1.20201,0 c 0.18212,10e-6 0.27318,0.0911 0.27318,0.27318 l 0,1.52983 c 0,0.18214 -0.0911,0.2732 -0.27318,0.27318 l -1.20201,0 m 0.13659,16.50031 c -0.18212,0 -0.27318,-0.0911 -0.27318,-0.27319 l 0,-12.4845 c 0,-0.18211 0.0911,-0.27317 0.27318,-0.27318 l 0.92883,0 c 0.18212,10e-6 0.27318,0.0911 0.27318,0.27318 l 0,12.4845 c 0,0.18213 -0.0911,0.27319 -0.27318,0.27319 l -0.92883,0"
           id="path5460"
           inkscape:connector-curvature="0"
           style="fill:#ffffff;fill-opacity:1" />
        <path
           d="m 416.85747,423.20919 c -1.27486,0 -2.34028,-0.2914 -3.19625,-0.87419 -0.83777,-0.58279 -1.43877,-1.43876 -1.80301,-2.56793 -0.12749,-0.40066 -0.22766,-0.84686 -0.3005,-1.3386 -0.0546,-0.50994 -0.082,-1.18379 -0.082,-2.02156 0,-0.81954 0.0273,-1.48429 0.082,-1.99424 0.0728,-0.52815 0.17301,-0.99256 0.3005,-1.39324 0.36424,-1.09272 0.96524,-1.93048 1.80301,-2.51329 0.83776,-0.58278 1.84854,-0.87417 3.03234,-0.87419 1.18379,2e-5 2.19457,0.29141 3.03234,0.87419 0.85597,0.58281 1.46608,1.42057 1.83033,2.51329 0.14569,0.41889 0.24586,0.8742 0.30051,1.36592 0.0546,0.49174 0.0819,1.19291 0.082,2.10352 -10e-6,0.18213 -0.10018,0.27319 -0.3005,0.27318 l -8.49602,0 c -0.10928,1e-5 -0.16391,0.0638 -0.16391,0.19123 0,0.54637 0.0182,0.99257 0.0546,1.3386 0.0546,0.32783 0.12748,0.64654 0.21855,0.95614 0.3096,0.8742 0.77401,1.52073 1.39323,1.93961 0.63743,0.40067 1.40234,0.60101 2.29475,0.601 0.85596,10e-6 1.57535,-0.1548 2.15815,-0.46441 0.60099,-0.32782 1.09272,-0.72849 1.47519,-1.20201 0.10926,-0.14569 0.23675,-0.1639 0.38246,-0.0546 l 0.62832,0.57368 c 0.12748,0.10928 0.13658,0.23676 0.0273,0.38246 -0.47353,0.63743 -1.11096,1.16558 -1.91229,1.58447 -0.80134,0.40067 -1.74838,0.601 -2.84111,0.601 m 3.4148,-7.70378 c 0.10926,0 0.1639,-0.0546 0.16391,-0.16391 -1e-5,-0.40067 -0.0182,-0.7467 -0.0546,-1.0381 -0.0364,-0.3096 -0.10017,-0.59189 -0.19123,-0.84687 -0.25498,-0.81954 -0.68296,-1.42965 -1.28396,-1.83033 -0.60101,-0.41887 -1.33861,-0.62832 -2.21279,-0.62833 -0.85598,10e-6 -1.58447,0.20946 -2.18547,0.62833 -0.60101,0.40068 -1.029,1.01079 -1.28396,1.83033 -0.0911,0.25498 -0.15481,0.53727 -0.19123,0.84687 -0.0364,0.2914 -0.0546,0.63743 -0.0546,1.0381 0,0.10928 0.0546,0.16391 0.16391,0.16391 l 7.1301,0"
           id="path5462"
           inkscape:connector-curvature="0"
           style="fill:#ffffff;fill-opacity:1" />
        <path
           d="m 426.33567,422.93601 c -0.18213,0 -0.27319,-0.0911 -0.27318,-0.27319 l 0,-12.4845 c -1e-5,-0.18211 0.091,-0.27317 0.27318,-0.27318 l 0.92882,0 c 0.18212,10e-6 0.27318,0.0911 0.27319,0.27318 l 0,1.66642 0.0273,0 c 0.25496,-0.63741 0.66474,-1.16557 1.22932,-1.58446 0.58279,-0.41887 1.3386,-0.62831 2.26743,-0.62833 0.52815,2e-5 1.01988,0.082 1.47519,0.24587 0.4553,0.16392 0.83776,0.38247 1.14737,0.65564 0.14569,0.0911 0.1639,0.20945 0.0546,0.35514 l -0.54637,0.76491 c -0.0911,0.1275 -0.22766,0.14571 -0.40977,0.0546 -0.30962,-0.20032 -0.62833,-0.35513 -0.95615,-0.46441 -0.32782,-0.12748 -0.70117,-0.19122 -1.12005,-0.19123 -0.5828,10e-6 -1.07453,0.11839 -1.47519,0.35514 -0.40068,0.23677 -0.7285,0.55548 -0.98346,0.95614 -0.23677,0.38247 -0.41889,0.84688 -0.54637,1.39324 -0.10928,0.52816 -0.16392,1.09274 -0.16391,1.69374 l 0,7.21205 c -1e-5,0.18213 -0.0911,0.27319 -0.27319,0.27319 l -0.92882,0"
           id="path5464"
           inkscape:connector-curvature="0"
           style="fill:#ffffff;fill-opacity:1" />
      </g>
    </g>
  </g>
</svg>
