<?xml version="1.0" encoding="UTF-8" standalone="no"?>
<!-- Created with Inkscape (http://www.inkscape.org/) -->

<svg
   xmlns:dc="http://purl.org/dc/elements/1.1/"
   xmlns:cc="http://creativecommons.org/ns#"
   xmlns:rdf="http://www.w3.org/1999/02/22-rdf-syntax-ns#"
   xmlns:svg="http://www.w3.org/2000/svg"
   xmlns="http://www.w3.org/2000/svg"
   xmlns:sodipodi="http://sodipodi.sourceforge.net/DTD/sodipodi-0.dtd"
   xmlns:inkscape="http://www.inkscape.org/namespaces/inkscape"
   version="1.1"
   width="207.84714"
   height="48.845318"
   id="svg2"
   inkscape:version="0.48.4 r9939"
   sodipodi:docname="plus_help.svg">
  <sodipodi:namedview
     pagecolor="#ffffff"
     bordercolor="#666666"
     borderopacity="1"
     objecttolerance="10"
     gridtolerance="10"
     guidetolerance="10"
     inkscape:pageopacity="0"
     inkscape:pageshadow="2"
     inkscape:window-width="1547"
     inkscape:window-height="876"
     id="namedview3033"
     showgrid="false"
     fit-margin-top="0"
     fit-margin-left="0"
     fit-margin-right="0"
     fit-margin-bottom="0"
     inkscape:zoom="3.5731687"
     inkscape:cx="76.541953"
     inkscape:cy="62.545719"
     inkscape:window-x="1653"
     inkscape:window-y="24"
     inkscape:window-maximized="1"
     inkscape:current-layer="g3849" />
  <defs
     id="defs4">
    <inkscape:path-effect
       effect="spiro"
       id="path-effect5406"
       is_visible="true" />
    <inkscape:path-effect
       effect="spiro"
       id="path-effect5402"
       is_visible="true" />
    <inkscape:path-effect
       effect="skeletal"
       id="path-effect5188"
       is_visible="true"
       pattern="M 0,0 1,0"
       copytype="single_stretched"
       prop_scale="1"
       scale_y_rel="false"
       spacing="0"
       normal_offset="0"
       tang_offset="0"
       prop_units="false"
       vertical_pattern="false"
       fuse_tolerance="0" />
    <inkscape:path-effect
       effect="skeletal"
       id="path-effect5166"
       is_visible="true"
       pattern="M 0,0 1,0"
       copytype="single_stretched"
       prop_scale="1"
       scale_y_rel="false"
       spacing="0"
       normal_offset="0"
       tang_offset="0"
       prop_units="false"
       vertical_pattern="false"
       fuse_tolerance="0" />
    <inkscape:path-effect
       effect="skeletal"
       id="path-effect5162"
       is_visible="true"
       pattern="M 0,0 1,0"
       copytype="single_stretched"
       prop_scale="1"
       scale_y_rel="false"
       spacing="0"
       normal_offset="0"
       tang_offset="0"
       prop_units="false"
       vertical_pattern="false"
       fuse_tolerance="0" />
    <inkscape:path-effect
       effect="skeletal"
       id="path-effect5158"
       is_visible="true"
       pattern="M 0,0 1,0"
       copytype="single_stretched"
       prop_scale="1"
       scale_y_rel="false"
       spacing="0"
       normal_offset="0"
       tang_offset="0"
       prop_units="false"
       vertical_pattern="false"
       fuse_tolerance="0" />
    <inkscape:path-effect
       effect="skeletal"
       id="path-effect5154"
       is_visible="true"
       pattern="M 0,0 1,0"
       copytype="single_stretched"
       prop_scale="1"
       scale_y_rel="false"
       spacing="0"
       normal_offset="0"
       tang_offset="0"
       prop_units="false"
       vertical_pattern="false"
       fuse_tolerance="0" />
    <inkscape:path-effect
       effect="skeletal"
       id="path-effect5148"
       is_visible="true"
       pattern="M 0,0 1,0"
       copytype="single_stretched"
       prop_scale="1"
       scale_y_rel="false"
       spacing="0"
       normal_offset="0"
       tang_offset="0"
       prop_units="false"
       vertical_pattern="false"
       fuse_tolerance="0" />
    <marker
       refX="0"
       refY="0"
       orient="auto"
       id="EmptyTriangleOutL"
       style="overflow:visible">
      <path
         d="m 5.77,0 -8.65,5 0,-10 8.65,5 z"
         transform="matrix(0.8,0,0,0.8,-4.8,0)"
         id="path3924"
         style="fill:#ffffff;fill-rule:evenodd;stroke:#000000;stroke-width:1pt"
         inkscape:connector-curvature="0" />
    </marker>
    <marker
       refX="0"
       refY="0"
       orient="auto"
       id="Arrow2Lend"
       style="overflow:visible">
      <path
         d="M 8.7185878,4.0337352 -2.2072895,0.01601326 8.7185884,-4.0017078 c -1.7454984,2.3720609 -1.7354408,5.6174519 -6e-7,8.035443 z"
         transform="matrix(-1.1,0,0,-1.1,-1.1,0)"
         id="path3785"
         style="fill-rule:evenodd;stroke-width:0.625;stroke-linejoin:round"
         inkscape:connector-curvature="0" />
    </marker>
    <marker
       refX="0"
       refY="0"
       orient="auto"
       id="Arrow1Mend"
       style="overflow:visible">
      <path
         d="M 0,0 5,-5 -12.5,0 5,5 0,0 z"
         transform="matrix(-0.4,0,0,-0.4,-4,0)"
         id="path3773"
         style="fill-rule:evenodd;stroke:#000000;stroke-width:1pt"
         inkscape:connector-curvature="0" />
    </marker>
    <marker
       refX="0"
       refY="0"
       orient="auto"
       id="Arrow1Lend"
       style="overflow:visible">
      <path
         d="M 0,0 5,-5 -12.5,0 5,5 0,0 z"
         transform="matrix(-0.8,0,0,-0.8,-10,0)"
         id="path3767"
         style="fill-rule:evenodd;stroke:#000000;stroke-width:1pt"
         inkscape:connector-curvature="0" />
    </marker>
    <filter
       id="filter3959"
       inkscape:label="Drop Shadow"
       color-interpolation-filters="sRGB">
      <feFlood
         id="feFlood3961"
         flood-opacity="0.8"
         flood-color="rgb(233,30,99)"
         result="flood" />
      <feComposite
         id="feComposite3963"
         in2="SourceGraphic"
         in="flood"
         operator="in"
         result="composite1" />
      <feGaussianBlur
         id="feGaussianBlur3965"
         stdDeviation="3"
         result="blur" />
      <feOffset
         id="feOffset3967"
         dx="1"
         dy="1"
         result="offset" />
      <feComposite
         id="feComposite3969"
         in2="offset"
         in="SourceGraphic"
         operator="over"
         result="composite2" />
    </filter>
  </defs>
  <metadata
     id="metadata7">
    <rdf:RDF>
      <cc:Work
         rdf:about="">
        <dc:format>image/svg+xml</dc:format>
        <dc:type
           rdf:resource="http://purl.org/dc/dcmitype/StillImage" />
        <dc:title />
      </cc:Work>
    </rdf:RDF>
  </metadata>
  <g
     transform="translate(-275.05592,-378.43436)"
     id="layer1"
     style="fill:#e953ff;fill-opacity:1">
    <g
       id="g3849"
       style="fill:#ffffff;fill-opacity:1;">
      <g
         id="g3845"
         style="fill:#ffffff;fill-opacity:1">
        <path
           style="fill:#ffffff;fill-opacity:1;stroke:none"
           id="rect5408"
           d="m 423.24478,398.70432 c 19.93176,2.82375 30.89416,10.19735 33.58669,8.90502 1.84388,-2.8779 -22.60721,-10.28669 -32.58705,-11.64102 -13.10406,-1.77832 -37.12485,-3.08347 -37.20808,-1.00154 0.10323,2.28909 15.1421,0.75306 36.20844,3.73754 z"
           inkscape:connector-curvature="0"
           sodipodi:nodetypes="scscs" />
        <path
           style="fill:#ffffff;fill-opacity:1;stroke:none"
           id="rect5411"
           d="m 465.4068,412.47914 c 1.57714,-2.12238 -7.89124,-16.17166 -11.3908,-16.29545 -0.40431,1.08649 10.37802,14.83471 8.38065,14.63838 -5.90376,-0.58029 -20.69881,-1.15674 -17.75467,1.84742 9.85981,-0.62098 20.1603,1.63212 20.76482,-0.19035 z"
           inkscape:connector-curvature="0" />
      </g>
      <g
         id="text5414"
         style="font-size:27.31838417px;font-style:normal;font-variant:normal;font-weight:300;font-stretch:normal;text-align:start;line-height:80.00000119%;letter-spacing:0px;word-spacing:0px;writing-mode:lr-tb;text-anchor:start;fill:#ffffff;fill-opacity:1;stroke:none;font-family:DIN Next LT Arabic;-inkscape-font-specification:DIN Next LT Arabic Light"
         transform="translate(0,2)">
        <g
           style="font-size:27.66172981px;text-align:center;line-height:75%;text-anchor:middle;fill:#ffffff;font-family:DIN Next LT Arabic;-inkscape-font-specification:DIN Next LT Arabic Light"
           id="text3029">
          <path
             d="m 298.38683,397.78958 c -0.18441,0 -0.27662,-0.0922 -0.27662,-0.27662 l 0,-18.25674 c 0,-0.18439 0.0922,-0.2766 0.27662,-0.27661 l 6.27921,0 c 1.80722,1e-5 3.21797,0.47948 4.23225,1.4384 1.03269,0.94052 1.54904,2.24062 1.54905,3.90031 -10e-6,1.65971 -0.51636,2.95981 -1.54905,3.9003 -1.01428,0.94051 -2.42503,1.41076 -4.23225,1.41075 l -4.81314,0 c -0.11065,1e-5 -0.16597,0.0553 -0.16597,0.16597 l 0,7.71762 c 0,0.18442 -0.0922,0.27662 -0.27662,0.27662 l -1.02348,0 m 6.22389,-9.65394 c 1.38307,10e-6 2.43422,-0.33193 3.15344,-0.99582 0.73763,-0.66387 1.10645,-1.60437 1.10647,-2.8215 -2e-5,-1.2171 -0.36884,-2.1576 -1.10647,-2.8215 -0.71922,-0.6823 -1.77037,-1.02346 -3.15344,-1.02348 l -4.75782,0 c -0.11065,2e-5 -0.16597,0.0553 -0.16597,0.16597 l 0,7.33036 c 0,0.11065 0.0553,0.16598 0.16597,0.16597 l 4.75782,0"
             style="text-align:start;text-anchor:start;fill:#ffffff"
             id="path3828" />
          <path
             d="m 322.75508,397.78958 c -0.18442,0 -0.27662,-0.0922 -0.27661,-0.27662 l 0,-1.54905 -0.0277,0 c -0.33195,0.64544 -0.82986,1.16179 -1.49373,1.54905 -0.66389,0.36883 -1.44764,0.55324 -2.35125,0.55324 -1.47529,0 -2.60942,-0.43337 -3.40239,-1.3001 -0.77453,-0.86674 -1.16179,-2.10229 -1.16179,-3.70667 l 0,-8.18788 c 0,-0.18439 0.0922,-0.2766 0.27662,-0.27661 l 0.9405,0 c 0.1844,10e-6 0.27661,0.0922 0.27661,0.27661 l 0,7.80061 c 0,2.63709 1.13413,3.95563 3.4024,3.95563 0.4979,0 0.95893,-0.083 1.38308,-0.24896 0.44258,-0.16597 0.82062,-0.4057 1.13413,-0.7192 0.31349,-0.33194 0.56245,-0.7192 0.74687,-1.16179 0.1844,-0.46103 0.27661,-0.97738 0.27662,-1.54906 l 0,-8.07723 c -1e-5,-0.18439 0.0922,-0.2766 0.27661,-0.27661 l 0.9405,0 c 0.1844,10e-6 0.27661,0.0922 0.27662,0.27661 l 0,12.64141 c -10e-6,0.18442 -0.0922,0.27662 -0.27662,0.27662 l -0.9405,0"
             style="text-align:start;text-anchor:start;fill:#ffffff"
             id="path3830" />
          <path
             d="m 334.59863,398.0662 c -1.10648,0 -1.97321,-0.20285 -2.60021,-0.60856 -0.627,-0.4057 -1.09725,-0.92206 -1.41075,-1.54906 l -0.0277,0 0,1.60438 c 0,0.18442 -0.0922,0.27662 -0.27661,0.27662 l -0.9405,0 c -0.18442,0 -0.27662,-0.0922 -0.27662,-0.27662 l 0,-18.25674 c 0,-0.18439 0.0922,-0.2766 0.27662,-0.27661 l 0.9405,0 c 0.1844,1e-5 0.27661,0.0922 0.27661,0.27661 l 0,7.21971 0.0277,0 c 0.3135,-0.62698 0.78375,-1.14334 1.41075,-1.54905 0.627,-0.4057 1.49373,-0.60855 2.60021,-0.60856 2.28669,10e-6 3.78042,1.05116 4.4812,3.15344 0.16595,0.5348 0.28582,1.10647 0.3596,1.71502 0.0737,0.59013 0.11063,1.26323 0.11065,2.01931 -2e-5,0.73765 -0.0369,1.41075 -0.11065,2.01931 -0.0738,0.59012 -0.19365,1.15257 -0.3596,1.68736 -0.70078,2.10229 -2.19451,3.15344 -4.4812,3.15344 m -0.30428,-1.43841 c 0.88516,0 1.60437,-0.19363 2.15761,-0.5809 0.55323,-0.4057 0.95893,-0.9866 1.21712,-1.74269 0.14752,-0.42414 0.23972,-0.89439 0.27661,-1.41074 0.0553,-0.53479 0.083,-1.09725 0.083,-1.68737 -1e-5,-0.59011 -0.0277,-1.15256 -0.083,-1.68737 -0.0369,-0.53478 -0.12909,-1.01425 -0.27661,-1.43841 -0.25819,-0.75607 -0.66389,-1.32775 -1.21712,-1.71502 -0.55324,-0.4057 -1.27245,-0.60855 -2.15761,-0.60856 -0.82986,10e-6 -1.53985,0.19364 -2.12996,0.5809 -0.57168,0.38727 -0.9866,0.96817 -1.24477,1.74268 -0.1291,0.36884 -0.2213,0.8022 -0.27662,1.30011 -0.0553,0.49791 -0.083,1.10647 -0.083,1.82567 0,0.71921 0.0277,1.32777 0.083,1.82567 0.0553,0.47948 0.14752,0.90362 0.27662,1.27244 0.25817,0.77453 0.67309,1.35543 1.24477,1.74269 0.59011,0.38727 1.3001,0.5809 2.12996,0.5809"
             style="text-align:start;text-anchor:start;fill:#ffffff"
             id="path3832" />
          <path
             d="m 346.47243,397.87257 c -0.99583,0 -1.70581,-0.23974 -2.12996,-0.71921 -0.4057,-0.47947 -0.60856,-1.27244 -0.60855,-2.37891 l 0,-15.51823 c -1e-5,-0.18439 0.0922,-0.2766 0.27661,-0.27661 l 0.9405,0 c 0.18441,1e-5 0.27661,0.0922 0.27662,0.27661 l 0,15.46291 c -10e-6,0.64544 0.11064,1.09725 0.33194,1.35542 0.22129,0.23974 0.58089,0.35961 1.07881,0.35961 l 0.47025,0 c 0.1844,0 0.27661,0.0922 0.27661,0.27661 l 0,0.88518 c 0,0.18441 -0.0922,0.27662 -0.27661,0.27662 l -0.63622,0"
             style="text-align:start;text-anchor:start;fill:#ffffff"
             id="path3834" />
          <path
             d="m 351.13948,381.0819 c -0.18442,10e-6 -0.27662,-0.0922 -0.27662,-0.27662 l 0,-1.54906 c 0,-0.18439 0.0922,-0.2766 0.27662,-0.27661 l 1.21712,0 c 0.1844,1e-5 0.27661,0.0922 0.27661,0.27661 l 0,1.54906 c 0,0.18443 -0.0922,0.27663 -0.27661,0.27662 l -1.21712,0 m 0.13831,16.70768 c -0.18442,0 -0.27662,-0.0922 -0.27662,-0.27662 l 0,-12.64141 c 0,-0.18439 0.0922,-0.2766 0.27662,-0.27661 l 0.9405,0 c 0.1844,10e-6 0.27661,0.0922 0.27661,0.27661 l 0,12.64141 c 0,0.18442 -0.0922,0.27662 -0.27661,0.27662 l -0.9405,0"
             style="text-align:start;text-anchor:start;fill:#ffffff"
             id="path3836" />
          <path
             d="m 362.15663,398.0662 c -1.29089,0 -2.3697,-0.29506 -3.23643,-0.88518 -0.84829,-0.59011 -1.45685,-1.45685 -1.82567,-2.6002 -0.12909,-0.4057 -0.23052,-0.85751 -0.30428,-1.35542 -0.0553,-0.51635 -0.083,-1.19867 -0.083,-2.04697 -10e-6,-0.82985 0.0277,-1.50295 0.083,-2.01931 0.0738,-0.53478 0.17519,-1.00503 0.30428,-1.41075 0.36882,-1.10645 0.97738,-1.95475 1.82567,-2.54488 0.84829,-0.5901 1.87178,-0.88516 3.07046,-0.88517 1.19866,10e-6 2.22215,0.29507 3.07045,0.88517 0.86672,0.59013 1.4845,1.43843 1.85333,2.54488 0.14752,0.42416 0.24895,0.88519 0.30428,1.38309 0.0553,0.49792 0.083,1.2079 0.083,2.12995 -1e-5,0.18442 -0.10144,0.27663 -0.30428,0.27662 l -8.6028,0 c -0.11065,1e-5 -0.16597,0.0645 -0.16597,0.19363 0,0.55324 0.0184,1.00505 0.0553,1.35543 0.0553,0.33194 0.12909,0.65466 0.2213,0.96816 0.31349,0.88518 0.78374,1.53984 1.41075,1.96398 0.64543,0.40571 1.41996,0.60856 2.32358,0.60856 0.86673,0 1.59515,-0.15675 2.18528,-0.47025 0.60855,-0.33194 1.10646,-0.73764 1.49373,-1.21712 0.11064,-0.14752 0.23973,-0.16596 0.38727,-0.0553 l 0.63622,0.5809 c 0.12907,0.11065 0.13829,0.23973 0.0277,0.38726 -0.47948,0.64544 -1.12492,1.18023 -1.93632,1.60438 -0.81142,0.40571 -1.77036,0.60856 -2.87682,0.60856 m 3.45771,-7.80061 c 0.11064,1e-5 0.16596,-0.0553 0.16597,-0.16597 -10e-6,-0.4057 -0.0184,-0.75608 -0.0553,-1.05115 -0.0369,-0.31349 -0.10144,-0.59932 -0.19363,-0.85751 -0.25819,-0.82984 -0.69156,-1.44762 -1.3001,-1.85333 -0.60857,-0.42414 -1.35544,-0.63621 -2.2406,-0.63622 -0.86674,10e-6 -1.60439,0.21208 -2.21294,0.63622 -0.60856,0.40571 -1.04193,1.02349 -1.3001,1.85333 -0.0922,0.25819 -0.15676,0.54402 -0.19364,0.85751 -0.0369,0.29507 -0.0553,0.64545 -0.0553,1.05115 0,0.11065 0.0553,0.16598 0.16597,0.16597 l 7.21971,0"
             style="text-align:start;text-anchor:start;fill:#ffffff"
             id="path3838" />
          <path
             d="m 370.81345,397.78958 c -0.18442,0 -0.27662,-0.0922 -0.27662,-0.27662 l 0,-0.82985 c 0,-0.12908 0.0461,-0.24895 0.13831,-0.3596 l 7.82827,-10.2625 0,-0.0277 -7.33036,0 c -0.18441,1e-5 -0.27662,-0.0922 -0.27662,-0.27662 l 0,-0.88518 c 0,-0.18439 0.0922,-0.2766 0.27662,-0.27661 l 8.85175,0 c 0.1844,10e-6 0.27661,0.0922 0.27662,0.27661 l 0,0.88518 c -1e-5,0.1291 -0.0461,0.24897 -0.13831,0.3596 l -7.80061,10.20718 0,0.0553 7.6623,0 c 0.1844,0 0.27661,0.0922 0.27662,0.27662 l 0,0.85751 c -1e-5,0.18442 -0.0922,0.27662 -0.27662,0.27662 l -9.21135,0"
             style="text-align:start;text-anchor:start;fill:#ffffff"
             id="path3840" />
          <path
             d="m 300.74201,416.294 c -0.14401,0 -0.24001,-0.08 -0.288,-0.24 l -4.152,-10.968 c -0.048,-0.15999 0.016,-0.23999 0.192,-0.24 l 0.888,0 c 0.144,10e-6 0.248,0.08 0.312,0.24 l 3.456,9.168 0.024,0 3.384,-9.168 c 0.064,-0.15999 0.16799,-0.23999 0.312,-0.24 l 0.888,0 c 0.17599,10e-6 0.23999,0.08 0.192,0.24 l -4.152,10.968 c -0.048,0.16 -0.14401,0.24 -0.288,0.24 l -0.768,0"
             style="font-size:24px;text-align:start;text-anchor:start;fill:#ffffff"
             id="path3842" />
          <path
             d="m 312.80913,416.534 c -1.056,0 -1.952,-0.256 -2.688,-0.768 -0.736,-0.512 -1.264,-1.24799 -1.584,-2.208 -0.128,-0.38399 -0.224,-0.79999 -0.288,-1.248 -0.064,-0.46399 -0.096,-1.04799 -0.096,-1.752 0,-0.68799 0.032,-1.25599 0.096,-1.704 0.064,-0.46399 0.16,-0.88799 0.288,-1.272 0.32,-0.95999 0.848,-1.69599 1.584,-2.208 0.736,-0.51199 1.632,-0.76799 2.688,-0.768 1.056,1e-5 1.952,0.25601 2.688,0.768 0.752,0.51201 1.28799,1.24801 1.608,2.208 0.12799,0.38401 0.22399,0.80801 0.288,1.272 0.064,0.44801 0.096,1.01601 0.096,1.704 -10e-6,0.70401 -0.032,1.28801 -0.096,1.752 -0.064,0.44801 -0.16001,0.86401 -0.288,1.248 -0.32001,0.96001 -0.856,1.696 -1.608,2.208 -0.736,0.512 -1.632,0.768 -2.688,0.768 m 0,-1.248 c 0.752,0 1.392,-0.184 1.92,-0.552 0.528,-0.36799 0.904,-0.89599 1.128,-1.584 0.112,-0.31999 0.192,-0.67199 0.24,-1.056 0.048,-0.39999 0.072,-0.91199 0.072,-1.536 0,-0.60799 -0.024,-1.10399 -0.072,-1.488 -0.048,-0.39999 -0.128,-0.75999 -0.24,-1.08 -0.224,-0.68799 -0.6,-1.21599 -1.128,-1.584 -0.528,-0.36799 -1.168,-0.55199 -1.92,-0.552 -0.736,1e-5 -1.368,0.18401 -1.896,0.552 -0.528,0.36801 -0.904,0.89601 -1.128,1.584 -0.112,0.32001 -0.192,0.68001 -0.24,1.08 -0.048,0.38401 -0.072,0.88001 -0.072,1.488 0,0.62401 0.024,1.13601 0.072,1.536 0.048,0.38401 0.128,0.73601 0.24,1.056 0.224,0.68801 0.6,1.21601 1.128,1.584 0.528,0.368 1.16,0.552 1.896,0.552"
             style="font-size:24px;text-align:start;text-anchor:start;fill:#ffffff"
             id="path3844" />
          <path
             d="m 324.44351,416.366 c -1.088,0 -1.856,-0.232 -2.304,-0.696 -0.448,-0.464 -0.672,-1.26399 -0.672,-2.4 l 0,-7.128 c 0,-0.096 -0.048,-0.14399 -0.144,-0.144 l -1.2,0 c -0.16,1e-5 -0.24,-0.08 -0.24,-0.24 l 0,-0.672 c 0,-0.15999 0.08,-0.23999 0.24,-0.24 l 1.2,0 c 0.096,10e-6 0.144,-0.048 0.144,-0.144 l 0,-3.288 c 0,-0.15998 0.08,-0.23998 0.24,-0.24 l 0.816,0 c 0.16,2e-5 0.24,0.08 0.24,0.24 l 0,3.288 c 0,0.096 0.048,0.14401 0.144,0.144 l 2.16,0 c 0.15999,10e-6 0.23999,0.08 0.24,0.24 l 0,0.672 c -10e-6,0.16001 -0.08,0.24001 -0.24,0.24 l -2.16,0 c -0.096,1e-5 -0.144,0.048 -0.144,0.144 l 0,7.056 c 0,0.76801 0.136,1.28001 0.408,1.536 0.288,0.256 0.76799,0.384 1.44,0.384 l 0.456,0 c 0.15999,0 0.23999,0.08 0.24,0.24 l 0,0.768 c -10e-6,0.16 -0.08,0.24 -0.24,0.24 l -0.624,0"
             style="font-size:24px;text-align:start;text-anchor:start;fill:#ffffff"
             id="path3846" />
          <path
             d="m 328.84863,416.294 c -0.16,0 -0.24,-0.08 -0.24,-0.24 l 0,-10.968 c 0,-0.15999 0.08,-0.23999 0.24,-0.24 l 0.816,0 c 0.16,10e-6 0.24,0.08 0.24,0.24 l 0,1.464 0.024,0 c 0.224,-0.55999 0.584,-1.02399 1.08,-1.392 0.512,-0.36799 1.176,-0.55199 1.992,-0.552 0.464,1e-5 0.896,0.072 1.296,0.216 0.4,0.14401 0.736,0.33601 1.008,0.576 0.128,0.08 0.144,0.18401 0.048,0.312 l -0.48,0.672 c -0.08,0.11201 -0.2,0.12801 -0.36,0.048 -0.272,-0.17599 -0.552,-0.31199 -0.84,-0.408 -0.288,-0.11199 -0.616,-0.16799 -0.984,-0.168 -0.512,1e-5 -0.944,0.10401 -1.296,0.312 -0.352,0.20801 -0.64,0.48801 -0.864,0.84 -0.208,0.33601 -0.368,0.74401 -0.48,1.224 -0.096,0.46401 -0.144,0.96001 -0.144,1.488 l 0,6.336 c 0,0.16 -0.08,0.24 -0.24,0.24 l -0.816,0"
             style="font-size:24px;text-align:start;text-anchor:start;fill:#ffffff"
             id="path3848" />
          <path
             d="m 342.08426,416.534 c -1.12001,0 -2.056,-0.256 -2.808,-0.768 -0.736,-0.512 -1.264,-1.26399 -1.584,-2.256 -0.112,-0.35199 -0.2,-0.74399 -0.264,-1.176 -0.048,-0.44799 -0.072,-1.03999 -0.072,-1.776 0,-0.71999 0.024,-1.30399 0.072,-1.752 0.064,-0.46399 0.152,-0.87199 0.264,-1.224 0.32,-0.95999 0.848,-1.69599 1.584,-2.208 0.736,-0.51199 1.62399,-0.76799 2.664,-0.768 1.03999,1e-5 1.92799,0.25601 2.664,0.768 0.75199,0.51201 1.28799,1.24801 1.608,2.208 0.12799,0.36801 0.21599,0.76801 0.264,1.2 0.048,0.43201 0.072,1.04801 0.072,1.848 -1e-5,0.16001 -0.088,0.24001 -0.264,0.24 l -7.464,0 c -0.096,10e-6 -0.144,0.056 -0.144,0.168 0,0.48001 0.016,0.87201 0.048,1.176 0.048,0.28801 0.112,0.56801 0.192,0.84 0.272,0.76801 0.68,1.33601 1.224,1.704 0.55999,0.352 1.23199,0.528 2.016,0.528 0.75199,0 1.38399,-0.136 1.896,-0.408 0.52799,-0.288 0.95999,-0.63999 1.296,-1.056 0.096,-0.12799 0.20799,-0.14399 0.336,-0.048 l 0.552,0.504 c 0.11199,0.096 0.11999,0.20801 0.024,0.336 -0.41601,0.56 -0.97601,1.024 -1.68,1.392 -0.70401,0.352 -1.53601,0.528 -2.496,0.528 m 3,-6.768 c 0.096,10e-6 0.14399,-0.048 0.144,-0.144 -10e-6,-0.35199 -0.016,-0.65599 -0.048,-0.912 -0.032,-0.27199 -0.088,-0.51999 -0.168,-0.744 -0.22401,-0.71999 -0.60001,-1.25599 -1.128,-1.608 -0.52801,-0.36799 -1.17601,-0.55199 -1.944,-0.552 -0.75201,1e-5 -1.392,0.18401 -1.92,0.552 -0.528,0.35201 -0.904,0.88801 -1.128,1.608 -0.08,0.22401 -0.136,0.47201 -0.168,0.744 -0.032,0.25601 -0.048,0.56001 -0.048,0.912 0,0.096 0.048,0.14401 0.144,0.144 l 6.264,0"
             style="font-size:24px;text-align:start;text-anchor:start;fill:#ffffff"
             id="path3850" />
          <path
             d="m 359.65338,416.534 c -0.512,0 -0.992,-0.048 -1.44,-0.144 -0.448,-0.096 -0.864,-0.224 -1.248,-0.384 -0.368,-0.16 -0.704,-0.328 -1.008,-0.504 -0.288,-0.192 -0.544,-0.384 -0.768,-0.576 -0.112,-0.112 -0.112,-0.224 0,-0.336 l 0.528,-0.6 c 0.096,-0.096 0.208,-0.096 0.336,0 0.448,0.36801 0.984,0.688 1.608,0.96 0.624,0.256 1.328,0.384 2.112,0.384 1.008,0 1.752,-0.2 2.232,-0.6 0.496,-0.39999 0.744,-0.93599 0.744,-1.608 0,-0.28799 -0.04,-0.54399 -0.12,-0.768 -0.064,-0.22399 -0.2,-0.41599 -0.408,-0.576 -0.192,-0.17599 -0.456,-0.31199 -0.792,-0.408 -0.336,-0.11199 -0.768,-0.19999 -1.296,-0.264 l -1.152,-0.12 c -1.072,-0.11199 -1.896,-0.41599 -2.472,-0.912 -0.576,-0.51199 -0.864,-1.22399 -0.864,-2.136 0,-1.05599 0.352,-1.87199 1.056,-2.448 0.72,-0.59199 1.712,-0.88799 2.976,-0.888 0.784,1e-5 1.496,0.11201 2.136,0.336 0.656,0.20801 1.216,0.46401 1.68,0.768 0.128,0.096 0.14399,0.20801 0.048,0.336 l -0.432,0.576 c -0.08,0.12801 -0.192,0.15201 -0.336,0.072 -0.368,-0.22399 -0.84,-0.42399 -1.416,-0.6 -0.56,-0.19199 -1.144,-0.28799 -1.752,-0.288 -0.88,1e-5 -1.544,0.18401 -1.992,0.552 -0.448,0.35201 -0.672,0.84801 -0.672,1.488 0,0.56001 0.192,1.00001 0.576,1.32 0.4,0.30401 1.088,0.50401 2.064,0.6 l 1.152,0.12 c 1.12,0.11201 1.952,0.43201 2.496,0.96 0.54399,0.51201 0.81599,1.21601 0.816,2.112 -1e-5,1.10401 -0.37601,1.976 -1.128,2.616 -0.736,0.64 -1.824,0.96 -3.264,0.96"
             style="font-size:24px;text-align:start;text-anchor:start;fill:#ffffff"
             id="path3852" />
          <path
             d="m 371.56863,416.534 c -1.12,0 -2.056,-0.256 -2.808,-0.768 -0.736,-0.512 -1.264,-1.26399 -1.584,-2.256 -0.112,-0.35199 -0.2,-0.74399 -0.264,-1.176 -0.048,-0.44799 -0.072,-1.03999 -0.072,-1.776 0,-0.71999 0.024,-1.30399 0.072,-1.752 0.064,-0.46399 0.152,-0.87199 0.264,-1.224 0.32,-0.95999 0.848,-1.69599 1.584,-2.208 0.736,-0.51199 1.624,-0.76799 2.664,-0.768 1.04,1e-5 1.928,0.25601 2.664,0.768 0.752,0.51201 1.28799,1.24801 1.608,2.208 0.12799,0.36801 0.21599,0.76801 0.264,1.2 0.048,0.43201 0.072,1.04801 0.072,1.848 -10e-6,0.16001 -0.088,0.24001 -0.264,0.24 l -7.464,0 c -0.096,10e-6 -0.144,0.056 -0.144,0.168 0,0.48001 0.016,0.87201 0.048,1.176 0.048,0.28801 0.112,0.56801 0.192,0.84 0.272,0.76801 0.68,1.33601 1.224,1.704 0.56,0.352 1.232,0.528 2.016,0.528 0.752,0 1.384,-0.136 1.896,-0.408 0.528,-0.288 0.96,-0.63999 1.296,-1.056 0.096,-0.12799 0.208,-0.14399 0.336,-0.048 l 0.552,0.504 c 0.11199,0.096 0.11999,0.20801 0.024,0.336 -0.41601,0.56 -0.976,1.024 -1.68,1.392 -0.704,0.352 -1.536,0.528 -2.496,0.528 m 3,-6.768 c 0.096,10e-6 0.144,-0.048 0.144,-0.144 0,-0.35199 -0.016,-0.65599 -0.048,-0.912 -0.032,-0.27199 -0.088,-0.51999 -0.168,-0.744 -0.224,-0.71999 -0.6,-1.25599 -1.128,-1.608 -0.528,-0.36799 -1.176,-0.55199 -1.944,-0.552 -0.752,1e-5 -1.392,0.18401 -1.92,0.552 -0.528,0.35201 -0.904,0.88801 -1.128,1.608 -0.08,0.22401 -0.136,0.47201 -0.168,0.744 -0.032,0.25601 -0.048,0.56001 -0.048,0.912 0,0.096 0.048,0.14401 0.144,0.144 l 6.264,0"
             style="font-size:24px;text-align:start;text-anchor:start;fill:#ffffff"
             id="path3854" />
          <path
             d="m 379.89551,416.294 c -0.16,0 -0.24,-0.08 -0.24,-0.24 l 0,-10.968 c 0,-0.15999 0.08,-0.23999 0.24,-0.24 l 0.816,0 c 0.16,10e-6 0.24,0.08 0.24,0.24 l 0,1.464 0.024,0 c 0.224,-0.55999 0.584,-1.02399 1.08,-1.392 0.51199,-0.36799 1.17599,-0.55199 1.992,-0.552 0.46399,1e-5 0.89599,0.072 1.296,0.216 0.39999,0.14401 0.73599,0.33601 1.008,0.576 0.12799,0.08 0.14399,0.18401 0.048,0.312 l -0.48,0.672 c -0.08,0.11201 -0.20001,0.12801 -0.36,0.048 -0.27201,-0.17599 -0.55201,-0.31199 -0.84,-0.408 -0.28801,-0.11199 -0.61601,-0.16799 -0.984,-0.168 -0.51201,1e-5 -0.94401,0.10401 -1.296,0.312 -0.352,0.20801 -0.64,0.48801 -0.864,0.84 -0.208,0.33601 -0.368,0.74401 -0.48,1.224 -0.096,0.46401 -0.144,0.96001 -0.144,1.488 l 0,6.336 c 0,0.16 -0.08,0.24 -0.24,0.24 l -0.816,0"
             style="font-size:24px;text-align:start;text-anchor:start;fill:#ffffff"
             id="path3856" />
          <path
             d="m 392.19513,416.294 c -0.144,0 -0.24,-0.08 -0.288,-0.24 l -4.152,-10.968 c -0.048,-0.15999 0.016,-0.23999 0.192,-0.24 l 0.888,0 c 0.144,10e-6 0.248,0.08 0.312,0.24 l 3.456,9.168 0.024,0 3.384,-9.168 c 0.064,-0.15999 0.168,-0.23999 0.312,-0.24 l 0.888,0 c 0.17599,10e-6 0.23999,0.08 0.192,0.24 l -4.152,10.968 c -0.048,0.16 -0.144,0.24 -0.288,0.24 l -0.768,0"
             style="font-size:24px;text-align:start;text-anchor:start;fill:#ffffff"
             id="path3858" />
          <path
             d="m 400.54113,401.798 c -0.16,2e-5 -0.24,-0.08 -0.24,-0.24 l 0,-1.344 c 0,-0.15998 0.08,-0.23998 0.24,-0.24 l 1.056,0 c 0.16,2e-5 0.24,0.08 0.24,0.24 l 0,1.344 c 0,0.16002 -0.08,0.24002 -0.24,0.24 l -1.056,0 m 0.12,14.496 c -0.16,0 -0.24,-0.08 -0.24,-0.24 l 0,-10.968 c 0,-0.15999 0.08,-0.23999 0.24,-0.24 l 0.816,0 c 0.16,10e-6 0.24,0.08 0.24,0.24 l 0,10.968 c 0,0.16 -0.08,0.24 -0.24,0.24 l -0.816,0"
             style="font-size:24px;text-align:start;text-anchor:start;fill:#ffffff"
             id="path3860" />
          <path
             d="m 405.37188,410.582 c 0,-0.68799 0.032,-1.26399 0.096,-1.728 0.064,-0.47999 0.152,-0.90399 0.264,-1.272 0.304,-0.94399 0.824,-1.67199 1.56,-2.184 0.752,-0.52799 1.656,-0.79199 2.712,-0.792 0.912,1e-5 1.68,0.18401 2.304,0.552 0.624,0.36801 1.144,0.90401 1.56,1.608 0.08,0.12801 0.056,0.23201 -0.072,0.312 l -0.672,0.432 c -0.128,0.08 -0.232,0.048 -0.312,-0.096 -0.336,-0.52799 -0.72,-0.91999 -1.152,-1.176 -0.432,-0.25599 -0.984,-0.38399 -1.656,-0.384 -0.752,1e-5 -1.384,0.18401 -1.896,0.552 -0.512,0.35201 -0.88,0.88801 -1.104,1.608 -0.112,0.32001 -0.192,0.68001 -0.24,1.08 -0.048,0.40001 -0.072,0.89601 -0.072,1.488 0,0.59201 0.024,1.08801 0.072,1.488 0.048,0.38401 0.128,0.73601 0.24,1.056 0.224,0.72001 0.592,1.26401 1.104,1.632 0.512,0.352 1.144,0.528 1.896,0.528 0.672,0 1.224,-0.128 1.656,-0.384 0.432,-0.256 0.816,-0.64799 1.152,-1.176 0.08,-0.14399 0.184,-0.17599 0.312,-0.096 l 0.672,0.432 c 0.12799,0.08 0.15199,0.18401 0.072,0.312 -0.416,0.704 -0.936,1.24 -1.56,1.608 -0.624,0.368 -1.392,0.552 -2.304,0.552 -1.056,0 -1.96,-0.256 -2.712,-0.768 -0.736,-0.528 -1.256,-1.26399 -1.56,-2.208 -0.112,-0.36799 -0.2,-0.78399 -0.264,-1.248 -0.064,-0.46399 -0.096,-1.03999 -0.096,-1.728"
             style="font-size:24px;text-align:start;text-anchor:start;fill:#ffffff"
             id="path3862" />
          <path
             d="m 421.39676,416.534 c -1.12001,0 -2.056,-0.256 -2.808,-0.768 -0.736,-0.512 -1.264,-1.26399 -1.584,-2.256 -0.112,-0.35199 -0.2,-0.74399 -0.264,-1.176 -0.048,-0.44799 -0.072,-1.03999 -0.072,-1.776 0,-0.71999 0.024,-1.30399 0.072,-1.752 0.064,-0.46399 0.152,-0.87199 0.264,-1.224 0.32,-0.95999 0.848,-1.69599 1.584,-2.208 0.736,-0.51199 1.62399,-0.76799 2.664,-0.768 1.03999,1e-5 1.92799,0.25601 2.664,0.768 0.75199,0.51201 1.28799,1.24801 1.608,2.208 0.12799,0.36801 0.21599,0.76801 0.264,1.2 0.048,0.43201 0.072,1.04801 0.072,1.848 -1e-5,0.16001 -0.088,0.24001 -0.264,0.24 l -7.464,0 c -0.096,10e-6 -0.144,0.056 -0.144,0.168 0,0.48001 0.016,0.87201 0.048,1.176 0.048,0.28801 0.112,0.56801 0.192,0.84 0.272,0.76801 0.68,1.33601 1.224,1.704 0.55999,0.352 1.23199,0.528 2.016,0.528 0.75199,0 1.38399,-0.136 1.896,-0.408 0.52799,-0.288 0.95999,-0.63999 1.296,-1.056 0.096,-0.12799 0.20799,-0.14399 0.336,-0.048 l 0.552,0.504 c 0.11199,0.096 0.11999,0.20801 0.024,0.336 -0.41601,0.56 -0.97601,1.024 -1.68,1.392 -0.70401,0.352 -1.53601,0.528 -2.496,0.528 m 3,-6.768 c 0.096,10e-6 0.14399,-0.048 0.144,-0.144 -10e-6,-0.35199 -0.016,-0.65599 -0.048,-0.912 -0.032,-0.27199 -0.088,-0.51999 -0.168,-0.744 -0.22401,-0.71999 -0.60001,-1.25599 -1.128,-1.608 -0.52801,-0.36799 -1.17601,-0.55199 -1.944,-0.552 -0.75201,1e-5 -1.392,0.18401 -1.92,0.552 -0.528,0.35201 -0.904,0.88801 -1.128,1.608 -0.08,0.22401 -0.136,0.47201 -0.168,0.744 -0.032,0.25601 -0.048,0.56001 -0.048,0.912 0,0.096 0.048,0.14401 0.144,0.144 l 6.264,0"
             style="font-size:24px;text-align:start;text-anchor:start;fill:#ffffff"
             id="path3864" />
        </g>
      </g>
    </g>
  </g>
</svg>
